<?xml version="1.0" encoding="UTF-8"?>
<svg width="165px" height="165px" viewBox="0 0 165 165" version="1.1" xmlns="http://www.w3.org/2000/svg" xmlns:xlink="http://www.w3.org/1999/xlink">
    <title>Add Money</title>
    <defs>
        <polygon id="path-1" points="0.000630180193 0.296458333 153.624423 0.296458333 153.624423 143.138666 0.000630180193 143.138666"></polygon>
        <polygon id="path-3" points="0.488580535 0.907761019 71.4969176 0.907761019 71.4969176 72 0.488580535 72"></polygon>
    </defs>
    <g id="Page-1" stroke="none" stroke-width="1" fill="none" fill-rule="evenodd">
        <g id="Library" transform="translate(-367.000000, -71.000000)">
            <g id="Add-Money" transform="translate(367.000000, 71.000000)">
                <g id="Group-3">
                    <mask id="mask-2" fill="white">
                        <use xlink:href="#path-1"></use>
                    </mask>
                    <g id="Clip-2"></g>
                    <path d="M71.4133627,22.6195542 L90.0619902,22.6195542 C102.993853,22.6195542 115.925716,22.6408458 128.854539,22.5769708 C129.972971,22.5739292 131.91199,23.5107625 131.921108,21.1473875 C131.936304,18.1695958 132.070029,15.1370542 131.577676,12.2231375 C130.985029,8.68872083 127.769539,6.34967917 124.128559,6.25234583 C119.28101,6.12459583 114.433461,5.98467917 109.588951,5.99684583 C77.7592451,6.06984583 45.9325784,6.18542917 14.1059118,6.27667917 C11.9693431,6.2827625 9.97257843,6.42572083 8.24630392,8.0256375 C5.38032353,10.6810125 5.05512745,14.0146792 6.2465,17.2510125 C7.53208824,20.7398042 10.4132647,22.6317208 14.3429706,22.6286792 C33.3654216,22.6073875 52.3909118,22.6195542 71.4133627,22.6195542 L71.4133627,22.6195542 Z M75.8080686,27.8086375 C57.6517941,27.8086375 39.4955196,27.9059708 21.3392451,27.7447625 C16.5828725,27.7021792 11.6502255,28.3013875 7.14002941,25.9197625 C5.95777451,25.2962208 5.61738235,26.0748875 5.56267647,27.0968875 C5.51404902,27.9668042 5.44110784,28.8367208 5.43806863,29.7096792 C5.28002941,62.8121375 5.0065,95.9176375 5.74806863,129.017054 C5.88787255,135.225096 8.54414706,137.725346 14.6347353,137.774013 C35.7724804,137.947388 56.9132647,138.120763 78.054049,138.309346 C79.8380686,138.327596 82.111402,137.789221 82.0384608,140.763971 C81.9685588,143.726554 79.6648333,143.078679 77.9172843,143.078679 C56.6518922,143.069554 35.3865,143.045221 14.1211078,142.984388 C5.90002941,142.963096 0.499343137,138.029513 0.386892157,129.701429 C0.0860098039,106.928471 -0.00516666667,84.1494292 0.000630180193,61.3764708 C0.00395098039,45.6966792 0.271401961,30.0168875 0.481107843,14.3370958 C0.587480392,6.33447083 5.71767647,0.9081375 13.6135588,0.777345833 C50.1631667,0.162929167 86.7188529,0.108179167 123.268461,0.7803875 C131.760029,0.938554167 136.765618,6.09722083 137.188069,14.5408875 C137.236696,15.5355125 137.306598,16.5392625 137.215422,17.5278042 C136.914539,20.8249708 137.501108,22.9541375 141.242382,24.5205958 C145.433461,26.2847625 147.831402,30.2328458 147.807088,35.2698458 C147.764539,44.7263875 147.943853,54.1859708 147.934735,63.6455542 C147.931696,65.6287208 148.235618,67.1008875 150.153363,68.2354292 C152.271696,69.4855542 153.45699,71.6147208 153.526892,74.1423458 C153.627186,77.7497625 153.590716,81.3602208 153.624423,84.9706792 C153.642382,86.8747625 152.757971,88.2465542 150.846304,88.1553042 C149.159539,88.0762208 148.390618,86.7074708 148.399735,84.9798042 C148.414931,81.8681792 148.34199,78.7565542 148.411892,75.6479708 C148.475716,72.9500125 147.190127,71.8519708 144.58248,71.8641375 C136.124343,71.9006375 127.669245,71.9219292 119.214147,71.8519708 C116.329931,71.8276375 115.17199,73.0564708 115.28748,75.9125958 C115.402971,78.7656792 115.257088,81.6339708 115.229735,84.4961792 C115.214539,86.4154708 114.697873,88.1340125 112.448853,88.1309708 C110.163363,88.1309708 110.233265,86.2755542 110.242382,84.6117625 C110.263657,81.5001375 110.21199,78.3854708 110.269735,75.2768875 C110.382186,69.1905125 112.783167,66.8301792 118.989245,66.7723875 C125.952088,66.7085125 132.917971,66.6142208 139.880814,66.7480542 C142.29699,66.7936792 143.108461,66.1731792 143.03552,63.6546792 C142.765029,54.3258875 142.783265,44.9879708 142.549245,35.6591792 C142.436794,31.0419292 139.060225,27.9576792 134.382873,27.9515958 C114.855912,27.9363875 95.3319902,27.9455125 75.8080686,27.9455125 L75.8080686,27.8086375 Z" id="Fill-1" fill="#6C6D6D" mask="url(#mask-2)"></path>
                </g>
                <g id="Group-6" transform="translate(93.000000, 93.000000)">
                    <mask id="mask-4" fill="white">
                        <use xlink:href="#path-3"></use>
                    </mask>
                    <g id="Clip-5"></g>
                    <path d="M5.900352,36.1576083 C4.839392,52.1993583 19.163872,67.0244417 36.424992,66.7598167 C53.148032,66.501275 66.432832,52.4579 66.131872,35.50365 C65.843072,19.179025 51.877312,5.984275 35.364032,6.07505455 C18.245792,6.17285833 4.815072,21.770525 5.900352,36.1576083 M0.488580535,35.9629417 C0.428352,15.693275 17.911392,0.4819 36.233472,0.916858333 C55.820192,1.38223333 71.725472,17.18065 71.494432,36.589525 C71.263392,55.9497333 55.133152,72.1009833 36.127072,72.0010737 C16.002272,71.89415 0.379712,56.0957333 0.488580535,35.9629417" id="Fill-4" fill="#C83548" mask="url(#mask-4)"></path>
                </g>
                <path d="M126.657531,87.9995825 C123.646359,88.0373926 120.913531,85.5012095 121.002095,82.7497999 C121.084333,80.2659692 123.855117,77.9711889 126.739769,78.0002735 C129.871135,78.0351751 132.021972,80.065285 131.999831,82.9708434 C131.97769,85.7513376 129.630747,87.958864 126.657531,87.9995825" id="Fill-7" fill="#6C6D6D"></path>
                <path d="M134.408187,44 C135.820245,44.2696966 137.05728,44.8909078 136.99795,46.5363599 C136.941586,48.0727213 135.941872,49.0030229 134.387421,49 C132.948664,48.9969623 132.13584,47.9666608 132.014213,46.6787839 C131.862921,45.0727257 132.936798,44.2666663 134.408187,44" id="Fill-9" fill="#6C6D6D"></path>
                <path d="M13.5972969,132 C12.1143599,131.639446 10.9428396,130.87364 11.002157,129.386726 C11.0614745,127.992186 11.9186122,126.937341 13.5528088,127.002897 C15.1247221,127.068452 15.9729622,127.950469 15.999655,129.485059 C16.023382,131.115003 14.8192371,131.654345 13.5972969,132" id="Fill-11" fill="#6C6D6D"></path>
                <path d="M48.9956297,129.166212 C49.075345,131.12271 48.0574411,131.931975 46.5244533,131.997088 C45.1478302,132.0529 44.1023325,131.305647 44.0103532,129.817344 C43.912242,128.294934 44.5009093,127.054682 46.2270536,127.001971 C47.7661734,126.955461 48.7932753,127.73372 48.9956297,129.166212" id="Fill-13" fill="#6C6D6D"></path>
                <path d="M93,35.4733344 C92.8461545,37.268041 91.9441978,37.9677255 90.3363619,37.9991015 C88.7586918,38.0336151 88.0890116,37.0703722 88.007564,35.7055168 C87.9110335,34.1022038 88.7405923,32.9632554 90.3725609,33.0009066 C91.8597336,33.0322826 92.843138,33.9108102 93,35.4733344" id="Fill-15" fill="#6C6D6D"></path>
                <path d="M134.309131,33 C135.954003,33.0220756 136.87207,33.9145586 136.989771,35.4913839 C137.122185,37.27635 135.95106,37.8660826 134.518051,37.9859214 C132.964398,38.115221 131.946284,37.3551913 132.002192,35.65222 C132.052215,34.1384678 132.831984,33.063073 134.309131,33" id="Fill-17" fill="#6C6D6D"></path>
                <path d="M25.2059689,127.000922 C25.8552854,126.964198 26.781604,128.02919 26.9722291,129.443058 C27.1956178,131.08339 26.042932,132.044331 24.5358027,131.998426 C23.1329215,131.955582 21.9206653,131.254768 22.0040637,129.467541 C22.0695911,128.050612 22.7010366,127.117214 25.2059689,127.000922" id="Fill-19" fill="#6C6D6D"></path>
                <path d="M35.5063694,132 C34.1088969,131.669026 32.9427733,131.09653 33.0021737,129.393952 C33.0521951,127.99253 33.7118521,127.077133 35.2375045,127.005571 C36.8819576,126.925064 37.8573746,127.718209 37.9886808,129.316426 C38.1199869,130.962351 37.0976748,131.698843 35.5063694,132" id="Fill-21" fill="#6C6D6D"></path>
                <path d="M57.2946725,127 C58.7728871,127.143851 59.7720779,127.935033 59.971916,129.391526 C60.2070197,131.078781 58.9257045,131.863969 57.6355729,131.986842 C56.263155,132.118706 55.0905752,131.252601 55.0053501,129.69721 C54.920125,128.180779 55.8605398,127.311678 57.2946725,127" id="Fill-23" fill="#6C6D6D"></path>
                <path d="M27,35.4914116 C26.7666674,36.8043297 26.3443059,37.9116101 24.8202602,37.9907015 C23.3611933,38.0634657 22.1384124,37.7407725 22.0114086,35.8900325 C21.8932655,34.2354393 22.6966385,33.2040867 24.2384056,33.0205945 C25.8805944,32.8244477 26.5215205,34.0582744 27,35.4914116" id="Fill-25" fill="#6C6D6D"></path>
                <path d="M48.9981984,35.990026 C48.9586784,37.4038404 47.918998,38.006194 46.3564373,38 C44.8212367,37.99371 44.0247563,36.948174 44.0004363,35.6311106 C43.9761163,34.0893351 44.9701967,32.987621 46.5540374,33.000105 C48.1074781,33.009468 49.0468385,33.9051959 48.9981984,35.990026" id="Fill-27" fill="#6C6D6D"></path>
                <path d="M60,35.3068948 C59.8012787,36.8783151 59.0794528,37.9206801 57.5042943,37.9962595 C55.8765331,38.0718388 55.0611913,36.9948333 55.0027439,35.4234129 C54.9472188,33.9590633 55.7362593,33.0678569 57.2003676,33.0048742 C58.7346129,32.9355931 59.7048404,33.6000614 60,35.3068948" id="Fill-29" fill="#6C6D6D"></path>
                <path d="M79.3920279,132 C77.7193078,131.674308 76.834304,130.822729 77.025741,129.200246 C77.1857948,127.825766 77.8856383,126.965223 79.4673473,127.001079 C81.1745888,127.039923 82.0062414,127.846682 82,129.493069 C81.9905498,131.226108 80.7163953,131.662356 79.3920279,132" id="Fill-31" fill="#6C6D6D"></path>
                <path d="M71,35.5349388 C70.794251,37.1524381 70.0664522,38.0933571 68.3529006,37.9926567 C66.9218701,37.9076908 66.022102,37.3318106 66.0006058,35.7331926 C65.9760388,34.0842243 66.6976958,33.0488988 68.343688,33.0016956 C69.9773966,32.9513454 70.7389751,34.0275804 71,35.5349388" id="Fill-33" fill="#6C6D6D"></path>
                <path d="M80.3878792,37.9935507 C77.8439092,38.0953294 77.0549368,36.9821253 77.0021315,35.3854726 C76.9493263,33.8460704 77.8811835,32.9936742 79.4032168,33 C81.0588164,33.0063965 81.996886,33.8397093 82,35.6144746 C82.0030983,37.2429331 81.0836659,37.907675 80.3878792,37.9935507" id="Fill-35" fill="#6C6D6D"></path>
                <path d="M13.4963079,37.9958311 C11.8513784,37.9768215 10.9028425,37.0009971 11.0079018,35.3756793 C11.1129612,33.8137267 12.0614972,32.8664167 13.7364435,33.0153249 C15.1982695,33.1483919 15.9817122,33.9594667 15.9997224,35.4643906 C16.0177325,37.1847563 15.1592475,38.0687011 13.4963079,37.9958311" id="Fill-37" fill="#6C6D6D"></path>
                <path d="M137,57.5087838 C136.511974,59.1039294 135.622553,60.1225524 134.172913,59.98813 C132.936965,59.8716306 131.92626,58.9545712 132.004228,57.5386555 C132.082197,56.0839066 132.856109,54.8681308 134.438584,55.0115147 C135.850684,55.1369756 136.641922,56.2213161 137,57.5087838" id="Fill-39" fill="#6C6D6D"></path>
                <path d="M68.396944,127.014736 C70.0195676,126.87302 70.818301,127.764258 70.975532,129.222361 C71.1516307,130.888315 70.3780543,131.993701 68.6265012,132 C67.2585917,132 66.0950825,131.508717 66.0070331,129.833316 C65.9158392,128.129571 66.7114279,127.187945 68.396944,127.014736" id="Fill-41" fill="#6C6D6D"></path>
                <path d="M104,35.4130501 C103.617841,37.0834487 102.91622,38.1218904 101.262186,37.9885126 C99.6200951,37.8614861 98.9334024,36.8484496 99.0050573,35.2002807 C99.0737266,33.606098 100.050024,33.0535327 101.414453,33.0027221 C103.098343,32.9360332 103.656654,34.104677 104,35.4130501" id="Fill-43" fill="#6C6D6D"></path>
                <path d="M124.285073,37.9998164 C121.95476,38.015808 120.990914,36.9859476 121.000064,35.4411569 C121.012265,33.8675814 122.034064,32.9304724 123.678093,33.0040338 C125.126913,33.0711986 125.935202,33.7972183 125.996205,35.3580005 C126.063308,37.1010872 125.230618,37.9486432 124.285073,37.9998164" id="Fill-45" fill="#6C6D6D"></path>
                <path d="M38,35.5200487 C37.9589759,36.8567042 37.4035726,37.8895744 35.8162551,37.9887044 C34.194225,38.0910321 33.086574,37.5122411 33.0045258,35.6735402 C32.9382561,34.1578112 33.5977975,33.1153478 35.1125339,33.0098223 C36.6872285,32.9042969 37.8043466,33.642975 38,35.5200487" id="Fill-47" fill="#6C6D6D"></path>
                <path d="M115,35.3542443 C114.858507,37.019006 114.110169,38.0063598 112.374527,38 C110.840119,37.9967738 110.066627,37.2714362 110.003741,35.6769716 C109.944,34.1368275 110.59801,33.1494736 112.088398,33.0152702 C113.69198,32.8714808 114.685572,33.7501938 115,35.3542443" id="Fill-49" fill="#6C6D6D"></path>
                <path d="M118.051294,126.191165 C126.550062,126.133342 126.550062,126.133342 126.550062,118.525031 C126.550062,116.659473 126.583824,114.793915 126.540855,112.928357 C126.500954,111.187576 127.035005,110.031113 129.039229,110.000679 C130.939098,109.967203 131.331962,111.175402 131.362655,112.675761 C131.445525,116.282101 131.623542,119.891483 131.513048,123.491736 C131.445525,125.625106 132.136107,126.285508 134.281517,126.233771 C137.912446,126.145515 141.549514,126.398111 145.183513,126.452891 C146.758041,126.477237 147.862973,126.888086 147.988812,128.692777 C148.126929,130.677025 146.972889,131.34047 145.266382,131.407423 C141.758223,131.544372 138.240857,131.833488 134.744975,131.663062 C132.007199,131.529156 131.34117,132.518236 131.509979,135.044195 C131.724827,138.264032 131.509979,141.508216 131.577503,144.740227 C131.617403,146.669694 130.837812,148.078753 128.894973,147.996584 C127.231437,147.923544 126.467192,146.614914 126.51937,144.813266 C126.620655,141.334747 126.418084,137.844054 126.596101,134.368577 C126.709664,132.171297 125.893242,131.660019 123.821494,131.690452 C120.193634,131.742188 116.562705,131.489592 112.931776,131.352643 C111.280516,131.288733 109.966875,130.896144 110.000636,128.817554 C110.034398,126.705487 111.400217,126.489411 113.033061,126.437674 C115.040354,126.376808 117.041509,126.242901 118.051294,126.191165" id="Fill-51" fill="#C83548"></path>
            </g>
        </g>
    </g>
</svg>