<svg id="edd5a74b-e0ff-45b3-b9ce-7972a5968382" data-name="Layer 1" xmlns="http://www.w3.org/2000/svg" xmlns:xlink="http://www.w3.org/1999/xlink" viewBox="0 0 500 400"><defs><style>.ef8f41c0-74bc-4941-aae6-be74c9c17f17{fill:#fff;}.b7d8f6d4-9a61-4d30-ab9d-e036ac1446a7,.ef8f41c0-74bc-4941-aae6-be74c9c17f17{fill-rule:evenodd;}.b7d8f6d4-9a61-4d30-ab9d-e036ac1446a7{fill:#c70039;}.ac7880b7-b5a2-4aea-9e79-818ba0b41930{mask:url(#f1612b9d-37aa-4efe-a27f-7439ff256ed0);}</style><mask id="f1612b9d-37aa-4efe-a27f-7439ff256ed0" x="0" y="100" width="180" height="300" maskUnits="userSpaceOnUse"><g transform="translate(-62.5 -50)"><g id="a39d9d54-dc6b-4910-a2c2-dc6ffe10b7c1" data-name="mask-2"><polygon id="fe5b0471-d909-4570-8247-9b10fce0166a" data-name="path-1" class="ef8f41c0-74bc-4941-aae6-be74c9c17f17" points="62.5 150 242.5 150 242.5 450 62.5 450 62.5 150"/></g></g></mask></defs><g id="aa4a7979-d424-434c-ac18-aa6597785730" data-name="Page-1"><g id="be4608ba-879a-4113-aff0-08eba0c9a782" data-name="Transaction-History"><g id="b210f679-b08e-4d09-8f5a-2968412ddd42" data-name="Group-24"><path id="b5326217-c9d6-43bd-9e01-f821f0b38fc4" data-name="Fill-1" class="b7d8f6d4-9a61-4d30-ab9d-e036ac1446a7" d="M470.3,50A32.5,32.5,0,0,0,438,82.6v1.6L308.3,121.7a8.8,8.8,0,0,0-5.6,9.8,8.7,8.7,0,0,0,9.6,5.7L438,101.3V261.9a8.1,8.1,0,1,0,16.2,0V82.6a16.1,16.1,0,1,1,32.2,0V107c0,4.9,3.2,8.2,8,8.2s8.1-3.3,8.1-8.2V82.6C502.5,64.7,488,50,470.3,50" transform="translate(-62.5 -50)"/><path id="fe03b0a6-aee4-4f42-9794-2498530d9b1c" data-name="Fill-3" class="b7d8f6d4-9a61-4d30-ab9d-e036ac1446a7" d="M494.7,150c-4.6,0-7.8,3.2-7.8,8V358c0,8.8-7,16-15.5,16a15.8,15.8,0,0,1-15.6-16V314c0-4.8-3.1-8-7.7-8s-7.8,3.2-7.8,8v25.6L232.6,278c-2.3-.8-4.7,0-7,1.6a7.4,7.4,0,0,0-3.1,6.4v80c0,4.8,3.1,8,7.8,8s7.8-3.2,7.8-8V296.4l202.2,59.2V358c0,17.6,14,32,31.1,32s31.1-14.4,31.1-32V158c0-4.8-3.1-8-7.8-8" transform="translate(-62.5 -50)"/><path id="ac214ccb-03dd-4eba-91da-1963d95b1e50" data-name="Fill-5" class="b7d8f6d4-9a61-4d30-ab9d-e036ac1446a7" d="M268.6,150h1.9l7.3-2.7c3.3-1.8,5.2-6.3,4.6-10.8s-4.6-7.2-7.9-6.3l-7.3,2.7c-3.3,1.8-5.2,6.3-4.6,10.8a6.1,6.1,0,0,0,6,6.3" transform="translate(-62.5 -50)"/><g id="b556c810-e057-4810-9f5a-1f49a70c50fb" data-name="Group-9"><g class="ac7880b7-b5a2-4aea-9e79-818ba0b41930"><path id="b56a4fa7-b967-46cb-9232-9c7e4976cf99" data-name="Fill-7" class="b7d8f6d4-9a61-4d30-ab9d-e036ac1446a7" d="M222.9,390.5c-5,0-8.4,3.1-8.4,7.8v12.6c0,13.3-11,23.4-25.4,23.4s-25.3-10.1-25.3-23.4V285.6c0-4.7-3.4-7.8-8.4-7.8H138.5a64.9,64.9,0,0,1-42.2-15.7c-11-11-16.9-25.1-16.9-39.1,0-30.6,26.2-54.8,59.1-54.8h87l10.9-3.2c4.2-1.5,6.8-5.5,5.9-9.4a9.4,9.4,0,0,0-10.1-5.5l-10.1,2.4H138.5c-42.2,0-76,31.3-76,70.5,0,18,7.6,36,22,50.1a80.4,80.4,0,0,0,54,20.3h8.4V410.9c0,21.9,18.6,39.1,42.2,39.1s42.3-17.2,42.3-39.1V398.3a8.2,8.2,0,0,0-8.5-7.8" transform="translate(-62.5 -50)"/></g></g><path id="ec85e70f-f78d-47bf-8d5e-180ea9f82a11" data-name="Fill-10" class="b7d8f6d4-9a61-4d30-ab9d-e036ac1446a7" d="M555.8,210H529.2c-4,0-6.7,4-6.7,10s2.7,10,6.7,10h26.6c4,0,6.7-4,6.7-10s-2.7-10-6.7-10" transform="translate(-62.5 -50)"/><path id="b56693cd-d262-448c-8768-50daf0592fc4" data-name="Fill-12" class="b7d8f6d4-9a61-4d30-ab9d-e036ac1446a7" d="M529.2,170a6,6,0,0,0,4.6-2l26.7-26.7a6.6,6.6,0,0,0-9.3-9.3l-26.7,26.7a6.4,6.4,0,0,0,0,9.3,6.2,6.2,0,0,0,4.7,2" transform="translate(-62.5 -50)"/><path id="f10280e7-9e4b-437a-a2ef-d237a1bd5ae6" data-name="Fill-14" class="b7d8f6d4-9a61-4d30-ab9d-e036ac1446a7" d="M533.8,272a6.6,6.6,0,1,0-9.3,9.3L551.2,308a6.4,6.4,0,0,0,9.3,0,6.4,6.4,0,0,0,0-9.3Z" transform="translate(-62.5 -50)"/><path id="bbe9c93c-4bdc-413a-a5c7-9a81bcfb0aa8" data-name="Fill-16" class="b7d8f6d4-9a61-4d30-ab9d-e036ac1446a7" d="M142.5,190c-22.4,0-40,14.7-40,33.3,0,4,3.2,6.7,8,6.7s8-2.7,8-6.7c0-11.3,10.4-20,24-20h32c4.8,0,8-2.6,8-6.6s-3.2-6.7-8-6.7Z" transform="translate(-62.5 -50)"/><path id="faf90050-47b8-4aaa-a179-796d09bfa1e8" data-name="Fill-18" class="b7d8f6d4-9a61-4d30-ab9d-e036ac1446a7" d="M212.5,170c-6,0-10,4-10,10s4,10,10,10h20c6,0,10-4,10-10s-4-10-10-10Z" transform="translate(-62.5 -50)"/><path id="b73c8bb0-6dfd-4ed4-acae-6a57acb5dc50" data-name="Fill-20" class="b7d8f6d4-9a61-4d30-ab9d-e036ac1446a7" d="M407.4,293.8l-34.6-10.5a8.2,8.2,0,0,0-9.8,4c-1.5,3.4.7,7.4,4.5,8.7l45.2,13.3c.8,0,1.5.7,2.3.7a12.8,12.8,0,0,0,4.5-1.3,6.1,6.1,0,0,0,3-5.4V276.7c0-4-3-6.7-7.5-6.7s-7.6,2.7-7.6,6.7Z" transform="translate(-62.5 -50)"/><path id="b4330df8-2cce-425b-a3bd-61e8da7faf18" data-name="Fill-22" class="b7d8f6d4-9a61-4d30-ab9d-e036ac1446a7" d="M412.5,250c6,0,10-4,10-10V220c0-6-4-10-10-10s-10,4-10,10v20c0,6,4,10,10,10" transform="translate(-62.5 -50)"/></g></g></g></svg>