<?xml version="1.0" encoding="UTF-8"?>
<svg width="161px" height="160px" viewBox="0 0 161 160" version="1.1" xmlns="http://www.w3.org/2000/svg" xmlns:xlink="http://www.w3.org/1999/xlink">
    <title>Bank Transfer</title>
    <defs>
        <polygon id="path-1" points="0 0 161 0 161 160 0 160"></polygon>
    </defs>
    <g id="Page-1" stroke="none" stroke-width="1" fill="none" fill-rule="evenodd">
        <g id="Library" transform="translate(-1270.000000, -71.000000)">
            <g id="Bank-Transfer" transform="translate(1270.000000, 71.000000)">
                <mask id="mask-2" fill="white">
                    <use xlink:href="#path-1"></use>
                </mask>
                <g id="Clip-2"></g>
                <path d="M64.617169,63.2596156 L69.7371949,63.2596156 L69.7371949,25.9935852 L64.617169,25.9935852 L64.617169,63.2596156 Z M40.4242087,63.1627263 L45.6021053,63.1627263 L45.6021053,25.9542239 L40.4242087,25.9542239 L40.4242087,63.1627263 Z M16.203836,63.2232821 L21.3908701,63.2232821 L21.3908701,26.0147797 L16.203836,26.0147797 L16.203836,63.2232821 Z M51.169867,63.1657541 L59.0402698,63.1657541 L59.0402698,25.9572517 L51.169867,25.9572517 L51.169867,63.1657541 Z M26.9829984,63.1627263 L34.8503553,63.1627263 L34.8503553,25.9542239 L26.9829984,25.9542239 L26.9829984,63.1627263 Z M5.25715352,20.1408685 C5.35766563,20.2468412 5.45817774,20.3558416 5.55868985,20.464842 L80.5437697,20.464842 C80.6168694,20.3164803 80.6960607,20.1741742 80.7722063,20.0288403 C80.3061956,19.7290892 79.8736889,19.3415322 79.3680826,19.1386703 C67.620349,14.4516525 55.8665238,9.77674585 44.1005153,5.14422826 C43.491351,4.90503291 42.6354751,4.82025481 42.0506774,5.05036679 C30.1232404,9.74344017 18.2171241,14.487986 6.31709941,19.2446429 C5.90895933,19.4111713 5.607423,19.8380896 5.25715352,20.1408685 L5.25715352,20.1408685 Z M10.8249152,73.9840452 L12.8777989,73.9840452 C26.9829984,73.9840452 41.0881978,73.9779896 55.196443,73.9961564 C55.9609442,73.9991841 56.920378,73.9567951 57.4412135,74.3716022 C58.1387066,74.9287155 58.8605663,75.897608 58.8879787,76.7120833 C58.9153911,77.4478361 58.1600274,78.398562 57.483855,78.9072306 C56.9447446,79.3129543 56.0035857,79.2978154 55.2390845,79.2978154 C39.2881173,79.3190099 23.3341042,79.3129543 7.38313694,79.3129543 L5.44904028,79.3129543 L5.44904028,84.5752521 L80.5163573,84.5752521 L80.5163573,79.3129543 L78.5822606,79.3129543 C74.9425039,79.3129543 71.3027472,79.34626 67.6660363,79.3008432 C65.3390287,79.2735931 63.9866839,77.4296694 64.873018,75.5463845 C65.436495,74.3534355 66.5238532,73.9779896 67.7848234,73.9810174 C70.2275722,73.987073 72.6733669,73.9840452 75.1404823,73.9840452 L75.1404823,68.7550531 L10.8249152,68.7550531 L10.8249152,73.9840452 Z M10.6391201,25.8785292 C8.17809635,25.8785292 5.83281379,25.8936682 3.48753122,25.8724736 C1.10874462,25.8543069 0.0305238068,24.7703583 0.00615723472,22.4056549 C-0.00602605133,21.239956 0.00311141321,20.0712294 0.00615723472,18.9025027 C0.0122488777,16.6589109 0.447801354,15.9988528 2.55550984,15.1571274 C13.934699,10.6184713 25.4083087,6.2887326 36.6565275,1.44729755 C41.1247477,-0.472320845 44.8680623,-0.490487581 49.3454199,1.44124198 C60.5905929,6.2887326 72.0672484,10.6093879 83.4464376,15.1510718 C85.572421,16.0018806 85.9836069,16.628633 85.9896985,18.8934194 C85.9927444,20.1166462 86.0079735,21.3429009 85.9866527,22.5661277 C85.9531487,24.7249415 84.8596988,25.8421957 82.688028,25.8694458 C80.2879207,25.9027515 77.8847675,25.8785292 75.3628273,25.8785292 L75.3628273,63.2989768 C75.9963582,63.2989768 76.6451181,63.2898935 77.2938781,63.3020046 C79.4777321,63.3413659 80.5864112,64.4192589 80.6107777,66.5780726 C80.6351443,68.9639706 80.6138236,71.3498685 80.6138236,73.9840452 C81.3965997,73.9840452 82.0971386,73.9689063 82.7946318,73.987073 C84.8627446,74.0476288 85.965332,75.1436885 85.9836069,77.2207519 C86.0079735,80.3393749 86.0018818,83.4519423 85.9866527,86.5705652 C85.9744694,88.9140741 84.8779737,89.9949949 82.4778663,89.9949949 C72.1220732,90.0040782 61.7693259,89.9980227 51.4135327,89.9980227 C35.5691692,89.9980227 19.7308974,90.0010505 3.88957966,89.9980227 C0.965591011,89.9980227 0.00920305624,89.0351857 0.00615723472,86.0952023 C0.00311141321,83.3701919 0.00311141321,80.6421538 0.00615723472,77.9171435 C0.00920305624,74.9468822 0.925995332,74.0082675 3.85607563,73.9840452 C4.29467392,73.9810174 4.73327222,73.9840452 5.37898638,73.9840452 C5.37898638,71.7283422 5.37898638,69.5786118 5.37898638,67.4258536 C5.3820322,64.1407023 6.18917491,63.3353103 9.5304411,63.2989768 C9.85938983,63.2959491 10.1913844,63.2989768 10.6391201,63.2989768 L10.6391201,25.8785292 Z" id="Fill-1" fill="#6C6D6D" mask="url(#mask-2)"></path>
                <path d="M155.670423,79.6688034 C155.670423,78.9651348 155.670423,78.416152 155.670423,77.8671692 C155.670423,75.0555281 154.969282,74.3548926 152.134497,74.3548926 C146.477015,74.3548926 140.816511,74.3548926 135.15903,74.3548926 C125.231238,74.3548926 115.300423,74.3518595 105.369609,74.3579256 C103.625823,74.3579256 102.483447,75.1404536 102.353495,76.5265593 C102.259808,77.5517316 102.335362,78.5951022 102.335362,79.6688034 L155.670423,79.6688034 Z M102.326295,143.93922 L104.478072,143.93922 C118.476713,143.93922 132.475353,143.933154 146.473993,143.951352 C147.178156,143.951352 148.075737,143.887658 148.544172,144.272856 C149.281579,144.876434 150.182182,145.840945 150.170093,146.641671 C150.158005,147.442398 149.224158,148.373545 148.47164,148.961958 C147.988095,149.338057 147.102602,149.265263 146.395417,149.268296 C132.451175,149.283462 118.506934,149.277395 104.562693,149.277395 L102.34745,149.277395 C102.34745,150.439055 102.175187,151.561285 102.38976,152.601623 C102.698021,154.109051 103.804131,154.670166 105.357521,154.661066 C113.133535,154.618604 120.912573,154.642868 128.688588,154.642868 C136.688242,154.642868 144.687897,154.645901 152.687552,154.639835 C154.670088,154.636802 155.661356,153.748117 155.661356,151.891888 C155.670423,129.81732 155.664378,107.742752 155.661356,85.6681844 C155.661356,85.5559614 155.631135,85.4467715 155.579758,85.0585406 L153.712064,85.0585406 L101.047922,85.0585406 C97.9169652,85.0555075 96.9770737,84.1425582 97.0224061,80.9881819 C97.0465834,79.1622833 97.0284504,77.3030212 97.3397328,75.5135192 C98.0015856,71.6949041 101.120454,69.0500809 105.046238,69.0379487 C120.988127,68.9894198 136.933037,68.9863868 152.874926,69.0349156 C157.441408,69.0500809 160.968267,72.6321178 160.974312,77.2302279 C161.007555,102.095206 161.010578,126.95715 160.971289,151.819095 C160.962223,156.395973 157.399098,159.94768 152.814482,159.962845 C136.926993,160.011374 121.039503,160.014407 105.152014,159.959812 C100.567399,159.944647 97.0465834,156.414172 97.0314726,151.782698 C96.9800959,132.383284 97.0042732,112.98387 97.0163618,93.5844557 C97.0163618,91.5401772 97.9804305,90.4422116 99.6426179,90.4240133 C101.362226,90.405815 102.320251,91.5401772 102.323273,93.6875795 C102.329317,109.68694 102.326295,125.6863 102.326295,141.685661 L102.326295,143.93922 Z" id="Fill-3" fill="#6C6D6D" mask="url(#mask-2)"></path>
                <path d="M56.3148646,148.973382 C47.5446455,148.973382 38.7744265,148.994639 30.0011484,148.967309 C23.3783636,148.943016 18.1321391,144.989341 16.5200339,138.806789 C16.2141316,137.634654 16.0305902,136.392678 16.0275312,135.184104 C15.9877639,124.862643 16.006118,114.538145 16,104.213647 C16,102.850206 16.2722531,101.523204 17.7161119,101.113261 C18.5022808,100.891588 19.7656574,100.985723 20.2703962,101.480691 C20.9250271,102.127491 21.3318771,103.311772 21.3410542,104.271343 C21.4114117,114.647463 21.4817693,125.029657 21.3410542,135.408814 C21.2798738,139.915154 25.1281247,143.707888 29.7136003,143.677522 C47.3091008,143.556058 64.9076603,143.60768 82.5062198,143.674486 C83.5646418,143.680559 84.8800217,144.114795 85.595833,144.8284 C86.0944538,145.326405 86.1311621,146.869007 85.7090169,147.524916 C85.2440454,148.256741 84.0387903,148.870137 83.1302605,148.909614 C79.5940299,149.064481 76.0486222,148.973382 72.5062735,148.973382 L56.3148646,148.973382 Z" id="Fill-4" fill="#C83548" mask="url(#mask-2)"></path>
                <path d="M116.224075,15.319563 C110.837735,15.319563 105.451395,15.3316371 100.065056,15.313526 C98.0580244,15.3044704 96.9880108,14.3385428 97,12.6481694 C97.0152145,10.9366664 98.1275451,10.0190352 100.297799,10.0099796 C105.297241,9.99186847 110.29366,10.0039426 115.29008,10.0039426 C120.455767,10.0039426 125.621454,10.000924 130.784118,10.0069611 C139.196118,10.0160167 144.984468,15.7693231 144.993536,24.1427082 C145.002604,34.2909853 145.002604,44.4392625 144.990514,54.5875396 C144.987491,57.2830814 142.892803,58.876862 141.012723,57.488341 C140.251018,56.9268956 139.73717,55.5413931 139.728102,54.5271691 C139.637423,44.1585398 139.673695,33.7899104 139.673695,23.421281 C139.670672,18.6369207 136.345771,15.319563 131.551868,15.319563 C126.440589,15.319563 121.332332,15.319563 116.224075,15.319563" id="Fill-5" fill="#C83548" mask="url(#mask-2)"></path>
                <path d="M132.695012,131 C131.774273,130.945372 130.853533,130.866465 129.97605,130.556906 C128.613479,130.074358 127.587689,129.15175 126.704026,128.059189 C125.304378,126.338404 124.256959,124.405178 123.252797,122.444637 C122.381493,120.742062 121.528728,119.030382 120.691411,117.309598 C120.549283,117.015213 120.391707,116.887748 120.073465,116.945411 C119.823197,116.987899 119.733595,116.902922 119.739774,116.635852 C119.761402,115.695035 119.758312,114.754218 119.752133,113.813401 C119.749043,113.594889 119.801569,113.525086 120.039478,113.512947 C121.191947,113.458319 122.30734,113.212492 123.348579,112.717805 C124.550484,112.15028 125.254942,111.185184 125.560826,109.925703 C126.011926,108.062279 126.101528,106.180645 125.696774,104.305082 C125.239494,102.174587 123.883102,101.030432 121.605971,100.757292 C121.117794,100.699629 120.632706,100.666245 120.141439,100.66928 C118.75106,100.67535 117.360682,100.672315 115.970303,100.693559 C115.732394,100.696594 115.673689,100.52664 115.571728,100.399174 C114.592284,99.1548683 113.461442,98.0683766 112.089602,97.2428857 C112.058705,97.2277113 112.030897,97.2125368 112,97.1973623 L112,97.0668619 C112.089602,97.0607922 112.176115,97.0547224 112.265717,97.0516875 C115.590266,96.9909896 118.917906,96.9727803 122.245545,97.0577573 C124.108652,97.1093504 125.934683,97.3976653 127.674201,98.1017604 C129.725782,98.9333211 131.326262,100.24743 132.049259,102.359715 C133.087408,105.391573 132.932922,108.393082 131.595068,111.321754 C131.548723,111.421906 131.446761,111.512952 131.502377,111.655592 C132.506539,111.597929 133.504522,111.652557 134.483966,111.889279 C136.949571,112.493223 138.90846,113.798227 140.098006,116.047082 C141.330808,118.386985 141.182501,120.80276 140.357543,123.230674 C140.286479,123.440082 140.172159,123.364209 140.05475,123.315651 C139.514047,123.091069 138.976434,122.851312 138.429552,122.641905 C138.234899,122.569067 138.170014,122.48409 138.173104,122.274683 C138.191642,121.127493 137.941374,120.031897 137.329608,119.048592 C136.013383,116.936306 134.020507,115.922652 131.554902,115.764837 C130.136716,115.676826 128.823581,116.013699 127.68347,116.893818 C127.525894,117.015213 127.482638,117.10626 127.590778,117.294423 C128.635107,119.154813 129.611462,121.048586 130.77629,122.842208 C131.678491,124.226119 132.648666,125.552367 133.887648,126.669208 C134.851644,127.540222 135.93305,128.132026 137.283262,128.107747 C137.459376,128.104712 137.511902,128.156305 137.511902,128.329294 C137.499543,128.942343 137.496453,129.552356 137.511902,130.165404 C137.518081,130.368742 137.447017,130.447649 137.252364,130.502278 C136.288369,130.778453 135.308924,130.957511 134.304762,131 L132.695012,131 Z" id="Fill-6" fill="#C83548" mask="url(#mask-2)"></path>
                <path d="M132.695012,131 C131.774273,130.945372 130.853533,130.866465 129.97605,130.556906 C128.613479,130.074358 127.587689,129.15175 126.704026,128.059189 C125.304378,126.338404 124.256959,124.405178 123.252797,122.444637 C122.381493,120.742062 121.528728,119.030382 120.691411,117.309598 C120.549283,117.015213 120.391707,116.887748 120.073465,116.945411 C119.823197,116.987899 119.733595,116.902922 119.739774,116.635852 C119.761402,115.695035 119.758312,114.754218 119.752133,113.813401 C119.749043,113.594889 119.801569,113.525086 120.039478,113.512947 C121.191947,113.458319 122.30734,113.212492 123.348579,112.717805 C124.550484,112.15028 125.254942,111.185184 125.560826,109.925703 C126.011926,108.062279 126.101528,106.180645 125.696774,104.305082 C125.239494,102.174587 123.883102,101.030432 121.605971,100.757292 C121.117794,100.699629 120.632706,100.666245 120.141439,100.66928 C118.75106,100.67535 117.360682,100.672315 115.970303,100.693559 C115.732394,100.696594 115.673689,100.52664 115.571728,100.399174 C114.592284,99.1548683 113.461442,98.0683766 112.089602,97.2428857 C112.058705,97.2277113 112.030897,97.2125368 112,97.1973623 L112,97.0668619 C112.089602,97.0607922 112.176115,97.0547224 112.265717,97.0516875 C115.590266,96.9909896 118.917906,96.9727803 122.245545,97.0577573 C124.108652,97.1093504 125.934683,97.3976653 127.674201,98.1017604 C129.725782,98.9333211 131.326262,100.24743 132.049259,102.359715 C133.087408,105.391573 132.932922,108.393082 131.595068,111.321754 C131.548723,111.421906 131.446761,111.512952 131.502377,111.655592 C132.506539,111.597929 133.504522,111.652557 134.483966,111.889279 C136.949571,112.493223 138.90846,113.798227 140.098006,116.047082 C141.330808,118.386985 141.182501,120.80276 140.357543,123.230674 C140.286479,123.440082 140.172159,123.364209 140.05475,123.315651 C139.514047,123.091069 138.976434,122.851312 138.429552,122.641905 C138.234899,122.569067 138.170014,122.48409 138.173104,122.274683 C138.191642,121.127493 137.941374,120.031897 137.329608,119.048592 C136.013383,116.936306 134.020507,115.922652 131.554902,115.764837 C130.136716,115.676826 128.823581,116.013699 127.68347,116.893818 C127.525894,117.015213 127.482638,117.10626 127.590778,117.294423 C128.635107,119.154813 129.611462,121.048586 130.77629,122.842208 C131.678491,124.226119 132.648666,125.552367 133.887648,126.669208 C134.851644,127.540222 135.93305,128.132026 137.283262,128.107747 C137.459376,128.104712 137.511902,128.156305 137.511902,128.329294 C137.499543,128.942343 137.496453,129.552356 137.511902,130.165404 C137.518081,130.368742 137.447017,130.447649 137.252364,130.502278 C136.288369,130.778453 135.308924,130.957511 134.304762,131 L132.695012,131 Z" id="Stroke-7" stroke="#FEFEFE" stroke-width="0.25" mask="url(#mask-2)"></path>
                <path d="M112.640472,138 C112.605291,137.829324 112.472682,137.869483 112.383374,137.832671 C111.4064,137.431082 110.84349,136.256433 111.038343,135.004812 C111.225078,133.783311 112.120863,132.9132 113.095131,133.006905 C114.161413,133.107302 114.927295,134.030958 114.994953,135.292618 C115.065316,136.60113 114.394154,137.655302 113.346816,137.896256 C113.284572,137.912989 113.211502,137.892909 113.192557,138 L112.640472,138 Z" id="Fill-8" fill="#C83548" mask="url(#mask-2)"></path>
                <path d="M112.640472,138 C112.605291,137.829324 112.472682,137.869483 112.383374,137.832671 C111.4064,137.431082 110.84349,136.256433 111.038343,135.004812 C111.225078,133.783311 112.120863,132.9132 113.095131,133.006905 C114.161413,133.107302 114.927295,134.030958 114.994953,135.292618 C115.065316,136.60113 114.394154,137.655302 113.346816,137.896256 C113.284572,137.912989 113.211502,137.892909 113.192557,138 L112.640472,138 Z" id="Stroke-9" stroke="#FEFEFE" stroke-width="0.25" mask="url(#mask-2)"></path>
                <path d="M137.5545,137.4625 C137.5485,137.4865 137.5485,137.5135 137.5485,137.5375 L135.4515,137.5375 C135.4515,137.5135 135.4485,137.4865 135.4455,137.4625 L137.5545,137.4625 Z" id="Fill-10" fill="#C83548" mask="url(#mask-2)"></path>
                <path d="M137.5545,137.4625 C137.5485,137.4865 137.5485,137.5135 137.5485,137.5375 L135.4515,137.5375 C135.4515,137.5135 135.4485,137.4865 135.4455,137.4625 L137.5545,137.4625 Z" id="Stroke-11" stroke="#FEFEFE" stroke-width="0.25" mask="url(#mask-2)"></path>
            </g>
        </g>
    </g>
</svg>