<?xml version="1.0" encoding="UTF-8"?>
<svg width="134px" height="149px" viewBox="0 0 134 149" version="1.1" xmlns="http://www.w3.org/2000/svg" xmlns:xlink="http://www.w3.org/1999/xlink">
    <title>cashback</title>
    <defs>
        <polygon id="path-1" points="0 148.151 133.436 148.151 133.436 0 0 0"></polygon>
    </defs>
    <g id="Page-1" stroke="none" stroke-width="1" fill="none" fill-rule="evenodd">
        <g id="Library" transform="translate(-1578.000000, -672.000000)">
            <g id="cashback" transform="translate(1578.000000, 672.000000)">
                <path d="M32.9957,32.3828 L42.1927,32.3828 L42.1927,27.4778 L32.9957,27.4778 C29.9497,27.4808 27.4807,29.9498 27.4777,32.9958 L27.4777,46.4848 C27.4807,49.5308 29.9497,51.9988 32.9957,52.0028 L42.1927,52.0028 L42.1927,47.0978 L32.9957,47.0978 C32.6577,47.0978 32.3827,46.8228 32.3827,46.4848 L32.3827,32.9958 C32.3827,32.6568 32.6577,32.3828 32.9957,32.3828" id="Fill-1" fill="#C83548"></path>
                <path d="M32.9957,32.3828 L42.1927,32.3828 L42.1927,27.4778 L32.9957,27.4778 C29.9497,27.4808 27.4807,29.9498 27.4777,32.9958 L27.4777,46.4848 C27.4807,49.5308 29.9497,51.9988 32.9957,52.0028 L42.1927,52.0028 L42.1927,47.0978 L32.9957,47.0978 C32.6577,47.0978 32.3827,46.8228 32.3827,46.4848 L32.3827,32.9958 C32.3827,32.6568 32.6577,32.3828 32.9957,32.3828 Z" id="Stroke-3" stroke="#FEFEFE" stroke-width="0.25"></path>
                <path d="M53.5665,39.7402 L54.7155,32.3832 L56.6495,32.3832 L57.7985,39.7402 L53.5665,39.7402 Z M64.2655,52.0032 L64.2655,49.5502 C64.2645,49.4232 64.2545,49.2972 64.2345,49.1712 L61.1695,29.5512 C60.9825,28.3582 59.9555,27.4782 58.7475,27.4772 L52.6155,27.4772 C51.4085,27.4782 50.3805,28.3582 50.1935,29.5512 L47.1285,49.1712 C47.1085,49.2972 47.0985,49.4232 47.0975,49.5502 L47.0975,52.0032 L52.0035,52.0032 L52.0035,49.7402 L52.7995,44.6452 L58.5635,44.6452 L59.3605,49.7402 L59.3605,52.0032 L64.2655,52.0032 Z" id="Fill-5" fill="#C83548"></path>
                <path d="M53.5665,39.7402 L54.7155,32.3832 L56.6495,32.3832 L57.7985,39.7402 L53.5665,39.7402 Z M64.2655,52.0032 L64.2655,49.5502 C64.2645,49.4232 64.2545,49.2972 64.2345,49.1712 L61.1695,29.5512 C60.9825,28.3582 59.9555,27.4782 58.7475,27.4772 L52.6155,27.4772 C51.4085,27.4782 50.3805,28.3582 50.1935,29.5512 L47.1285,49.1712 C47.1085,49.2972 47.0985,49.4232 47.0975,49.5502 L47.0975,52.0032 L52.0035,52.0032 L52.0035,49.7402 L52.7995,44.6452 L58.5635,44.6452 L59.3605,49.7402 L59.3605,52.0032 L64.2655,52.0032 Z" id="Stroke-7" stroke="#FEFEFE" stroke-width="0.25"></path>
                <polygon id="Fill-9" fill="#C83548" points="88.7907 27.4775 88.7907 52.0025 93.6957 52.0025 93.6957 42.1925 101.0527 42.1925 101.0527 52.0025 105.9577 52.0025 105.9577 27.4775 101.0527 27.4775 101.0527 37.2875 93.6957 37.2875 93.6957 27.4775"></polygon>
                <polygon id="Stroke-11" stroke="#FEFEFE" stroke-width="0.25" points="88.7907 27.4775 88.7907 52.0025 93.6957 52.0025 93.6957 42.1925 101.0527 42.1925 101.0527 52.0025 105.9577 52.0025 105.9577 27.4775 101.0527 27.4775 101.0527 37.2875 93.6957 37.2875 93.6957 27.4775"></polygon>
                <path d="M78.3673,47.0977 L69.1703,47.0977 L69.1703,52.0027 L78.3673,52.0027 C81.4133,51.9987 83.8823,49.5307 83.8853,46.4847 L83.8853,42.8057 C83.8823,39.7597 81.4133,37.2907 78.3673,37.2877 L74.6883,37.2877 C74.3503,37.2877 74.0753,37.0137 74.0753,36.6747 L74.0753,32.9957 C74.0753,32.6577 74.3503,32.3827 74.6883,32.3827 L83.8853,32.3827 L83.8853,27.4777 L74.6883,27.4777 C71.6423,27.4807 69.1743,29.9497 69.1703,32.9957 L69.1703,36.6747 C69.1743,39.7207 71.6423,42.1887 74.6883,42.1927 L78.3673,42.1927 C78.7063,42.1927 78.9803,42.4677 78.9803,42.8057 L78.9803,46.4847 C78.9803,46.8237 78.7063,47.0977 78.3673,47.0977" id="Fill-13" fill="#C83548"></path>
                <path d="M78.3673,47.0977 L69.1703,47.0977 L69.1703,52.0027 L78.3673,52.0027 C81.4133,51.9987 83.8823,49.5307 83.8853,46.4847 L83.8853,42.8057 C83.8823,39.7597 81.4133,37.2907 78.3673,37.2877 L74.6883,37.2877 C74.3503,37.2877 74.0753,37.0137 74.0753,36.6747 L74.0753,32.9957 C74.0753,32.6577 74.3503,32.3827 74.6883,32.3827 L83.8853,32.3827 L83.8853,27.4777 L74.6883,27.4777 C71.6423,27.4807 69.1743,29.9497 69.1703,32.9957 L69.1703,36.6747 C69.1743,39.7207 71.6423,42.1887 74.6883,42.1927 L78.3673,42.1927 C78.7063,42.1927 78.9803,42.4677 78.9803,42.8057 L78.9803,46.4847 C78.9803,46.8237 78.7063,47.0977 78.3673,47.0977 Z" id="Stroke-15" stroke="#FEFEFE" stroke-width="0.25"></path>
                <mask id="mask-2" fill="white">
                    <use xlink:href="#path-1"></use>
                </mask>
                <g id="Clip-18"></g>
                <path d="M29.93,86.338 L103.506,86.338 L103.506,61.813 L29.93,61.813 L29.93,86.338 Z M9.225,61.813 L25.025,61.813 L25.025,76.397 L9.225,61.813 Z M124.211,86.338 L108.41,86.338 L108.41,71.753 L124.211,86.338 Z M103.506,139.067 C103.503,141.098 101.858,142.744 99.827,142.746 L33.609,142.746 C31.578,142.744 29.932,141.098 29.93,139.067 L29.93,130.483 L103.506,130.483 L103.506,139.067 Z M29.93,9.083 C29.932,7.053 31.578,5.407 33.609,5.405 L99.827,5.405 C101.858,5.407 103.503,7.053 103.506,9.083 L103.506,17.667 L29.93,17.667 L29.93,9.083 Z M132.492,87.384 C132.392,87.24 132.276,87.107 132.147,86.988 L108.41,65.078 L108.41,61.813 L115.769,61.813 C116.799,61.813 117.721,61.168 118.073,60.199 L132.355,20.959 C132.818,19.686 132.162,18.279 130.889,17.815 C130.62,17.718 130.337,17.667 130.051,17.667 L108.41,17.667 L108.41,9.083 C108.405,4.345 104.566,0.505 99.827,0.5 L33.609,0.5 C28.87,0.505 25.03,4.345 25.025,9.083 L25.025,17.667 L17.235,17.667 C16.204,17.667 15.282,18.312 14.93,19.281 L10.467,31.544 L15.076,33.221 L18.952,22.572 L126.548,22.572 L114.052,56.908 L6.455,56.908 L13.291,38.126 L8.682,36.449 L0.648,58.521 C0.31,59.451 0.563,60.492 1.289,61.163 L25.025,83.072 L25.025,86.338 L17.668,86.338 C16.636,86.338 15.715,86.983 15.363,87.952 L1.081,127.192 C0.618,128.465 1.274,129.873 2.547,130.335 C2.816,130.433 3.099,130.483 3.385,130.483 L25.025,130.483 L25.025,139.067 C25.03,143.805 28.87,147.646 33.609,147.651 L99.827,147.651 C104.566,147.646 108.405,143.805 108.41,139.067 L108.41,130.483 L116.201,130.483 C117.233,130.484 118.153,129.838 118.506,128.87 L124.754,111.702 L120.145,110.024 L114.485,125.579 L6.888,125.579 L19.384,91.243 L126.981,91.243 L121.93,105.12 L126.539,106.797 L132.788,89.629 C133.062,88.877 132.951,88.039 132.492,87.384 L132.492,87.384 Z" id="Fill-17" fill="#6D6E6D" mask="url(#mask-2)"></path>
                <path d="M29.93,86.338 L103.506,86.338 L103.506,61.813 L29.93,61.813 L29.93,86.338 Z M9.225,61.813 L25.025,61.813 L25.025,76.397 L9.225,61.813 Z M124.211,86.338 L108.41,86.338 L108.41,71.753 L124.211,86.338 Z M103.506,139.067 C103.503,141.098 101.858,142.744 99.827,142.746 L33.609,142.746 C31.578,142.744 29.932,141.098 29.93,139.067 L29.93,130.483 L103.506,130.483 L103.506,139.067 Z M29.93,9.083 C29.932,7.053 31.578,5.407 33.609,5.405 L99.827,5.405 C101.858,5.407 103.503,7.053 103.506,9.083 L103.506,17.667 L29.93,17.667 L29.93,9.083 Z M132.492,87.384 C132.392,87.24 132.276,87.107 132.147,86.988 L108.41,65.078 L108.41,61.813 L115.769,61.813 C116.799,61.813 117.721,61.168 118.073,60.199 L132.355,20.959 C132.818,19.686 132.162,18.279 130.889,17.815 C130.62,17.718 130.337,17.667 130.051,17.667 L108.41,17.667 L108.41,9.083 C108.405,4.345 104.566,0.505 99.827,0.5 L33.609,0.5 C28.87,0.505 25.03,4.345 25.025,9.083 L25.025,17.667 L17.235,17.667 C16.204,17.667 15.282,18.312 14.93,19.281 L10.467,31.544 L15.076,33.221 L18.952,22.572 L126.548,22.572 L114.052,56.908 L6.455,56.908 L13.291,38.126 L8.682,36.449 L0.648,58.521 C0.31,59.451 0.563,60.492 1.289,61.163 L25.025,83.072 L25.025,86.338 L17.668,86.338 C16.636,86.338 15.715,86.983 15.363,87.952 L1.081,127.192 C0.618,128.465 1.274,129.873 2.547,130.335 C2.816,130.433 3.099,130.483 3.385,130.483 L25.025,130.483 L25.025,139.067 C25.03,143.805 28.87,147.646 33.609,147.651 L99.827,147.651 C104.566,147.646 108.405,143.805 108.41,139.067 L108.41,130.483 L116.201,130.483 C117.233,130.484 118.153,129.838 118.506,128.87 L124.754,111.702 L120.145,110.024 L114.485,125.579 L6.888,125.579 L19.384,91.243 L126.981,91.243 L121.93,105.12 L126.539,106.797 L132.788,89.629 C133.062,88.877 132.951,88.039 132.492,87.384 Z" id="Stroke-19" stroke="#6C6D6D" mask="url(#mask-2)"></path>
                <path d="M105.9581,98.6006 L105.9581,96.1476 L101.0531,96.1476 L101.0531,97.4216 L93.6951,103.3086 L93.6951,96.1476 L88.7911,96.1476 L88.7911,120.6736 L93.6951,120.6736 L93.6951,113.5136 L101.0531,119.3996 L101.0531,120.6736 L105.9581,120.6736 L105.9581,118.2206 C105.9581,117.4756 105.6201,116.7706 105.0381,116.3056 L95.1691,108.4106 L105.0381,100.5156 C105.6201,100.0506 105.9581,99.3456 105.9581,98.6006" id="Fill-20" fill="#C83548" mask="url(#mask-2)"></path>
                <path d="M105.9581,98.6006 L105.9581,96.1476 L101.0531,96.1476 L101.0531,97.4216 L93.6951,103.3086 L93.6951,96.1476 L88.7911,96.1476 L88.7911,120.6736 L93.6951,120.6736 L93.6951,113.5136 L101.0531,119.3996 L101.0531,120.6736 L105.9581,120.6736 L105.9581,118.2206 C105.9581,117.4756 105.6201,116.7706 105.0381,116.3056 L95.1691,108.4106 L105.0381,100.5156 C105.6201,100.0506 105.9581,99.3456 105.9581,98.6006 Z" id="Stroke-21" stroke="#FEFEFE" stroke-width="0.25" mask="url(#mask-2)"></path>
                <path d="M53.7247,108.4106 L54.9897,101.0536 L56.6477,101.0536 L57.7977,108.4106 L53.7247,108.4106 Z M64.2657,120.6736 L64.2657,118.2206 C64.2647,118.0936 64.2547,117.9676 64.2347,117.8426 L61.1687,98.2226 C60.9827,97.0286 59.9547,96.1486 58.7467,96.1476 L52.9227,96.1476 C51.7277,96.1476 50.7077,97.0086 50.5047,98.1846 L47.1327,117.8056 C47.1097,117.9426 47.0977,118.0816 47.0977,118.2206 L47.0977,120.6736 L52.0027,120.6736 L52.0027,118.4306 L52.8817,113.3156 L58.5627,113.3156 L59.3607,118.4106 L59.3607,120.6736 L64.2657,120.6736 Z" id="Fill-22" fill="#C83548" mask="url(#mask-2)"></path>
                <path d="M53.7247,108.4106 L54.9897,101.0536 L56.6477,101.0536 L57.7977,108.4106 L53.7247,108.4106 Z M64.2657,120.6736 L64.2657,118.2206 C64.2647,118.0936 64.2547,117.9676 64.2347,117.8426 L61.1687,98.2226 C60.9827,97.0286 59.9547,96.1486 58.7467,96.1476 L52.9227,96.1476 C51.7277,96.1476 50.7077,97.0086 50.5047,98.1846 L47.1327,117.8056 C47.1097,117.9426 47.0977,118.0816 47.0977,118.2206 L47.0977,120.6736 L52.0027,120.6736 L52.0027,118.4306 L52.8817,113.3156 L58.5627,113.3156 L59.3607,118.4106 L59.3607,120.6736 L64.2657,120.6736 Z" id="Stroke-23" stroke="#FEFEFE" stroke-width="0.25" mask="url(#mask-2)"></path>
                <path d="M34.8351,115.7681 L29.9301,115.7681 L29.9301,110.8631 L34.8351,110.8631 C36.1891,110.8631 37.2881,111.9611 37.2881,113.3161 C37.2881,114.6701 36.1891,115.7681 34.8351,115.7681 L34.8351,115.7681 Z M29.9301,101.0531 L34.8351,101.0531 C36.1891,101.0531 37.2881,102.1511 37.2881,103.5061 C37.2881,104.8601 36.1891,105.9581 34.8351,105.9581 L29.9301,105.9581 L29.9301,101.0531 Z M34.8351,96.1480989 L27.4781,96.1480989 C26.1231,96.1480989 25.0251,97.2461 25.0251,98.6011 L25.0251,118.2211 C25.0251,119.5761 26.1231,120.673101 27.4781,120.673101 L34.8351,120.673101 C38.8971,120.6751 42.1901,117.3851 42.1931011,113.3241 C42.1941,111.5111 41.5251,109.7611 40.3141,108.4111 C43.0251,105.3871 42.7721,100.7381 39.7481,98.0261 C38.3981,96.8161 36.6481,96.1471 34.8351,96.1480989 L34.8351,96.1480989 Z" id="Fill-24" fill="#C83548" mask="url(#mask-2)"></path>
                <path d="M34.8351,115.7681 L29.9301,115.7681 L29.9301,110.8631 L34.8351,110.8631 C36.1891,110.8631 37.2881,111.9611 37.2881,113.3161 C37.2881,114.6701 36.1891,115.7681 34.8351,115.7681 Z M29.9301,101.0531 L34.8351,101.0531 C36.1891,101.0531 37.2881,102.1511 37.2881,103.5061 C37.2881,104.8601 36.1891,105.9581 34.8351,105.9581 L29.9301,105.9581 L29.9301,101.0531 Z M34.8351,96.1480989 L27.4781,96.1480989 C26.1231,96.1480989 25.0251,97.2461 25.0251,98.6011 L25.0251,118.2211 C25.0251,119.5761 26.1231,120.673101 27.4781,120.673101 L34.8351,120.673101 C38.8971,120.6751 42.1901,117.3851 42.1931011,113.3241 C42.1941,111.5111 41.5251,109.7611 40.3141,108.4111 C43.0251,105.3871 42.7721,100.7381 39.7481,98.0261 C38.3981,96.8161 36.6481,96.1471 34.8351,96.1480989 Z" id="Stroke-25" stroke="#FEFEFE" stroke-width="0.25" mask="url(#mask-2)"></path>
                <path d="M74.6886,101.0532 L83.8856,101.0532 L83.8856,96.1482 L74.6886,96.1482 C71.6426,96.1522 69.1736,98.6202 69.1706,101.6662 L69.1706,115.1552 C69.1736,118.2012 71.6426,120.6692 74.6886,120.6732 L83.8856,120.6732 L83.8856,115.7682 L74.6886,115.7682 C74.3506,115.7682 74.0756,115.4932 74.0756,115.1552 L74.0756,101.6662 C74.0756,101.3272 74.3506,101.0532 74.6886,101.0532" id="Fill-26" fill="#C83548" mask="url(#mask-2)"></path>
                <path d="M74.6886,101.0532 L83.8856,101.0532 L83.8856,96.1482 L74.6886,96.1482 C71.6426,96.1522 69.1736,98.6202 69.1706,101.6662 L69.1706,115.1552 C69.1736,118.2012 71.6426,120.6692 74.6886,120.6732 L83.8856,120.6732 L83.8856,115.7682 L74.6886,115.7682 C74.3506,115.7682 74.0756,115.4932 74.0756,115.1552 L74.0756,101.6662 C74.0756,101.3272 74.3506,101.0532 74.6886,101.0532 Z" id="Stroke-27" stroke="#FEFEFE" stroke-width="0.25" mask="url(#mask-2)"></path>
            </g>
        </g>
    </g>
</svg>