<?xml version="1.0" encoding="utf-8"?>
<!-- Generator: Adobe Illustrator 24.3.0, SVG Export Plug-In . SVG Version: 6.00 Build 0)  -->
<svg version="1.1" id="Layer_1" xmlns="http://www.w3.org/2000/svg" xmlns:xlink="http://www.w3.org/1999/xlink" x="0px" y="0px"
	 viewBox="0 0 500 500" style="enable-background:new 0 0 500 500;" xml:space="preserve">
<style type="text/css">
	.st0{filter:url(#Adobe_OpacityMaskFilter);}
	.st1{fill-rule:evenodd;clip-rule:evenodd;fill:#FFFFFF;}
	.st2{mask:url(#mask-2_1_);fill-rule:evenodd;clip-rule:evenodd;fill:#666666;}
	.st3{fill-rule:evenodd;clip-rule:evenodd;fill:#C70039;}
</style>
<g id="Page-1">
	<g id="home_page" transform="translate(-988.000000, -5003.000000)">
		<g id="Group-2-Copy-4" transform="translate(938.000000, 4953.000000)">
			<g id="discount" transform="translate(50.000000, 50.000000)">
				<g id="Group-3">
					<g id="Clip-2">
					</g>
					<defs>
						<filter id="Adobe_OpacityMaskFilter" filterUnits="userSpaceOnUse" x="0" y="0" width="500" height="500">
							<feColorMatrix  type="matrix" values="1 0 0 0 0  0 1 0 0 0  0 0 1 0 0  0 0 0 1 0"/>
						</filter>
					</defs>
					<mask maskUnits="userSpaceOnUse" x="0" y="0" width="500" height="500" id="mask-2_1_">
						<g class="st0">
							<polygon id="path-1_1_" class="st1" points="0,0 500,0 500,500 0,500 							"/>
						</g>
					</mask>
					<path id="Fill-1" class="st2" d="M456.7,290.5c-10.6,10.6-21.6,21.5-26.8,34c-5.4,13.1-5.5,29.1-5.5,44.5
						c0,18.9-0.1,36.6-9.4,46c-9.3,9.3-27.2,9.4-46,9.4c-15.5,0-31.4,0.1-44.5,5.5c-12.5,5.2-23.4,16.2-34,26.8
						c-13,13.1-26.5,26.6-40.6,26.6c-14.1,0-27.5-13.5-40.5-26.6c-10.6-10.6-21.5-21.7-34-26.8c-13.1-5.4-29-5.5-44.5-5.5
						c-18.9,0-36.7-0.1-46-9.4c-9.4-9.3-9.4-27.2-9.4-46c0-15.4-0.1-31.4-5.5-44.4c-5.2-12.5-16.2-23.4-26.8-34
						c-13.1-13-26.6-26.4-26.6-40.5c0-14.1,13.5-27.6,26.6-40.6c10.6-10.6,21.6-21.5,26.8-34c5.4-13.1,5.4-29,5.5-44.4
						c0.1-18.9,0.1-36.7,9.4-46c9.3-9.3,27.1-9.4,46-9.4c15.4,0,31.4-0.1,44.4-5.5c12.5-5.2,23.4-16.2,34-26.8
						c13-13.1,26.4-26.6,40.5-26.6c14.1,0,27.6,13.5,40.6,26.6c10.6,10.6,21.5,21.6,34,26.8c13.1,5.4,29,5.5,44.5,5.5
						c18.8,0,36.6,0.1,46,9.4c9.3,9.3,9.4,27.1,9.4,46c0,15.4,0.1,31.4,5.5,44.5c5.2,12.5,16.2,23.4,26.8,34
						c13.1,13,26.6,26.4,26.6,40.5C483.3,264.1,469.8,277.5,456.7,290.5 M445.3,169.1c-4.2-10-4.2-24.3-4.2-38.2
						c-0.1-21.4-0.1-43.5-14.3-57.7C412.6,59,390.4,59,369,58.9c-13.8,0-28.1-0.1-38.2-4.2c-9.4-3.9-18.7-13.2-28.5-23.1
						C287,16,271.1,0,250,0c-21,0-36.9,16-52.3,31.5c-9.9,9.9-19.2,19.3-28.6,23.2c-10,4.2-24.3,4.2-38.1,4.2
						c-21.4,0-43.5,0.1-57.7,14.3C59,87.4,59,109.6,58.9,131c0,13.8-0.1,28.1-4.2,38.1c-3.9,9.4-13.3,18.7-23.2,28.5
						C16,213,0,229,0,250c0,21,16,37,31.6,52.4c9.9,9.8,19.3,19.1,23.2,28.5c4.1,10,4.2,24.3,4.2,38.1c0.1,21.4,0.1,43.6,14.3,57.8
						C87.4,441,109.6,441,131,441.1c13.8,0,28.1,0.1,38.1,4.2c9.4,3.9,18.7,13.3,28.6,23.2C213.1,484,229,500,250,500
						c21.1,0,37-16,52.4-31.5c9.8-9.9,19.1-19.2,28.5-23.1c10-4.2,24.3-4.2,38.1-4.2c21.4-0.1,43.5-0.1,57.7-14.3
						c14.2-14.2,14.2-36.3,14.3-57.7c0-13.8,0.1-28.1,4.2-38.2c3.9-9.4,13.2-18.7,23.1-28.5C484,287,500,271,500,250
						s-16-37-31.5-52.4C458.6,187.8,449.2,178.5,445.3,169.1"/>
				</g>
				<path id="Fill-4" class="st3" d="M325.5,174.5c-3.3-3.3-8.5-3.3-11.8,0L174.5,313.8c-3.3,3.3-3.3,8.5,0,11.8
					c1.6,1.6,3.8,2.4,5.9,2.4c2.1,0,4.3-0.8,5.9-2.4l139.3-139.3C328.8,183,328.8,177.7,325.5,174.5"/>
				<path id="Fill-6" class="st3" d="M189.5,189.5c4.6-4.7,10.8-7.2,17.4-7.2c6.6,0,12.8,2.6,17.4,7.2c9.6,9.6,9.6,25.3,0,34.9
					c-9.3,9.3-25.5,9.3-34.9,0c-4.7-4.7-7.2-10.8-7.2-17.4C182.3,200.4,184.9,194.2,189.5,189.5 M206.9,248.3
					c11,0,21.4-4.3,29.2-12.1c16.1-16.1,16.1-42.3,0-58.4c-7.8-7.8-18.2-12.1-29.2-12.1c-11,0-21.4,4.3-29.2,12.1
					c-7.8,7.8-12.1,18.2-12.1,29.2c0,11,4.3,21.4,12.1,29.2C185.5,244,195.9,248.3,206.9,248.3"/>
				<path id="Fill-8" class="st3" d="M310.5,310.5c-9.3,9.3-25.6,9.3-34.9,0c-4.7-4.7-7.2-10.8-7.2-17.4c0-6.6,2.6-12.8,7.2-17.4
					c4.7-4.7,10.8-7.2,17.4-7.2c6.6,0,12.8,2.6,17.4,7.2C320.1,285.2,320.1,300.9,310.5,310.5 M293.1,251.7
					C293.1,251.7,293.1,251.7,293.1,251.7c-11,0-21.4,4.3-29.2,12.1c-7.8,7.8-12.1,18.2-12.1,29.2c0,11,4.3,21.4,12.1,29.2
					c7.8,7.8,18.2,12.1,29.2,12.1c11,0,21.4-4.3,29.2-12.1c16.1-16.1,16.1-42.3,0-58.4C314.5,256,304.1,251.7,293.1,251.7"/>
			</g>
		</g>
	</g>
</g>
</svg>
