<?xml version="1.0" encoding="UTF-8"?>
<svg width="191px" height="177px" viewBox="0 0 191 177" version="1.1" xmlns="http://www.w3.org/2000/svg" xmlns:xlink="http://www.w3.org/1999/xlink">
    <title>help and support</title>
    <g id="Page-1" stroke="none" stroke-width="1" fill="none" fill-rule="evenodd">
        <g id="Library" transform="translate(-942.000000, -655.000000)">
            <g id="help-and-support" transform="translate(943.000000, 656.000000)">
                <path d="M94.2823791,151.008691 C99.3503019,141.135031 108.044298,136.383739 117.31672,131.762514 C137.268171,121.82076 147.010994,100.086467 143.233227,79.3253852 C138.100183,51.1183169 111.535534,33.3755682 83.2991984,39.3762744 C60.1614303,44.2928291 43.2522658,65.0355483 44.2068587,89.2403606 C45.042702,110.439081 55.8335852,125.620264 75.5574962,134.120563 C81.2528761,136.57578 86.2648717,139.887148 89.8212281,145.128106 C91.0906987,146.999549 92.5524669,148.74169 94.2823791,151.008691 M91.2676737,32.153698 C117.515147,30.0313011 143.835402,50.1596422 148.80143,75.825037 C154.211811,103.790333 141.033679,128.776315 114.762456,139.885617 C108.458773,142.550473 104.246612,147.19006 100.437435,152.51671 C96.1532585,158.506705 91.7610588,158.517416 87.5956324,152.410361 C83.4095205,146.272701 78.0466393,141.983531 71.1905787,138.842016 C49.9665931,129.115256 38.6853894,111.937154 38.0234566,88.9389098 C37.2014035,60.3469945 58.0967211,37.885853 83.3352063,33.0503993 C86.1177755,32.5178873 88.895748,32.5285987 91.2676737,32.153698" id="Fill-1" fill="#6D6E6D"></path>
                <path d="M94.2823791,151.008691 C99.3503019,141.135031 108.044298,136.383739 117.31672,131.762514 C137.268171,121.82076 147.010994,100.086467 143.233227,79.3253852 C138.100183,51.1183169 111.535534,33.3755682 83.2991984,39.3762744 C60.1614303,44.2928291 43.2522658,65.0355483 44.2068587,89.2403606 C45.042702,110.439081 55.8335852,125.620264 75.5574962,134.120563 C81.2528761,136.57578 86.2648717,139.887148 89.8212281,145.128106 C91.0906987,146.999549 92.5524669,148.74169 94.2823791,151.008691 Z M91.2676737,32.153698 C117.515147,30.0313011 143.835402,50.1596422 148.80143,75.825037 C154.211811,103.790333 141.033679,128.776315 114.762456,139.885617 C108.458773,142.550473 104.246612,147.19006 100.437435,152.51671 C96.1532585,158.506705 91.7610588,158.517416 87.5956324,152.410361 C83.4095205,146.272701 78.0466393,141.983531 71.1905787,138.842016 C49.9665931,129.115256 38.6853894,111.937154 38.0234566,88.9389098 C37.2014035,60.3469945 58.0967211,37.885853 83.3352063,33.0503993 C86.1177755,32.5178873 88.895748,32.5285987 91.2676737,32.153698 Z" id="Stroke-3" stroke="#6C6D6D" stroke-width="2"></path>
                <path d="M94.4018619,0.0267852685 C132.398744,-0.563180844 165.955304,27.1537037 173.81707,64.1548726 C174.355129,66.6868105 173.74075,68.3806585 171.51372,68.9037926 C169.253872,69.4338402 168.309026,67.6969739 167.834313,65.5783195 C164.621986,51.2347684 157.970662,38.7279477 147.661301,28.2921539 C116.995758,-2.74789911 66.5945185,-0.972623472 38.0835009,32.0823789 C29.9210325,41.5471868 24.2488992,52.2748909 21.5586046,64.5520243 C21.4509928,65.0451991 21.1327367,65.4984283 21.0602323,65.9916031 C20.7480818,68.1425212 19.4056057,69.3531808 17.4197484,68.8784425 C15.3339115,68.3791222 14.625658,66.7920519 15.1827971,64.4506239 C21.90052,36.2113735 38.6612465,16.5827093 65.2161718,5.48013089 C74.5051296,1.59618731 84.2878804,-0.248224977 94.4018619,0.0267852685" id="Fill-5" fill="#6D6E6D"></path>
                <path d="M94.4018619,0.0267852685 C132.398744,-0.563180844 165.955304,27.1537037 173.81707,64.1548726 C174.355129,66.6868105 173.74075,68.3806585 171.51372,68.9037926 C169.253872,69.4338402 168.309026,67.6969739 167.834313,65.5783195 C164.621986,51.2347684 157.970662,38.7279477 147.661301,28.2921539 C116.995758,-2.74789911 66.5945185,-0.972623472 38.0835009,32.0823789 C29.9210325,41.5471868 24.2488992,52.2748909 21.5586046,64.5520243 C21.4509928,65.0451991 21.1327367,65.4984283 21.0602323,65.9916031 C20.7480818,68.1425212 19.4056057,69.3531808 17.4197484,68.8784425 C15.3339115,68.3791222 14.625658,66.7920519 15.1827971,64.4506239 C21.90052,36.2113735 38.6612465,16.5827093 65.2161718,5.48013089 C74.5051296,1.59618731 84.2878804,-0.248224977 94.4018619,0.0267852685 Z" id="Stroke-7" stroke="#6C6D6D" stroke-width="2"></path>
                <path d="M172.439385,76.3070437 C171.80716,76.3400111 171.167317,76.4519472 170.543471,76.3921457 C167.089845,76.0594043 166.16969,77.5467737 166.350217,80.9953239 C166.802677,89.6473668 166.001351,98.264909 164.819927,106.851017 C163.943191,113.217571 164.049831,113.232138 170.278393,114.517103 C175.88387,115.673264 179.533258,113.411543 180.871595,107.660637 C182.551182,100.441528 182.757607,93.0215486 182.789741,85.6805374 C182.817783,79.4412529 178.642049,76.1314727 172.439385,76.3070437 M160.234389,82.5984627 C160.234389,80.9232555 160.289233,77.7338449 160.212299,74.547501 C160.170405,72.7779915 160.918411,71.2085868 162.470029,71.037616 C167.481367,70.4879027 172.560498,69.3233078 177.571836,70.5231702 C184.412819,72.1631099 189.140036,78.3395262 188.996833,86.0692468 C188.856677,93.6785978 188.497908,101.32935 186.928771,108.830598 C185.109028,117.535542 178.228436,122.293591 169.672828,120.692752 C166.844572,120.162973 164.074968,119.310419 161.285559,118.575168 C157.158575,117.487241 156.432658,116.428449 157.35586,112.453953 C159.522183,103.12646 160.453002,93.6785978 160.234389,82.5984627" id="Fill-9" fill="#6D6E6D"></path>
                <path d="M172.439385,76.3070437 C171.80716,76.3400111 171.167317,76.4519472 170.543471,76.3921457 C167.089845,76.0594043 166.16969,77.5467737 166.350217,80.9953239 C166.802677,89.6473668 166.001351,98.264909 164.819927,106.851017 C163.943191,113.217571 164.049831,113.232138 170.278393,114.517103 C175.88387,115.673264 179.533258,113.411543 180.871595,107.660637 C182.551182,100.441528 182.757607,93.0215486 182.789741,85.6805374 C182.817783,79.4412529 178.642049,76.1314727 172.439385,76.3070437 Z M160.234389,82.5984627 C160.234389,80.9232555 160.289233,77.7338449 160.212299,74.547501 C160.170405,72.7779915 160.918411,71.2085868 162.470029,71.037616 C167.481367,70.4879027 172.560498,69.3233078 177.571836,70.5231702 C184.412819,72.1631099 189.140036,78.3395262 188.996833,86.0692468 C188.856677,93.6785978 188.497908,101.32935 186.928771,108.830598 C185.109028,117.535542 178.228436,122.293591 169.672828,120.692752 C166.844572,120.162973 164.074968,119.310419 161.285559,118.575168 C157.158575,117.487241 156.432658,116.428449 157.35586,112.453953 C159.522183,103.12646 160.453002,93.6785978 160.234389,82.5984627 Z" id="Stroke-11" stroke="#6C6D6D" stroke-width="2"></path>
                <path d="M22.6247074,86.711236 C22.6247074,84.1624262 22.6399219,81.6136164 22.6171002,79.0640398 C22.6087322,78.117821 22.9168251,77.2022738 21.4897084,76.6678212 C12.8965791,73.4534378 5.57157531,78.807932 6.18243604,88.02168 C6.55290824,93.6046776 6.94391997,99.1899756 7.51674454,104.75457 C8.38016538,113.140952 13.2107577,116.595341 20.2208221,113.995923 C20.9138409,113.738281 21.7057538,113.723712 22.4573483,113.660836 C24.9662134,113.450735 25.3267962,111.896452 24.9091592,109.797748 C23.3937986,102.178923 22.5417886,94.4910868 22.6247074,86.711236 M28.7713509,84.4614743 C28.5651949,93.9044925 29.543485,103.222524 31.6446024,112.428604 C32.5605132,116.439682 31.8553228,117.503987 27.7633927,118.578259 C24.9768636,119.309777 22.210874,120.170115 19.3847873,120.696133 C9.90769758,122.460517 2.53476827,116.412078 1.44769481,105.91319 C0.817815998,99.8394467 0.32714953,93.7434666 0.026663864,87.6451862 C-0.390212453,79.1637225 4.11098675,72.3446595 11.4344691,70.5404028 C16.433942,69.3089381 21.5079657,70.4928618 26.512003,71.0342155 C28.0669212,71.2021425 28.8352517,72.7341888 28.7934119,74.5139083 C28.7158181,77.8279744 28.7713509,81.1451078 28.7713509,84.4614743" id="Fill-13" fill="#6D6E6D"></path>
                <path d="M22.6247074,86.711236 C22.6247074,84.1624262 22.6399219,81.6136164 22.6171002,79.0640398 C22.6087322,78.117821 22.9168251,77.2022738 21.4897084,76.6678212 C12.8965791,73.4534378 5.57157531,78.807932 6.18243604,88.02168 C6.55290824,93.6046776 6.94391997,99.1899756 7.51674454,104.75457 C8.38016538,113.140952 13.2107577,116.595341 20.2208221,113.995923 C20.9138409,113.738281 21.7057538,113.723712 22.4573483,113.660836 C24.9662134,113.450735 25.3267962,111.896452 24.9091592,109.797748 C23.3937986,102.178923 22.5417886,94.4910868 22.6247074,86.711236 Z M28.7713509,84.4614743 C28.5651949,93.9044925 29.543485,103.222524 31.6446024,112.428604 C32.5605132,116.439682 31.8553228,117.503987 27.7633927,118.578259 C24.9768636,119.309777 22.210874,120.170115 19.3847873,120.696133 C9.90769758,122.460517 2.53476827,116.412078 1.44769481,105.91319 C0.817815998,99.8394467 0.32714953,93.7434666 0.026663864,87.6451862 C-0.390212453,79.1637225 4.11098675,72.3446595 11.4344691,70.5404028 C16.433942,69.3089381 21.5079657,70.4928618 26.512003,71.0342155 C28.0669212,71.2021425 28.8352517,72.7341888 28.7934119,74.5139083 C28.7158181,77.8279744 28.7713509,81.1451078 28.7713509,84.4614743 Z" id="Stroke-15" stroke="#6C6D6D" stroke-width="2"></path>
                <path d="M94.460309,11.0123329 C105.847887,10.7823197 116.35686,13.7783888 126.135821,19.2706908 C127.458682,20.0138103 130.020582,20.6456093 128.566654,22.9309967 C127.217884,25.049772 125.429431,23.4986574 123.969407,22.7068813 C104.328426,12.0562389 84.6874444,12.0569761 65.0274128,22.6390569 C64.809476,22.7555379 64.6044935,22.8933984 64.3857947,23.0076677 C63.0614096,23.6984445 61.6013855,24.7600438 60.4240697,23.0246238 C59.1789343,21.1882045 60.9551953,20.35883 62.1599438,19.6385644 C67.5352098,16.4279638 73.3128207,14.1138247 79.4417213,12.5980968 C84.3765416,11.3779949 89.3852776,10.9209174 94.460309,11.0123329" id="Fill-17" fill="#6D6E6D"></path>
                <path d="M94.460309,11.0123329 C105.847887,10.7823197 116.35686,13.7783888 126.135821,19.2706908 C127.458682,20.0138103 130.020582,20.6456093 128.566654,22.9309967 C127.217884,25.049772 125.429431,23.4986574 123.969407,22.7068813 C104.328426,12.0562389 84.6874444,12.0569761 65.0274128,22.6390569 C64.809476,22.7555379 64.6044935,22.8933984 64.3857947,23.0076677 C63.0614096,23.6984445 61.6013855,24.7600438 60.4240697,23.0246238 C59.1789343,21.1882045 60.9551953,20.35883 62.1599438,19.6385644 C67.5352098,16.4279638 73.3128207,14.1138247 79.4417213,12.5980968 C84.3765416,11.3779949 89.3852776,10.9209174 94.460309,11.0123329 Z" id="Stroke-19" stroke="#6C6D6D" stroke-width="2"></path>
                <path d="M87,167.542294 C86.9869573,163.14161 90.1829893,159.95828 94.5710882,160.000413 C98.7106154,160.039537 101.968983,163.264248 101.999766,167.351941 C102.032857,171.632245 98.556701,175.118784 94.3794648,174.996898 C90.1876068,174.87426 87.0123532,171.666102 87,167.542294" id="Fill-21" fill="#6D6E6D"></path>
                <path d="M87,167.542294 C86.9869573,163.14161 90.1829893,159.95828 94.5710882,160.000413 C98.7106154,160.039537 101.968983,163.264248 101.999766,167.351941 C102.032857,171.632245 98.556701,175.118784 94.3794648,174.996898 C90.1876068,174.87426 87.0123532,171.666102 87,167.542294 Z" id="Stroke-23" stroke="#6C6D6D" stroke-width="2"></path>
                <path d="M97.7747768,88.66175 C97.4764352,86.8460062 96.3794323,85.4768204 94.5970918,85.3634335 C92.733035,85.2453869 91.4140105,86.6728193 91.3068542,88.4574982 C91.1958434,90.3089666 92.4454861,91.6587368 94.3588811,91.7332926 C96.2769015,91.8078484 97.3245662,90.5116652 97.7747768,88.66175 M94.7736299,97.997531 C89.539161,98.1186842 84.9823207,93.7641609 85,88.6594201 C85.0177825,83.6905883 89.2223176,79.2692755 94.1769467,79.0098835 C99.0267322,78.7559279 103.89502,83.4358561 103.998321,88.4512852 C104.098539,93.3269223 99.6966517,97.8825909 94.7736299,97.997531" id="Fill-25" fill="#C83548"></path>
                <path d="M97.7747768,88.66175 C97.4764352,86.8460062 96.3794323,85.4768204 94.5970918,85.3634335 C92.733035,85.2453869 91.4140105,86.6728193 91.3068542,88.4574982 C91.1958434,90.3089666 92.4454861,91.6587368 94.3588811,91.7332926 C96.2769015,91.8078484 97.3245662,90.5116652 97.7747768,88.66175 Z M94.7736299,97.997531 C89.539161,98.1186842 84.9823207,93.7641609 85,88.6594201 C85.0177825,83.6905883 89.2223176,79.2692755 94.1769467,79.0098835 C99.0267322,78.7559279 103.89502,83.4358561 103.998321,88.4512852 C104.098539,93.3269223 99.6966517,97.8825909 94.7736299,97.997531 Z" id="Stroke-27" stroke="#C83549"></path>
                <path d="M71.3828832,85.1796785 C69.6371425,85.6975796 68.3220178,86.602747 68.3670191,88.6101934 C68.4120204,90.6354186 69.6495566,91.6580799 71.5590091,91.5730514 C73.4630303,91.4880229 74.7610855,90.2450603 74.6803935,88.3674756 C74.6020292,86.5308592 73.1852636,85.5321604 71.3828832,85.1796785 M62,88.579274 C61.9745044,83.4590102 66.4808432,78.9153944 71.4992659,79.0011959 C76.4990674,79.0869975 80.8479016,83.3059588 80.9960956,88.2144242 C81.1543761,93.4204896 76.4765668,98.1279785 71.2750352,97.9973438 C66.387737,97.8752119 62.0249369,93.4459981 62,88.579274" id="Fill-29" fill="#C83548"></path>
                <path d="M71.3828832,85.1796785 C69.6371425,85.6975796 68.3220178,86.602747 68.3670191,88.6101934 C68.4120204,90.6354186 69.6495566,91.6580799 71.5590091,91.5730514 C73.4630303,91.4880229 74.7610855,90.2450603 74.6803935,88.3674756 C74.6020292,86.5308592 73.1852636,85.5321604 71.3828832,85.1796785 Z M62,88.579274 C61.9745044,83.4590102 66.4808432,78.9153944 71.4992659,79.0011959 C76.4990674,79.0869975 80.8479016,83.3059588 80.9960956,88.2144242 C81.1543761,93.4204896 76.4765668,98.1279785 71.2750352,97.9973438 C66.387737,97.8752119 62.0249369,93.4459981 62,88.579274 Z" id="Stroke-31" stroke="#C83549"></path>
                <path d="M120.627533,88.293488 C120.470706,86.4544918 119.151652,85.2922836 117.375315,85.3879674 C115.635468,85.4820954 114.189866,86.8146675 114.309427,88.7042283 C114.425106,90.5370012 115.757358,91.7863361 117.681982,91.7171015 C119.600394,91.6478669 120.706723,90.5035507 120.627533,88.293488 M117.810859,97.9980048 C112.502036,98.1045794 108.063524,93.9279421 108.000638,88.7664617 C107.939304,83.6796613 112.311825,79.1405146 117.405594,79.0028232 C122.337101,78.8690215 126.989115,83.5116312 127,88.575872 C127.009301,93.6089961 122.827768,97.8968755 117.810859,97.9980048" id="Fill-33" fill="#C83548"></path>
                <path d="M120.627533,88.293488 C120.470706,86.4544918 119.151652,85.2922836 117.375315,85.3879674 C115.635468,85.4820954 114.189866,86.8146675 114.309427,88.7042283 C114.425106,90.5370012 115.757358,91.7863361 117.681982,91.7171015 C119.600394,91.6478669 120.706723,90.5035507 120.627533,88.293488 Z M117.810859,97.9980048 C112.502036,98.1045794 108.063524,93.9279421 108.000638,88.7664617 C107.939304,83.6796613 112.311825,79.1405146 117.405594,79.0028232 C122.337101,78.8690215 126.989115,83.5116312 127,88.575872 C127.009301,93.6089961 122.827768,97.8968755 117.810859,97.9980048 Z" id="Stroke-35" stroke="#C83549"></path>
            </g>
        </g>
    </g>
</svg>