<?xml version="1.0" encoding="UTF-8"?>
<svg width="110px" height="149px" viewBox="0 0 110 149" version="1.1" xmlns="http://www.w3.org/2000/svg" xmlns:xlink="http://www.w3.org/1999/xlink">
    <title>Send Money</title>
    <defs>
        <polygon id="path-1" points="0.000280645161 0.0182735849 85.6896677 0.0182735849 85.6896677 149 0.000280645161 149"></polygon>
    </defs>
    <g id="Page-1" stroke="none" stroke-width="1" fill="none" fill-rule="evenodd">
        <g id="Library" transform="translate(-1009.000000, -77.000000)">
            <g id="Send-Money" transform="translate(1009.000000, 77.000000)">
                <path d="M51.8337986,9 L43.1662014,9 C41.9686493,9 41,9.89632968 41,10.9987122 C41,12.1036703 41.9686493,13 43.1662014,13 L51.8337986,13 C53.0313507,13 54,12.1036703 54,10.9987122 C54,9.89632968 53.0313507,9 51.8337986,9" id="Fill-1" fill="#C83548"></path>
                <path d="M42.5,135.667597 C41.3054959,135.667597 40.3342636,134.696156 40.3342636,133.501396 C40.3342636,132.303844 41.3054959,131.332403 42.5,131.332403 C43.6945041,131.332403 44.6657364,132.303844 44.6657364,133.501396 C44.6657364,134.696156 43.6945041,135.667597 42.5,135.667597 M42.5,127 C38.9164878,127 36,129.914323 36,133.501396 C36,137.085677 38.9164878,140 42.5,140 C46.0835122,140 49,137.085677 49,133.501396 C49,129.914323 46.0835122,127 42.5,127" id="Fill-3" fill="#C83548"></path>
                <path d="M34,9 C35.1056701,9 36,9.89632968 36,10.9987122 C36,12.1036703 35.1056701,13 34,13 C32.8943299,13 32,12.1036703 32,10.9987122 C32,9.89632968 32.8943299,9 34,9" id="Fill-5" fill="#C83548"></path>
                <g id="Group-9">
                    <mask id="mask-2" fill="white">
                        <use xlink:href="#path-1"></use>
                    </mask>
                    <g id="Clip-8"></g>
                    <path d="M81.3340548,17.4765755 L4.35589355,17.4765755 L4.35589355,10.9290094 C4.35589355,7.31927358 7.28863548,4.3814434 10.8921194,4.3814434 L74.797829,4.3814434 C78.4013129,4.3814434 81.3340548,7.31927358 81.3340548,10.9290094 L81.3340548,17.4765755 Z M81.3340548,118.447972 L19.6061516,118.447972 C18.4049903,118.447972 17.4283452,119.4235 17.4283452,120.629557 C17.4283452,121.835613 18.4049903,122.811142 19.6061516,122.811142 L81.3340548,122.811142 L81.3340548,138.087858 C81.3340548,141.697594 78.4013129,144.635425 74.797829,144.635425 L10.8921194,144.635425 C7.28863548,144.635425 4.35589355,141.697594 4.35589355,138.087858 L4.35589355,122.811142 L10.8921194,122.811142 C12.0960871,122.811142 13.0727323,121.835613 13.0727323,120.629557 C13.0727323,119.4235 12.0960871,118.447972 10.8921194,118.447972 L4.35589355,118.447972 L4.35589355,21.8397453 L81.3340548,21.8397453 L81.3340548,118.447972 Z M74.797829,0.0182735849 L10.8921194,0.0182735849 C4.8863129,0.0182735849 0.000280645161,4.91278302 0.000280645161,10.9290094 L0.000280645161,138.087858 C0.000280645161,144.104085 4.8863129,149.001406 10.8921194,149.001406 L74.797829,149.001406 C80.8064419,149.001406 85.6896677,144.104085 85.6896677,138.087858 L85.6896677,10.9290094 C85.6896677,4.91278302 80.8064419,0.0182735849 74.797829,0.0182735849 L74.797829,0.0182735849 Z" id="Fill-7" fill="#6D6D6D" mask="url(#mask-2)"></path>
                </g>
                <path d="M108,73.5 C108,87.0316165 97.0316165,98 83.5,98 C69.9712003,98 59,87.0316165 59,73.5 C59,59.9683835 69.9712003,49 83.5,49 C97.0316165,49 108,59.9683835 108,73.5" id="Fill-10" fill="#FEFEFE"></path>
                <path d="M108,73.5 C108,87.0316165 97.0316165,98 83.5,98 C69.9712003,98 59,87.0316165 59,73.5 C59,59.9683835 69.9712003,49 83.5,49 C97.0316165,49 108,59.9683835 108,73.5 Z" id="Stroke-12" stroke="#6C6D6D" stroke-width="3"></path>
                <path d="M90.254737,74.9543236 L79.6553002,74.9543236 C76.8456083,74.9543236 74.0331122,74.968751 71.2234202,74.9485527 C69.7260395,74.9370107 68.8679898,74.0511675 69.0166063,72.7555857 C69.1455941,71.6648732 69.9531702,71.0531508 71.3411917,71.0502653 C77.2465922,71.0444944 83.1519927,71.0473799 89.0573933,71.0473799 L90.251933,71.0473799 C90.3136228,70.9637009 90.3725086,70.8800219 90.4313943,70.7963429 C89.6602713,70.0374609 88.8639115,69.3045482 88.1180252,68.5196969 C87.1898734,67.5472892 87.1197713,66.4508057 87.8796781,65.6342141 C88.7124909,64.7368289 89.7387856,64.7858821 90.7594721,65.818885 C92.6157756,67.7031053 94.4608628,69.5988675 96.2891254,71.5090571 C97.2284935,72.4930068 97.2397098,73.5086967 96.3059499,74.4839899 C94.4524505,76.4259199 92.5793225,78.3534224 90.6865659,80.2578411 C89.7331775,81.2187068 88.6872542,81.2331343 87.8852862,80.3790313 C87.1281836,79.5739816 87.1954816,78.4515288 88.112417,77.490663 C88.8498911,76.7231246 89.6350345,76.0017539 90.4005494,75.2601848 C90.3500759,75.1591929 90.3024065,75.0553155 90.254737,74.9543236" id="Fill-14" fill="#C83548"></path>
                <path d="M45.4137935,84 C44.6832579,83.955348 43.9527224,83.8911607 43.2577559,83.6372025 C42.1770011,83.2381252 41.3643829,82.4762504 40.6612082,81.5804196 C39.5530924,80.1599277 38.7213216,78.5664094 37.927856,76.9561465 C37.2356257,75.5523992 36.5598119,74.1430703 35.8949424,72.7253692 C35.7827628,72.4853647 35.6569027,72.3793162 35.4051826,72.426759 C35.2081843,72.460248 35.1343099,72.3904792 35.1397821,72.1700099 C35.1561986,71.3941814 35.1534625,70.6211436 35.1479903,69.8481058 C35.1479903,69.666707 35.1890316,69.610892 35.3778217,69.599729 C36.2944113,69.5522863 37.1754317,69.3513523 38.0044665,68.9439027 C38.9566252,68.4778474 39.5147872,67.6824836 39.755563,66.6443246 C40.1139905,65.109412 40.1851288,63.5605456 39.8650065,62.0172608 C39.5038428,60.2618789 38.4258241,59.3186053 36.6200058,59.0953453 C36.2342174,59.0479026 35.8484289,59.0199951 35.4599044,59.0227858 C34.3572608,59.0283673 33.2546172,59.0255766 32.1519737,59.0423211 C31.9631836,59.0451118 31.9166701,58.9055743 31.8373235,58.7995258 C31.0575384,57.7753205 30.1628375,56.8822804 29.0711383,56.2013374 C29.0492496,56.1873836 29.0246248,56.1762206 29,56.1622669 L29,56.0562184 C29.0711383,56.0506369 29.1422766,56.0450554 29.2134149,56.0422646 C31.851004,55.9920311 34.4885931,55.9780774 37.1261821,56.0478461 C38.6036698,56.0897074 40.0537966,56.3269211 41.430049,56.9073972 C43.0580215,57.5939217 44.3303025,58.673942 44.902145,60.4153702 C45.7257075,62.9103008 45.6025836,65.3829055 44.5437174,67.7941137 C44.5054122,67.8750454 44.4233295,67.9531864 44.469843,68.0703979 C45.2660447,68.0229552 46.0567742,68.0676072 46.8338233,68.2629597 C48.7901264,68.7597132 50.3414884,69.834152 51.2854389,71.6872102 C52.2622224,73.6128278 52.1445706,75.6026327 51.4906455,77.6036006 C51.4359237,77.7738363 51.3456328,77.7124398 51.2498697,77.6705786 C50.82304,77.4863891 50.3962102,77.2882458 49.9639083,77.11801 C49.8079512,77.0566135 49.7559656,76.9868448 49.7587016,76.8138183 C49.7723821,75.8677539 49.5753837,74.9691324 49.0910961,74.1598148 C48.0459104,72.4183867 46.4671875,71.5839524 44.5108844,71.4555779 C43.3863521,71.3830184 42.3439025,71.6593027 41.4382572,72.382107 C41.3151333,72.482574 41.2823002,72.5579242 41.3671189,72.7142062 C42.1961537,74.2435373 42.9704667,75.8035667 43.8952645,77.2798735 C44.6093835,78.4212904 45.3782243,79.5124737 46.36048,80.4334213 C47.1238486,81.1506441 47.9802443,81.6390253 49.0527909,81.6166993 C49.1923314,81.6166993 49.2333727,81.6585606 49.2333727,81.8008889 C49.2251644,82.3060146 49.2224283,82.8083497 49.2333727,83.3134755 C49.2388449,83.4809205 49.181387,83.5451077 49.0281661,83.5897597 C48.2647975,83.8186012 47.4877484,83.9637202 46.6915467,84 L45.4137935,84 Z" id="Fill-16" fill="#C83548"></path>
                <path d="M45.4137935,84 C44.6832579,83.955348 43.9527224,83.8911607 43.2577559,83.6372025 C42.1770011,83.2381252 41.3643829,82.4762504 40.6612082,81.5804196 C39.5530924,80.1599277 38.7213216,78.5664094 37.927856,76.9561465 C37.2356257,75.5523992 36.5598119,74.1430703 35.8949424,72.7253692 C35.7827628,72.4853647 35.6569027,72.3793162 35.4051826,72.426759 C35.2081843,72.460248 35.1343099,72.3904792 35.1397821,72.1700099 C35.1561986,71.3941814 35.1534625,70.6211436 35.1479903,69.8481058 C35.1479903,69.666707 35.1890316,69.610892 35.3778217,69.599729 C36.2944113,69.5522863 37.1754317,69.3513523 38.0044665,68.9439027 C38.9566252,68.4778474 39.5147872,67.6824836 39.755563,66.6443246 C40.1139905,65.109412 40.1851288,63.5605456 39.8650065,62.0172608 C39.5038428,60.2618789 38.4258241,59.3186053 36.6200058,59.0953453 C36.2342174,59.0479026 35.8484289,59.0199951 35.4599044,59.0227858 C34.3572608,59.0283673 33.2546172,59.0255766 32.1519737,59.0423211 C31.9631836,59.0451118 31.9166701,58.9055743 31.8373235,58.7995258 C31.0575384,57.7753205 30.1628375,56.8822804 29.0711383,56.2013374 C29.0492496,56.1873836 29.0246248,56.1762206 29,56.1622669 L29,56.0562184 C29.0711383,56.0506369 29.1422766,56.0450554 29.2134149,56.0422646 C31.851004,55.9920311 34.4885931,55.9780774 37.1261821,56.0478461 C38.6036698,56.0897074 40.0537966,56.3269211 41.430049,56.9073972 C43.0580215,57.5939217 44.3303025,58.673942 44.902145,60.4153702 C45.7257075,62.9103008 45.6025836,65.3829055 44.5437174,67.7941137 C44.5054122,67.8750454 44.4233295,67.9531864 44.469843,68.0703979 C45.2660447,68.0229552 46.0567742,68.0676072 46.8338233,68.2629597 C48.7901264,68.7597132 50.3414884,69.834152 51.2854389,71.6872102 C52.2622224,73.6128278 52.1445706,75.6026327 51.4906455,77.6036006 C51.4359237,77.7738363 51.3456328,77.7124398 51.2498697,77.6705786 C50.82304,77.4863891 50.3962102,77.2882458 49.9639083,77.11801 C49.8079512,77.0566135 49.7559656,76.9868448 49.7587016,76.8138183 C49.7723821,75.8677539 49.5753837,74.9691324 49.0910961,74.1598148 C48.0459104,72.4183867 46.4671875,71.5839524 44.5108844,71.4555779 C43.3863521,71.3830184 42.3439025,71.6593027 41.4382572,72.382107 C41.3151333,72.482574 41.2823002,72.5579242 41.3671189,72.7142062 C42.1961537,74.2435373 42.9704667,75.8035667 43.8952645,77.2798735 C44.6093835,78.4212904 45.3782243,79.5124737 46.36048,80.4334213 C47.1238486,81.1506441 47.9802443,81.6390253 49.0527909,81.6166993 C49.1923314,81.6166993 49.2333727,81.6585606 49.2333727,81.8008889 C49.2251644,82.3060146 49.2224283,82.8083497 49.2333727,83.3134755 C49.2388449,83.4809205 49.181387,83.5451077 49.0281661,83.5897597 C48.2647975,83.8186012 47.4877484,83.9637202 46.6915467,84 L45.4137935,84 Z" id="Stroke-18" stroke="#FEFEFE" stroke-width="0.25"></path>
                <path d="M29.6412733,89 C29.6050149,88.8624645 29.4750889,88.8953534 29.3844428,88.8684443 C28.4084869,88.5455347 27.8464813,87.6037152 28.0368381,86.6050875 C28.2271948,85.6273892 29.1215692,84.9307418 30.0975251,85.0054893 C31.1611055,85.0862167 31.9255539,85.8247228 31.9950493,86.8323202 C32.0645446,87.8787863 31.3967853,88.7249289 30.345291,88.9192726 C30.2848603,88.9312322 30.2123435,88.9132928 30.1942142,89 L29.6412733,89 Z" id="Fill-20" fill="#C83548"></path>
                <path d="M29.6412733,89 C29.6050149,88.8624645 29.4750889,88.8953534 29.3844428,88.8684443 C28.4084869,88.5455347 27.8464813,87.6037152 28.0368381,86.6050875 C28.2271948,85.6273892 29.1215692,84.9307418 30.0975251,85.0054893 C31.1611055,85.0862167 31.9255539,85.8247228 31.9950493,86.8323202 C32.0645446,87.8787863 31.3967853,88.7249289 30.345291,88.9192726 C30.2848603,88.9312322 30.2123435,88.9132928 30.1942142,89 L29.6412733,89 Z" id="Stroke-22" stroke="#FEFEFE" stroke-width="0.25"></path>
            </g>
        </g>
    </g>
</svg>