<?xml version="1.0" encoding="utf-8"?>
<!-- Generator: Adobe Illustrator 24.3.0, SVG Export Plug-In . SVG Version: 6.00 Build 0)  -->
<svg version="1.1" id="Layer_1" xmlns="http://www.w3.org/2000/svg" xmlns:xlink="http://www.w3.org/1999/xlink" x="0px" y="0px"
	 viewBox="0 0 500 500" style="enable-background:new 0 0 500 500;" xml:space="preserve">
<style type="text/css">
	.st0{filter:url(#Adobe_OpacityMaskFilter);}
	.st1{fill-rule:evenodd;clip-rule:evenodd;fill:#FFFFFF;}
	.st2{mask:url(#mask-2_1_);fill-rule:evenodd;clip-rule:evenodd;fill:#666666;}
	.st3{filter:url(#Adobe_OpacityMaskFilter_1_);}
	.st4{mask:url(#mask-2_2_);}
	.st5{filter:url(#Adobe_OpacityMaskFilter_2_);}
	.st6{mask:url(#mask-4_1_);fill-rule:evenodd;clip-rule:evenodd;fill:#C70039;}
</style>
<g id="Page-1">
	<g id="home_page" transform="translate(-786.000000, -4996.000000)">
		<g id="Group-2-Copy-3" transform="translate(736.000000, 4953.000000)">
			<g id="wallet" transform="translate(50.000000, 43.000000)">
				<g id="Clip-2">
				</g>
				<defs>
					<filter id="Adobe_OpacityMaskFilter" filterUnits="userSpaceOnUse" x="0" y="0" width="500" height="500">
						<feColorMatrix  type="matrix" values="1 0 0 0 0  0 1 0 0 0  0 0 1 0 0  0 0 0 1 0"/>
					</filter>
				</defs>
				<mask maskUnits="userSpaceOnUse" x="0" y="0" width="500" height="500" id="mask-2_1_">
					<g class="st0">
						<polygon id="path-1_1_" class="st1" points="0,0 500,0 500,500 0,500 						"/>
					</g>
				</mask>
				<path id="Fill-1" class="st2" d="M230.9,112.7c0.4,3.6,2.4,6.6,3.3,10c0.9,3.4,2.1,3.8,5.3,2c18.1-10,36.3-19.7,54.6-29.4
					c18.4-9.8,36.8-19.5,55.3-29c3.5-1.8,3.2-2.9,0.8-5.3c-10.9-10.8-21.8-21.6-32.5-32.5c-2.2-2.3-3.5-1.8-5.3,0.2
					c-2.8,3.2-5.8,6.2-8.8,9.2c-23.3,23.2-46.6,46.4-69.9,69.7C232.3,108.9,230.6,110.3,230.9,112.7 M421.9,359.7L421.9,359.7
					c17.4,0,34.9-0.1,52.3,0.1c4.5,0.1,5.5-1.3,5.4-5.6c-0.4-16.3-0.6-32.6-0.3-48.9c0.1-4.5-1.1-5.3-5.1-5.2
					c-16.3,0.2-32.6,0.2-48.9,0.2c-18.7,0.1-37.4,0-56.2,0.2c-20.6,0.3-30.7,19.2-29.2,31.6c1.9,16.1,13.8,27.2,30.2,27.5
					C387.4,359.9,404.7,359.7,421.9,359.7 M436,159.6c-0.3-1.4-0.3-1.8-0.5-2.1c-15.2-28.7-30.4-57.4-45.4-86.2
					c-2-3.8-3.6-1.8-5.6-0.7c-23.5,12.4-47,24.9-70.5,37.3c-21.9,11.6-43.8,23-65.7,34.6c-3.8,2-7.1,4.5-8.3,9
					c-1.6,6.1-0.2,8.1,6.1,8.1c41.9,0,83.7,0,125.6,0C393.1,159.6,414.4,159.6,436,159.6 M219.6,161.1
					c0.9-54.2-44-102.5-102.2-100.6c-53.3,1.7-94.9,43.3-96.8,95.4c-2.1,58.8,43.9,102.8,97.8,104
					C174.1,261.1,220.3,214.1,219.6,161.1 M270.6,479.7L270.6,479.7c16.5,0.1,33,0.1,49.5,0.1c45.8,0,91.6,0.1,137.4,0
					c13.9,0,22.1-7.7,22.2-21.4c0.2-24.1-0.1-48.2,0.1-72.3c0.1-5.2-1.9-6.1-6.4-6.1c-32.6,0.1-65.2,0.1-97.9,0.1
					c-6.9,0-13.6-0.7-20.3-2.5c-34.7-9.6-46.8-53-23.6-80.1c10.6-12.4,24.9-17.6,41-17.7c33.9-0.2,67.9-0.1,101.8,0.1
					c4,0,5.4-0.8,5.3-5.1c-0.2-23.2-0.2-46.4-0.1-69.5c0.1-17.6-6.8-24.8-24.2-24.8c-68.8,0-137.6,0.1-206.3,0.1
					c-10.1,0-9.8,0.1-12.6,9.6c-14.3,48.2-46.5,77.6-95.2,88.4c-26.4,5.8-51.9,1.4-76-10.9c-3.8-1.9-5.3-1.6-4.9,2.9
					c0.1,1.7,0,3.3,0,5c0,32.8,0,65.6,0,98.5c0,28.4-0.1,56.7,0.3,85.1c0.2,13.2,6.1,19.4,19.2,20.4c9.2,0.7,18.5,0.4,27.8,0.4
					C161.9,479.7,216.3,479.7,270.6,479.7 M88.4,499.9c-7.8,0-15.6-0.2-23-3c-15.7-5.9-24.7-19-25-37c-0.3-18-0.3-36-0.3-53.9
					c0-40.2,0.1-80.5,0.1-120.7c0-9.1-0.1-18.2,0.1-27.3c0.1-5.7-1.9-10.4-5.8-14.4c-26-26.4-37.7-58.6-33.9-95
					c3.5-34.4,18-64.3,47.4-84.8c30.3-21.1,63.8-29.7,100-21c27.3,6.6,49.9,21.9,67.4,44.3c0.7,0.9,1.4,1.7,2.1,2.6
					c1.9,2.5,2.9,2.9,5.5-0.1c7.2-8.2,15.1-15.7,22.8-23.4c19.3-19.4,38.7-38.7,58-58.1c1.3-1.3,2.6-2.6,4.1-3.8
					c7.2-5.9,9.7-6,16.5,0.6c14.1,13.6,27.9,27.4,41.8,41.2c6.3,6.2,7.6,6.5,15.3,2.5c0.7-0.3,1.3-0.7,2-1
					c9.9-5.2,14.7-3.8,19.9,5.9c10.3,19.4,20.5,38.9,30.8,58.3c7.4,14.1,14.9,28.1,22.3,42.2c1.8,3.5,4.5,5.7,8.4,6.3
					c17.6,2.8,27.9,13.9,34,29.8c0.7,1.9,0.7,3.6,0.7,5.4c0,89,0.8,178-0.5,267c-0.3,21.3-15.4,36.4-37.7,36.9
					c-35.8,0.9-71.5,0.4-107.3,0.4c-27.8,0-55.6,0-83.4,0C210,499.9,149.2,499.8,88.4,499.9z"/>
				<defs>
					<filter id="Adobe_OpacityMaskFilter_1_" filterUnits="userSpaceOnUse" x="72.8" y="110.8" width="91.8" height="104.4">
						<feColorMatrix  type="matrix" values="1 0 0 0 0  0 1 0 0 0  0 0 1 0 0  0 0 0 1 0"/>
					</filter>
				</defs>
				<mask maskUnits="userSpaceOnUse" x="72.8" y="110.8" width="91.8" height="104.4" id="mask-2_2_">
					<g class="st3">
						<polygon id="path-1_2_" class="st1" points="0,0 500,0 500,500 0,500 						"/>
					</g>
				</mask>
				<g id="Group-6" class="st4">
					<g id="Group-3" transform="translate(11.645570, 17.215190)">
						<g transform="translate(0.000000, 0.410228)">
							<g id="Clip-2_1_">
							</g>
							<defs>
								<filter id="Adobe_OpacityMaskFilter_2_" filterUnits="userSpaceOnUse" x="61.1" y="93.1" width="91.8" height="104.4">
									<feColorMatrix  type="matrix" values="1 0 0 0 0  0 1 0 0 0  0 0 1 0 0  0 0 0 1 0"/>
								</filter>
							</defs>
							<mask maskUnits="userSpaceOnUse" x="61.1" y="93.1" width="91.8" height="104.4" id="mask-4_1_">
								<g class="st5">
									<polygon id="path-3_1_" class="st1" points="61.1,93.1 152.9,93.1 152.9,197.6 61.1,197.6 									"/>
								</g>
							</mask>
							<path id="Fill-1_1_" class="st6" d="M126.6,197.6c-2.9-0.2-5.8-0.4-8.6-1.4c-4.3-1.5-7.6-4.3-10.4-7.7
								c-4.4-5.3-7.7-11.2-10.9-17.3c-2.8-5.2-5.5-10.5-8.1-15.8c-0.5-0.9-1-1.3-2-1.1c-0.8,0.1-1.1-0.1-1.1-1
								c0.1-2.9,0.1-5.8,0-8.7c0-0.7,0.2-0.9,0.9-0.9c3.6-0.2,7.2-0.9,10.5-2.4c3.8-1.7,6-4.7,7-8.6c1.4-5.7,1.7-11.5,0.4-17.3
								c-1.4-6.5-5.7-10.1-12.9-10.9c-1.5-0.2-3.1-0.3-4.6-0.3c-4.4,0-8.8,0-13.2,0.1c-0.8,0-0.9-0.5-1.3-0.9
								c-3.1-3.8-6.7-7.2-11-9.7c-0.1-0.1-0.2-0.1-0.3-0.1v-0.4c0.3,0,0.6,0,0.8,0c10.5-0.2,21-0.2,31.6,0c5.9,0.1,11.7,1,17.2,3.2
								c6.5,2.6,11.6,6.6,13.9,13.1c3.3,9.3,2.8,18.5-1.4,27.5c-0.1,0.3-0.5,0.6-0.3,1c3.2-0.2,6.3,0,9.4,0.7
								c7.8,1.9,14,5.9,17.8,12.8c3.9,7.2,3.4,14.6,0.8,22.1c-0.2,0.6-0.6,0.4-1,0.3c-1.7-0.7-3.4-1.4-5.1-2.1
								c-0.6-0.2-0.8-0.5-0.8-1.1c0.1-3.5-0.7-6.9-2.7-9.9c-4.2-6.5-10.5-9.6-18.3-10.1c-4.5-0.3-8.6,0.8-12.3,3.5
								c-0.5,0.4-0.6,0.7-0.3,1.2c3.3,5.7,6.4,11.5,10.1,17c2.8,4.3,5.9,8.3,9.8,11.8c3.1,2.7,6.5,4.5,10.8,4.4
								c0.6,0,0.7,0.2,0.7,0.7c0,1.9,0,3.8,0,5.6c0,0.6-0.2,0.9-0.8,1c-3.1,0.9-6.1,1.4-9.3,1.5H126.6z"/>
						</g>
					</g>
				</g>
			</g>
		</g>
	</g>
</g>
</svg>
