<?xml version="1.0" encoding="UTF-8"?>
<svg width="157px" height="154px" viewBox="0 0 157 154" version="1.1" xmlns="http://www.w3.org/2000/svg" xmlns:xlink="http://www.w3.org/1999/xlink">
    <title>merchant</title>
    <defs>
        <polygon id="path-1" points="0.0005 0.757 156.768 0.757 156.768 152.9997 0.0005 152.9997"></polygon>
    </defs>
    <g id="Page-1" stroke="none" stroke-width="1" fill="none" fill-rule="evenodd">
        <g id="Library" transform="translate(-1271.000000, -672.000000)">
            <g id="merchant" transform="translate(1271.000000, 672.000000)">
                <path d="M114.261,113.8368 C114.261,115.6188 112.948,117.0438 111.378,117.0438 L90.076,117.0438 C88.474,117.0438 87.193,115.5828 87.193,113.8368 L87.193,95.6658 C87.193,93.8848 88.507,92.4598 90.076,92.4598 L111.378,92.4598 C112.98,92.4598 114.261,93.9208 114.261,95.6658 L114.261,113.8368 Z M111.378,83.9088 L90.076,83.9088 C84.246,83.9088 79.506,89.1818 79.506,95.6658 L79.506,113.8368 C79.506,120.3218 84.246,125.5948 90.076,125.5948 L111.378,125.5948 C117.208,125.5948 121.949,120.3218 121.949,113.8368 L121.949,95.6658 C121.949,89.1818 117.208,83.9088 111.378,83.9088 L111.378,83.9088 Z" id="Fill-1" fill="#C83548"></path>
                <path d="M114.261,113.8368 C114.261,115.6188 112.948,117.0438 111.378,117.0438 L90.076,117.0438 C88.474,117.0438 87.193,115.5828 87.193,113.8368 L87.193,95.6658 C87.193,93.8848 88.507,92.4598 90.076,92.4598 L111.378,92.4598 C112.98,92.4598 114.261,93.9208 114.261,95.6658 L114.261,113.8368 Z M111.378,83.9088 L90.076,83.9088 C84.246,83.9088 79.506,89.1818 79.506,95.6658 L79.506,113.8368 C79.506,120.3218 84.246,125.5948 90.076,125.5948 L111.378,125.5948 C117.208,125.5948 121.949,120.3218 121.949,113.8368 L121.949,95.6658 C121.949,89.1818 117.208,83.9088 111.378,83.9088 Z" id="Stroke-3" stroke="#FEFEFE" stroke-width="0.25"></path>
                <g id="Group-7" transform="translate(0.000000, 0.243000)">
                    <mask id="mask-2" fill="white">
                        <use xlink:href="#path-1"></use>
                    </mask>
                    <g id="Clip-6"></g>
                    <path d="M134.2815,67.0977 C127.0105,67.0977 120.9555,61.2547 119.7385,53.5587 L148.8565,53.5587 C147.6075,61.2187 141.5525,67.0977 134.2815,67.0977 L134.2815,67.0977 Z M135.5945,144.4497 L72.2655,144.4497 L72.2655,98.3097 C72.2655,90.2567 66.3715,83.6657 59.1005,83.6657 L47.9215,83.6657 C40.6815,83.6657 34.7555,90.2217 34.7555,98.3097 L34.7555,144.4847 L21.1415,144.4847 L21.1415,75.6137 C21.5905,75.6497 22.0385,75.6497 22.4875,75.6497 C30.2395,75.6497 37.0935,71.2667 41.1305,64.6037 C45.1665,71.2667 52.0215,75.6497 59.7735,75.6497 C67.5255,75.6497 74.3475,71.2667 78.4165,64.6037 C82.4525,71.2667 89.3075,75.6497 97.0275,75.6497 C104.7795,75.6497 111.6025,71.2667 115.6385,64.6037 C119.6745,71.2667 126.5295,75.6497 134.2815,75.6497 C134.7295,75.6497 135.1465,75.6137 135.5945,75.6137 L135.5945,144.4497 Z M64.5775,144.4497 L42.4755,144.4497 L42.4755,98.3097 C42.4755,94.9597 44.9095,92.2167 47.9525,92.2167 L59.1325,92.2167 C62.1435,92.2167 64.6105,94.9247 64.6105,98.3097 L64.6105,144.4497 L64.5775,144.4497 Z M7.9445,53.5237 L37.0615,53.5237 C35.8445,61.2187 29.7585,67.0627 22.4875,67.0627 C15.2155,67.0977 9.1615,61.2187 7.9445,53.5237 L7.9445,53.5237 Z M74.3165,53.5237 C73.0985,61.2187 67.0445,67.0627 59.7735,67.0627 C52.5015,67.0627 46.4475,61.2187 45.1985,53.5237 L74.3165,53.5237 Z M111.5705,53.5237 C110.3525,61.2187 104.2985,67.0627 97.0275,67.0627 C89.7565,67.0627 83.7015,61.2187 82.4845,53.5237 L111.5705,53.5237 Z M29.3745,9.3427 L127.3625,9.3427 L145.5895,45.0077 L11.1795,45.0077 L29.3745,9.3427 Z M156.7685,50.6377 C156.7685,49.8887 156.6085,49.1767 156.2565,48.5357 L132.9365,2.9297 C132.2635,1.6117 130.9825,0.7567 129.6045,0.7567 L27.1315,0.7567 C25.7545,0.7567 24.4725,1.5767 23.8005,2.9297 L0.5125,48.5357 C0.1925,49.1767 0.0005,49.8887 0.0005,50.6377 C0.0005,60.8637 5.5415,69.6277 13.4535,73.5117 L13.4535,148.7247 C13.4535,151.0767 15.1835,152.9997 17.2975,152.9997 L38.5355,152.9997 L38.6315,152.9997 L68.4225,152.9997 L68.5185,152.9997 L139.4385,152.9997 C141.5525,152.9997 143.2825,151.0767 143.2825,148.7247 L143.2825,74.0457 C143.2825,73.8677 143.2825,73.7247 143.2505,73.5827 C151.1945,69.6997 156.7685,60.8987 156.7685,50.6377 L156.7685,50.6377 Z" id="Fill-5" fill="#6D6E6D" mask="url(#mask-2)"></path>
                </g>
            </g>
        </g>
    </g>
</svg>