<?xml version="1.0" encoding="UTF-8"?>
<svg width="147px" height="172px" viewBox="0 0 147 172" version="1.1" xmlns="http://www.w3.org/2000/svg" xmlns:xlink="http://www.w3.org/1999/xlink">
    <title>moru mall</title>
    <defs>
        <polygon id="path-1" points="0.311072727 0.99 8.78661818 0.99 8.78661818 2.41250625 0.311072727 2.41250625"></polygon>
    </defs>
    <g id="Page-1" stroke="none" stroke-width="1" fill="none" fill-rule="evenodd">
        <g id="Library" transform="translate(-2176.000000, -960.000000)">
            <g id="moru-mall" transform="translate(2176.000000, 960.000000)">
                <g id="Group-3" transform="translate(60.000000, 0.000000)">
                    <mask id="mask-2" fill="white">
                        <use xlink:href="#path-1"></use>
                    </mask>
                    <g id="Clip-2"></g>
                    <path d="M8.78661818,0.9904125 L8.7768,1.7721 L0.320890909,1.7721 C0.3168,1.512225 0.314345455,1.2502875 0.311072727,0.9904125 L8.78661818,0.9904125 Z" id="Fill-1" fill="#666666" mask="url(#mask-2)"></path>
                </g>
                <path d="M16.7939959,57.3345401 C18.4788835,57.3345401 19.9596256,57.333428 21.4398175,57.3356526 C21.729803,57.3356526 21.9642126,57.3384324 21.9047848,56.9058265 C21.6665234,55.1831874 21.457976,53.4566559 21.2301695,51.7323486 C21.2054079,51.5455163 21.2461269,51.2980746 20.9930086,51.2241201 C20.7019226,51.1390446 20.5720619,51.3525673 20.4416509,51.5594175 C19.265201,53.423849 18.0882008,55.2866124 16.7939959,57.3345401 M130.195403,57.333428 C129.422842,56.1101207 128.757581,55.0491796 128.084066,53.993799 C127.497492,53.0740944 127.093603,51.7896217 126.256662,51.3458947 C125.373499,50.8777017 124.071591,51.2496983 122.956219,51.1846406 C122.373497,51.1507216 122.111024,51.3392222 121.982264,51.9113964 C121.630099,53.4772297 121.263628,55.0413949 120.837729,56.5877666 C120.663848,57.219438 120.825623,57.3478853 121.423753,57.3434369 C124.272434,57.3211949 127.121116,57.333428 130.195403,57.333428 M90.7733259,25.7754356 C86.3206446,15.0609317 72.2280073,11.4060231 62.9765329,17.8500724 C63.5333932,17.811705 63.9554405,17.7978038 64.3741862,17.7516517 C65.9231603,17.5803887 67.4688328,17.3679781 69.0200078,17.2272977 C71.0251451,17.0454698 72.2896361,18.028564 72.5510083,20.0308957 C73.2988079,25.768763 74.0367028,31.5082985 74.6986622,37.2567308 C74.8114649,38.2348206 75.027716,38.3938505 75.9692061,38.2181391 C77.1561109,37.9973878 77.7151722,37.4852668 77.9759941,36.2536188 C78.6418053,33.1124992 79.4671911,30.0052987 80.2441543,26.8886453 C80.7663484,24.7923414 82.1706048,23.9193448 84.2731376,24.3680761 C86.385575,24.8195878 88.4963616,25.2816643 90.7733259,25.7754356 M69.5196414,57.3317599 C76.3730949,57.3317599 83.2270986,57.3200828 90.0811024,57.3467732 C90.8756738,57.3501095 91.1359454,57.2205501 90.9064882,56.3481096 C89.7091285,51.7879535 88.5348796,47.2211249 87.4277621,42.6376148 C87.2076593,41.7262509 86.8742034,41.6189335 86.0515689,41.8096582 C79.1915123,43.3977335 72.3215511,44.942437 65.4554416,46.504378 C59.4141678,47.8783746 53.3745447,49.2584876 47.3332708,50.6313721 C46.7472469,50.7648238 46.2674226,50.8215407 46.5579584,51.7201156 C47.040534,53.2114384 47.3860955,54.7522496 47.7129483,56.2886123 C47.883528,57.0898786 48.2004762,57.3623425 49.0599779,57.3568652 C55.8793155,57.311186 62.6997536,57.3317599 69.5196414,57.3317599 M105.759031,57.3312038 C108.336986,57.3312038 110.916041,57.3050695 113.493446,57.3484413 C114.195574,57.3606744 114.4641,57.1688376 114.63688,56.4498665 C116.035084,50.6352644 117.471255,44.8301152 118.945945,39.0349748 C119.146789,38.2442734 119.035086,37.9729216 118.221256,37.8027707 C114.610468,37.0471004 111.013987,36.2191438 107.410903,35.423438 C100.371462,33.8681695 93.3287204,32.3284705 86.2953328,30.7453996 C85.6983037,30.6108358 85.5453322,30.7581887 85.4242756,31.2931076 C85.1067772,32.6921264 84.766168,34.0866967 84.3826388,35.4679219 C84.1961016,36.1401848 84.4178552,36.2636277 85.0071807,36.1251715 C86.1935352,35.8465911 87.3771385,35.5507731 88.5722971,35.3144524 C90.5708313,34.9191017 91.9360194,35.811004 92.440055,37.7988784 C94.0115896,43.9910376 95.5946796,50.1804165 97.1353998,56.3803604 C97.3274395,57.1549363 97.6476892,57.3740196 98.4318057,57.3540018 C100.872747,57.2917243 103.316439,57.3312038 105.759031,57.3312038 M41.7289012,57.3312038 C41.067492,54.7088778 40.4275429,52.2305684 39.8206092,49.7444743 C39.3215259,47.7037752 40.166721,46.3130973 42.1960695,45.8482405 C50.6408669,43.9143028 59.0884155,41.9925982 67.5359641,40.0708937 C68.9468236,39.7494975 68.9248133,39.7633987 68.7360751,38.2926497 C68.136845,33.6418577 67.5354139,28.9910657 66.99231,24.3336011 C66.9009673,23.5523526 66.7281866,23.2893415 65.9005997,23.386094 C60.1460099,24.0572449 54.3848169,24.673903 48.6274758,25.3178075 C40.8512409,26.1880238 33.0783076,27.0849305 25.298221,27.9162234 C24.442571,28.0079715 24.4304654,28.3176906 24.5196071,29.0127516 C25.2624543,34.7839819 25.9711856,40.5591045 26.6881707,46.3336711 C27.110218,49.730017 27.5284135,53.126919 27.9526618,56.5232649 C28.0082377,56.9658798 28.0412532,57.3523337 28.7043131,57.3473773 C33.0095255,57.3150784 37.3147379,57.3312038 41.7289012,57.3312038 M73.4969005,164.369482 C94.9052073,164.369482 116.313514,164.363365 137.722371,164.390611 C138.658909,164.391724 138.913678,164.163744 138.851499,163.206228 C138.579122,158.968024 138.389283,154.72426 138.158175,150.483275 C137.588109,140.052356 137.007587,129.622549 136.440822,119.192186 C136.060595,112.180967 135.704578,105.16808 135.32325,98.1568612 C134.74493,87.5207601 134.136345,76.8868833 133.598744,66.2491141 C133.545369,65.1792763 133.255934,64.9323897 132.223101,64.9323897 C93.0706498,64.9607491 53.9181988,64.9563007 14.7651976,64.9563007 C14.5957183,64.9563007 14.4229376,64.9774306 14.2573102,64.9524084 C13.6470749,64.8606603 13.4550352,65.0992052 13.4258715,65.7331009 C13.2497892,69.564833 13.0252843,73.3943409 12.8178373,77.224961 C12.2769345,87.211597 11.7360316,97.1982331 11.1945786,107.184869 C10.6514747,117.20598 10.1078206,127.226535 9.56471671,137.247646 C9.09754834,145.865846 8.64963898,154.485715 8.13955055,163.10169 C8.07682123,164.160963 8.33764314,164.396172 9.3732272,164.394513 C30.7474181,164.361697 52.1221593,164.369482 73.4969005,164.369482 M70.6487692,9 L76.3356774,9 C84.956557,10.1426802 91.5871564,14.3136021 95.8191845,22.1116302 C96.5867933,23.5256622 97.155209,25.0303302 97.535987,26.5972757 C97.6658477,27.1305265 97.9046593,27.3818605 98.4598689,27.5030792 C106.563507,29.2752066 114.659441,31.0773607 122.759777,32.8645015 C125.571592,33.4850519 126.301233,34.6622072 125.597454,37.5025044 C125.178708,39.1940047 124.795179,40.89607 124.318656,42.570889 C124.0925,43.3643706 124.162933,43.6813184 125.078011,43.6246014 C126.227498,43.5523151 127.384139,43.6034716 128.537478,43.6079199 C129.998961,43.6140365 131.175411,44.1995558 131.970533,45.4489974 C134.849478,49.9685619 137.710266,54.4998034 140.581508,59.0238163 C140.994201,59.6738373 141.2066,60.3794632 141.247319,61.1473666 C141.601134,67.7832527 141.9555,74.4180267 142.315368,81.0528008 C142.779235,89.6031628 143.253557,98.1524128 143.713021,106.702775 C144.349669,118.536049 144.970359,130.370991 145.608107,142.204265 C146.060969,150.617283 146.535841,159.029189 146.988703,167.442763 C147.147727,170.39705 145.623515,172 142.693945,172 C96.5543282,172 50.4152614,172 4.27564445,172 C1.39834952,172 -0.14402143,170.398162 0.0106008444,167.518942 C0.592222711,156.677659 1.19365384,145.837488 1.77747673,134.996205 C2.22428558,126.6855 2.64688312,118.373127 3.09644326,110.062422 C3.65880612,99.6659776 4.24042799,89.2706457 4.80719291,78.8742016 C5.12194003,73.0940746 5.43338561,67.3139475 5.72172039,61.5327084 C5.77454508,60.4739915 6.06453063,59.5481703 6.64009966,58.6523757 C9.31324917,54.4892385 11.9908007,50.3277694 14.5731578,46.1068032 C15.6500112,44.3463527 17.0449132,43.4199755 19.0869177,43.6184849 C19.9794349,43.7057845 20.2446588,43.4666836 20.1169992,42.5130599 C19.3802048,36.9809306 18.7050392,31.4410166 18.0095141,25.9033268 C17.8086702,24.3030184 18.8602117,22.8917666 20.5577552,22.6526657 C22.6382777,22.3607401 24.7336571,22.1755758 26.8224335,21.9414793 C34.501823,21.0790476 42.1729587,20.1270921 49.8661047,19.4086771 C52.0715356,19.202939 53.5390716,18.4038969 55.0407235,16.7440913 C59.1962659,12.1511284 64.5365121,9.71063034 70.6487692,9" id="Fill-4" fill="#666666"></path>
                <path d="M97.7285988,78.7451705 C98.0763384,77.1637499 97.7077563,76.1398963 96.600913,75.4602342 C95.497909,74.7823164 94.0433259,74.982901 93.1586191,75.9352418 C92.4192609,76.7311848 92.2525214,77.702712 92.7050218,78.577726 C94.3696747,77.2480535 95.6163818,77.2782866 97.7285988,78.7451705 M54.3488953,78.8271485 C54.7772623,77.5172439 54.5183773,76.4805994 53.6040523,75.7038428 C52.700697,74.9358073 51.3810413,74.8462709 50.3806041,75.4852346 C49.4234972,76.0957095 48.9556392,77.1393309 49.1366394,78.1980687 C49.2128788,78.6405177 49.2468849,78.8602886 49.7421672,78.4899338 C51.4452141,77.2154949 52.5959363,77.3137523 54.3488953,78.8271485 M92.1510516,92.0634067 C92.1510516,90.4500088 92.1126576,88.8348667 92.1664092,87.2237944 C92.1943819,86.3830833 91.9980242,85.9441228 91.1977841,85.5574887 C86.5318196,83.3039643 84.9000758,77.3439853 87.7955297,73.0276372 C90.0349953,69.6886303 93.2178555,68.4810529 96.9590739,69.2345533 C100.557138,69.9589835 102.960052,72.2404153 103.808558,76.0933839 C104.646644,79.8969331 102.669903,83.9109508 99.1146211,85.5871403 C98.3297387,85.9574951 98.1904234,86.3877345 98.1926173,87.1790263 C98.2041355,90.7988516 98.3439993,94.4326306 98.1065051,98.036758 C97.5569229,106.370612 93.5815013,112.609084 87.000226,116.958572 C75.2045009,124.75579 59.2112176,120.892937 52.0693904,108.620067 C49.8913552,104.876984 48.8212603,100.787383 48.8004179,96.3937085 C48.7856088,93.2023784 48.7943846,90.0110483 48.8009664,86.8197182 C48.8020633,86.3400594 48.77793,86.0150542 48.2409629,85.7458638 C43.7998773,83.5167584 41.9202181,78.9364526 43.6194256,74.6276628 C45.3899362,70.1368933 50.3619556,67.8909272 54.8798291,69.5409536 C58.2628865,70.7764384 60.484252,73.854976 60.6641552,77.5579422 C60.8254099,80.8690417 58.8069839,84.1574663 55.6137025,85.6650486 C55.0301141,85.9406344 54.827723,86.2377321 54.8370472,86.9173942 C54.885314,90.4657067 54.6308168,94.0396011 54.9412595,97.5588434 C55.6718419,105.843278 60.1249942,111.218364 67.4050397,113.866662 C76.4418837,117.154506 86.442965,112.797459 90.4787199,104.038017 C91.5921451,101.62228 92.153794,99.0606116 92.1510516,96.3663825 C92.1494062,94.9320572 92.1510516,93.4977319 92.1510516,92.0634067" id="Fill-6" fill="#666666"></path>
            </g>
        </g>
    </g>
</svg>