<?xml version="1.0" encoding="UTF-8"?>
<svg width="157px" height="157px" viewBox="0 0 157 157" version="1.1" xmlns="http://www.w3.org/2000/svg" xmlns:xlink="http://www.w3.org/1999/xlink">
    <title>Group 14</title>
    <defs>
        <polygon id="path-1" points="0 157 157 157 157 0 0 0"></polygon>
    </defs>
    <g id="Page-1" stroke="none" stroke-width="1" fill="none" fill-rule="evenodd">
        <g id="Library" transform="translate(-71.000000, -1264.000000)">
            <g id="Group-14" transform="translate(71.000000, 1264.000000)">
                <path d="M33,121 C30.23875,121 28,118.761562 28,116 C28,113.238438 30.23875,111 33,111 C35.76125,111 38,113.238438 38,116 C37.996875,118.76 35.76,120.996562 33,121 M33,106 C27.4771875,106 23,110.477187 23,116 C23,121.522813 27.4771875,126 33,126 C38.5228125,126 43,121.522813 43,116 C42.99375,110.479687 38.5203125,106.00625 33,106" id="Fill-1" fill="#C83548"></path>
                <path d="M124,121 C121.238438,121 119,118.761562 119,116 C119,113.238438 121.238438,111 124,111 C126.761562,111 129,113.238438 129,116 C128.996562,118.76 126.76,120.996562 124,121 M124,106 C118.477187,106 114,110.477187 114,116 C114,121.522813 118.477187,126 124,126 C129.522812,126 134,121.522813 134,116 C133.99375,110.479687 129.520313,106.00625 124,106" id="Fill-3" fill="#C83548"></path>
                <mask id="mask-2" fill="white">
                    <use xlink:href="#path-1"></use>
                </mask>
                <g id="Clip-6"></g>
                <polygon id="Fill-5" fill="#C83548" mask="url(#mask-2)" points="51 114 110 114 110 110 51 110"></polygon>
                <polygon id="Fill-7" fill="#C83548" mask="url(#mask-2)" points="51 121 110 121 110 117 51 117"></polygon>
                <path d="M151.766667,78.5 L143.916667,78.5 L143.916667,52.3333333 L151.766667,52.3333333 L151.769938,78.5 L151.766667,78.5 Z M136.066667,130.833333 L20.9333333,130.833333 C19.4889333,130.831698 18.3183021,129.661067 18.3166667,128.216667 L18.3166667,96.8166667 L43.3179354,96.8166667 L42.5384958,97.6827833 L46.4281708,101.182575 L50.3587313,96.8166667 L106.641269,96.8166667 L110.571829,101.183883 L114.461504,97.6840917 L113.681738,96.8166667 L138.683333,96.8166667 L138.683333,128.216667 C138.681698,129.661067 137.511067,130.831698 136.066667,130.833333 L136.066667,130.833333 Z M23.55,151.766667 L39.25,151.766667 L39.25,136.066667 L23.55,136.066667 L23.55,151.766667 Z M5.23333333,78.5 L13.0833333,78.5 L13.0833333,52.3333333 L5.23333333,52.3333333 L5.23333333,78.5 Z M81.1166667,28.7833333 L138.683333,28.7833333 L138.683333,91.5833333 L108.972065,91.5833333 L91.5833333,72.2625208 L91.5833333,60.1833333 L86.35,60.1833333 L86.35,86.35 L91.5833333,86.35 L91.5833333,80.0853729 L101.931269,91.5833333 L81.1166667,91.5833333 L81.1166667,28.7833333 Z M18.3166667,18.3166667 C18.3248438,11.0943396 24.1776729,5.24151042 31.4,5.23333333 L125.6,5.23333333 C132.822327,5.24151042 138.675483,11.0943396 138.683333,18.3166667 L138.683333,23.55 L18.3166667,23.55 L18.3166667,18.3166667 Z M151.766667,47.1 L143.916667,47.1 L143.916667,18.3166667 C143.905219,8.2052125 135.711127,0.0114479167 125.6,0 L31.4,0 C21.2885458,0.0114479167 13.0947812,8.2052125 13.0833333,18.3166667 L13.0833333,28.7833333 L75.8833333,28.7833333 L75.8833333,91.5833333 L55.0687312,91.5833333 L65.4166667,80.0853729 L65.4166667,86.35 L70.65,86.35 L70.65,60.1833333 L65.4166667,60.1833333 L65.4166667,72.2625208 L48.0279354,91.5833333 L18.3166667,91.5833333 L18.3166667,34.0166667 L13.0833333,34.0166667 L13.0833333,47.1 L5.23333333,47.1 C2.34453333,47.1032708 0.00327083333,49.4445333 0,52.3333333 L0,78.5 C0.00327083333,81.3888 2.34453333,83.7297354 5.23333333,83.7333333 L13.0833333,83.7333333 L13.0833333,128.216667 C13.0875854,131.541796 15.1828812,134.504844 18.3166667,135.6166 L18.3166667,151.766667 C18.3199375,154.655467 20.6612,156.996402 23.55,157 L39.25,157 C42.1388,156.996402 44.4800625,154.655467 44.4833333,151.766667 L44.4833333,136.066667 L133.45,136.066667 L133.45,151.766667 L117.75,151.766667 L117.75,141.3 L112.516667,141.3 L112.516667,151.766667 C112.520265,154.655467 114.8612,156.996402 117.75,157 L133.45,157 C136.3388,156.996402 138.679735,154.655467 138.683333,151.766667 L138.683333,135.6166 C141.816792,134.504844 143.912415,131.541796 143.916667,128.216667 L143.916667,83.7333333 L151.766667,83.7333333 C154.655467,83.7297354 156.996402,81.3888 157,78.5 L157,52.3333333 C156.996402,49.4445333 154.655467,47.1032708 151.766667,47.1 L151.766667,47.1 Z" id="Fill-8" fill="#6D6D6D" mask="url(#mask-2)"></path>
                <polygon id="Fill-9" fill="#6D6D6D" mask="url(#mask-2)" points="79 16 83 16 83 12 79 12"></polygon>
                <polygon id="Fill-10" fill="#6D6D6D" mask="url(#mask-2)" points="86 16 90 16 90 12 86 12"></polygon>
                <polygon id="Fill-11" fill="#6D6D6D" mask="url(#mask-2)" points="67 16 71 16 71 12 67 12"></polygon>
                <polygon id="Fill-12" fill="#6D6D6D" mask="url(#mask-2)" points="31 16 35 16 35 12 31 12"></polygon>
                <polygon id="Fill-13" fill="#6D6D6D" mask="url(#mask-2)" points="126 16 130 16 130 12 126 12"></polygon>
            </g>
        </g>
    </g>
</svg>