<?xml version="1.0" encoding="UTF-8"?>
<svg width="171px" height="171px" viewBox="0 0 171 171" version="1.1" xmlns="http://www.w3.org/2000/svg" xmlns:xlink="http://www.w3.org/1999/xlink">
    <title>insurance</title>
    <defs>
        <polygon id="path-1" points="0.521772595 0.767705108 91.999804 0.767705108 91.999804 114.894132 0.521772595 114.894132"></polygon>
    </defs>
    <g id="Page-1" stroke="none" stroke-width="1" fill="none" fill-rule="evenodd">
        <g id="Library" transform="translate(-1267.000000, -355.000000)">
            <g id="insurance" transform="translate(1267.000000, 355.000000)">
                <g id="Group-3" transform="translate(40.000000, 0.000000)">
                    <mask id="mask-2" fill="white">
                        <use xlink:href="#path-1"></use>
                    </mask>
                    <g id="Clip-2"></g>
                    <path d="M86.2833885,67.1536225 C86.2710819,75.3895629 82.3052801,83.1188179 75.6197199,87.9430768 L46.2623266,109.079534 L16.9018566,87.9430768 C10.2162964,83.1188179 6.2504947,75.3895629 6.2381881,67.1536225 L6.2381881,24.220482 L46.2623266,6.73523046 L86.2833885,24.220482 L86.2833885,67.1536225 Z M90.28611,19.740155 L47.4037637,1.00507953 C46.6745977,0.685714203 45.8469789,0.685714203 45.1178128,1.00507953 L2.23546659,19.740155 C1.19555892,20.1946364 0.521772595,21.2202904 0.521772595,22.3534232 L0.521772595,67.1536225 C0.537155845,77.2197719 5.38287943,86.6686863 13.5575382,92.5677324 L43.1949067,113.903793 C45.0224367,115.224246 47.4991399,115.224246 49.3266699,113.903793 L78.9640384,92.5708032 C87.1386971,86.6717572 91.9874974,77.2228427 91.999804,67.1536225 L91.999804,22.3534232 C91.999804,21.2202904 91.3260176,20.1946364 90.28611,19.740155 L90.28611,19.740155 Z" id="Fill-1" fill="#6C6D6D" mask="url(#mask-2)"></path>
                </g>
                <path d="M114.33435,30.4243079 L114.33435,65.8336802 C114.325202,70.3951161 112.144933,74.6775932 108.470493,77.3476273 L86,93.6406594 L63.5325561,77.3476273 C59.8550673,74.6775932 57.6747982,70.3951161 57.6686996,65.8336802 L57.6686996,30.4243079 L86,17.9569962 L114.33435,30.4243079 Z M84.8656502,12.2368084 L53.7015247,25.9548364 C52.6678027,26.4085276 52,27.4323983 52,28.5635608 L52,65.8336802 C52.009148,72.2252084 55.064574,78.2243549 60.2179372,81.9673073 L84.3442152,99.4620081 C85.3321973,100.179331 86.6678027,100.179331 87.6588341,99.4620081 L111.785112,81.9673073 C116.938475,78.2243549 119.990852,72.2252084 120,65.8336802 L120,28.5635608 C120,27.4323983 119.332197,26.4085276 118.301525,25.9548364 L87.1343498,12.2368084 C86.4116592,11.9210639 85.5913901,11.9210639 84.8656502,12.2368084 L84.8656502,12.2368084 Z" id="Fill-4" fill="#C8354A"></path>
                <path d="M60.5815519,116.502327 C63.9076236,120.821126 65.6704723,126.134687 65.5844797,131.579864 L65.5844797,136.871999 L41.9856479,136.871999 L22.1889183,117.138975 C20.0851703,115.045383 18.3806737,112.593676 17.1522077,109.897105 L5.96702476,85.3769782 C5.49099419,84.3301821 5.58005797,83.1150416 6.20350446,82.1478265 C6.83002212,81.1806114 7.90185871,80.5990581 9.05661675,80.5959973 C10.4140717,80.5959973 11.6394665,81.4040504 12.1707781,82.6467381 L18.5557301,97.4855316 C20.2510132,101.443155 22.6956605,105.039604 25.7514697,108.078985 L38.7885651,121.072112 C39.5041465,121.812828 40.5636985,122.109726 41.5648983,121.849557 C42.5599557,121.589389 43.3400316,120.811944 43.6010806,119.817181 C43.8621297,118.822419 43.5642267,117.76644 42.8240759,117.053272 L29.7869805,104.057085 C28.475593,102.753181 27.2993368,101.326845 26.2704966,99.7903195 C29.0099757,97.6906057 32.8427897,97.7548827 35.511632,99.9433598 C40.8462456,104.825347 47.013145,108.715633 53.7174981,111.43363 C56.450835,112.425332 58.8371302,114.185296 60.5815519,116.502327 L60.5815519,116.502327 Z M39.9003268,165.31302 L71.2907043,165.31302 L71.2907043,142.558979 L39.9003268,142.558979 L39.9003268,165.31302 Z M23.5924407,94.779778 L17.419399,80.4062272 C16.1080116,77.4433658 13.3071091,75.4018074 10.0762435,75.0528753 C6.84537795,74.7039433 3.67286451,76.0996714 1.75338638,78.7166616 C-0.163020576,81.330591 -0.537702706,84.7648167 0.773684748,87.7307389 L11.9588677,112.247805 C13.4668097,115.56572 15.5644154,118.586737 18.1534075,121.160876 L35.7419694,138.69318 C34.7499831,139.736915 34.1971734,141.1204 34.1941023,142.558979 L34.1941023,165.31302 C34.1941023,168.453408 36.7493115,171 39.9003268,171 L71.2907043,171 C74.4447907,171 77,168.453408 77,165.31302 L77,142.558979 C77,139.418591 74.4447907,136.871999 71.2907043,136.871999 L71.2907043,131.579864 C71.3797681,124.843027 69.1746716,118.277595 65.0378123,112.94873 C62.611592,109.771612 59.3039473,107.368878 55.5264143,106.037427 C49.5130733,103.518383 43.9880474,99.9862111 39.1878165,95.5878311 C34.7315561,91.9301665 28.4018851,91.6026601 23.5924407,94.779778 L23.5924407,94.779778 Z" id="Fill-6" fill="#6C6D6D"></path>
                <path d="M62.3333333,151 L59.6666667,151 C58.1941155,151 57,152.34338 57,154 C57,155.65662 58.1941155,157 59.6666667,157 L62.3333333,157 C63.8058845,157 65,155.65662 65,154 C65,152.34338 63.8058845,151 62.3333333,151" id="Fill-8" fill="#6C6D6D"></path>
                <path d="M128.984497,136.918469 L105.403719,136.918469 L105.403719,131.633539 C105.320861,126.198834 107.079292,120.892508 110.402819,116.57959 C112.145906,114.26877 114.52117,112.508146 117.246278,111.514738 C123.948571,108.800442 130.110753,104.915453 135.441285,100.04317 C138.108086,97.8362759 141.947174,97.7629166 144.696833,99.8628279 C143.665711,101.406431 142.481148,102.843051 141.161558,104.151293 L128.137504,117.126728 C127.057281,118.242402 127.072625,120.015252 128.171261,121.109529 C129.272966,122.206863 131.04981,122.21909 132.169928,121.143152 L145.193981,108.167718 C148.250521,105.132475 150.693299,101.540923 152.384216,97.5886881 L158.764284,82.767043 C159.298257,81.5260473 160.522715,80.7221511 161.879131,80.7221511 C163.029937,80.7252078 164.104023,81.3090259 164.726992,82.2718674 C165.353031,83.2377655 165.442026,84.4512514 164.963291,85.4966221 L153.789734,109.983361 C152.562207,112.676261 150.855946,115.127686 148.756876,117.215371 L128.984497,136.918469 Z M99.7018593,165.320764 L131.068223,165.320764 L131.068223,142.597705 L99.7018593,142.597705 L99.7018593,165.320764 Z M158.991376,112.327804 L170.164933,87.8441213 C171.539763,84.8761243 171.199124,81.3976685 169.274977,78.747562 C167.350829,76.1005121 164.143917,74.6883447 160.884835,75.0581981 C157.622684,75.4249948 154.814718,77.5187929 153.535022,80.5295828 L147.382047,94.8285426 C142.557869,91.6740906 136.229971,92.0194909 131.783257,95.681345 C126.986698,100.073736 121.46283,103.604155 115.457158,106.116712 C111.679446,107.446351 108.377401,109.845813 105.953037,113.021661 C101.816273,118.343271 99.6128637,124.902819 99.7018593,131.633539 L99.7018593,136.918469 C96.5532545,136.918469 94,139.461593 94,142.597705 L94,165.320764 C94,168.456876 96.5532545,171 99.7018593,171 L131.068223,171 C134.219897,171 136.773151,168.456876 136.773151,165.320764 L136.773151,142.597705 C136.770082,141.164141 136.214627,139.78254 135.226468,138.73717 L152.798506,121.228738 C155.385518,118.658104 157.481519,115.644258 158.991376,112.327804 L158.991376,112.327804 Z" id="Fill-10" fill="#6C6D6D"></path>
                <path d="M111.333333,151 L108.666667,151 C107.194116,151 106,152.34338 106,154 C106,155.65662 107.194116,157 108.666667,157 L111.333333,157 C112.805884,157 114,155.65662 114,154 C114,152.34338 112.805884,151 111.333333,151" id="Fill-12" fill="#6C6D6D"></path>
                <path d="M70.5722182,60.2854072 C69.3084858,59.3383008 67.5189669,59.5935275 66.5719363,60.8573611 C65.6249057,62.1181196 65.880112,63.9108567 67.1438444,64.8579632 L78.5727821,73.4280461 C79.064746,73.8001236 79.6674019,74 80.2854316,74 C80.4453199,74 80.6082829,73.9876999 80.7681712,73.9600247 C81.5430144,73.8277988 82.2286892,73.3819208 82.6622324,72.7269414 L105.520108,38.4404594 C106.085866,37.5917537 106.156586,36.5062713 105.704594,35.5899151 C105.249528,34.6735589 104.345544,34.0708549 103.324719,34.0062794 C102.306968,33.938629 101.32919,34.4214072 100.763431,35.270113 L79.5843829,67.0443029 L70.5722182,60.2854072 Z" id="Fill-14" fill="#C8354A"></path>
            </g>
        </g>
    </g>
</svg>