<svg width="42" height="42" viewBox="0 0 42 42" xmlns="http://www.w3.org/2000/svg">
    <g stroke-width="2" fill="none" fill-rule="evenodd">
        <path d="M37.907 25h-9.814A3.093 3.093 0 0 0 25 28.093v9.814A3.093 3.093 0 0 0 28.093 41h9.814A3.093 3.093 0 0 0 41 37.907v-9.814A3.093 3.093 0 0 0 37.907 25zm-24 0H4.093A3.093 3.093 0 0 0 1 28.093v9.814A3.093 3.093 0 0 0 4.093 41h9.814A3.093 3.093 0 0 0 17 37.907v-9.814A3.093 3.093 0 0 0 13.907 25zm0-24H4.093A3.093 3.093 0 0 0 1 4.093v9.814A3.093 3.093 0 0 0 4.093 17h9.814A3.093 3.093 0 0 0 17 13.907V4.093A3.093 3.093 0 0 0 13.907 1z" stroke="#666"/>
        <path d="M31.092 1h3.662A6.246 6.246 0 0 1 41 7.246v3.662a6.246 6.246 0 0 1-6.246 6.246h-3.662a6.246 6.246 0 0 1-6.246-6.246V7.246A6.246 6.246 0 0 1 31.092 1z" stroke="#C71F3C"/>
    </g>
</svg>
