<?xml version="1.0" encoding="UTF-8"?>
<svg width="207px" height="171px" viewBox="0 0 207 171" version="1.1" xmlns="http://www.w3.org/2000/svg" xmlns:xlink="http://www.w3.org/1999/xlink">
    <title>airlines</title>
    <defs>
        <polygon id="path-1" points="0.254988793 0.543416213 137.923333 0.543416213 137.923333 135.422059 0.254988793 135.422059"></polygon>
        <polygon id="path-3" points="0 0.501196493 76.3459914 0.501196493 76.3459914 59.9711944 0 59.9711944"></polygon>
    </defs>
    <g id="Page-1" stroke="none" stroke-width="1" fill="none" fill-rule="evenodd">
        <g id="Library" transform="translate(-934.000000, -362.000000)">
            <g id="airlines" transform="translate(934.000000, 362.000000)">
                <g id="Group-3" transform="translate(69.000000, 0.000000)">
                    <mask id="mask-2" fill="white">
                        <use xlink:href="#path-1"></use>
                    </mask>
                    <g id="Clip-2"></g>
                    <path d="M131.971505,11.1594488 C131.119505,14.0072537 129.696124,16.5736683 128.276124,18.8553024 C126.572124,21.7031073 124.012743,24.5543024 120.601362,27.4054976 C116.053981,31.3958146 111.2226,35.3861317 106.391219,39.3730585 L100.704457,44.2177171 C97.5804571,46.4993512 96.1604571,49.9201073 96.7284571,53.9104244 C97.2964571,57.9007415 97.8644571,61.8910585 98.4324571,66.1661561 L105.255219,116.043424 C105.539219,118.891229 105.539219,120.888083 104.971219,122.596766 C104.115838,125.15979 102.411838,127.156644 99.5718381,128.580546 C99.0004571,128.865327 98.4324571,129.150107 97.5804571,129.438278 C95.8730762,130.007839 95.3050762,129.723059 94.7370762,128.295766 C93.8850762,126.587083 93.3170762,124.590229 92.4616952,122.596766 L79.9589333,88.9655463 C78.5355524,85.2600098 76.5475524,81.8392537 74.5595524,78.4184976 L72.8521714,75.5706927 L70.2927905,71.8651561 L61.4820286,78.4184976 C53.5232667,84.4056683 45.5678857,90.6776195 37.8931238,96.6614 C35.9017429,98.0853024 36.1857429,99.7973756 36.4697429,100.936498 C37.0411238,103.499522 37.8931238,106.065937 38.4611238,108.628961 L39.0291238,111.195376 C39.5971238,113.47701 39.5971238,115.470473 38.7451238,117.179156 C37.8931238,118.891229 36.7537429,120.030351 34.7657429,120.599912 C34.7657429,120.599912 34.1977429,120.599912 33.3457429,120.030351 C32.7777429,119.745571 32.2097429,119.17601 31.9257429,118.606449 C25.386981,110.341034 19.132219,102.3604 12.8808381,94.0949854 L7.48145714,87.2568634 C6.91345714,86.6839122 6.62945714,86.1143512 6.05807619,85.2600098 C5.77407619,84.9752293 5.77407619,84.6904488 5.77407619,84.6904488 L6.34207619,84.1208878 C7.48145714,82.9817659 8.90145714,81.5544732 10.0408381,80.7001317 C10.8894571,79.8457902 12.0288381,79.8457902 13.1648381,80.4153512 C15.724219,81.5544732 17.996219,82.6969854 20.5556,84.1208878 L23.682981,85.5447902 C24.250981,85.8295707 24.818981,86.1143512 25.386981,86.3991317 C26.8103619,87.2568634 28.5143619,86.9720829 29.9343619,85.8295707 C32.2097429,83.5513268 34.4817429,81.5544732 36.7537429,79.2762293 L56.3666476,60.7485463 L58.6420286,58.4703024 L57.2220286,56.476839 C56.9346476,55.9038878 56.6506476,55.6191073 56.3666476,55.0495463 C55.5146476,53.9104244 54.9466476,52.7679122 54.0946476,51.9135707 C50.9672667,48.2114244 47.2718857,45.3602293 43.2925048,42.7938146 C33.6297429,36.2404732 23.682981,29.398961 14.0168381,22.5574488 C13.1648381,21.9878878 12.3128381,21.4183268 11.4574571,20.5639854 C10.6088381,19.7096439 10.6088381,19.4248634 11.1734571,18.8553024 C12.5968381,16.2888878 14.8688381,14.0072537 17.428219,12.0137902 C17.996219,11.4442293 18.8516,11.1594488 20.8396,11.7290098 C22.8276,12.2985707 24.534981,12.8681317 25.954981,13.4376927 L79.1035524,33.389278 C80.5269333,33.958839 81.9469333,34.2436195 83.0863143,34.5317902 C86.2103143,35.1013512 89.3376952,34.2436195 91.8936952,31.9653756 C93.3170762,30.5380829 94.7370762,29.398961 96.1604571,27.9750585 C98.4324571,25.9815951 100.704457,23.9847415 102.979838,21.9878878 C107.811219,18.000961 111.7906,14.5802049 115.485981,11.7290098 C118.897362,9.16598537 122.876743,7.4539122 127.140124,6.88435122 C128.560124,6.59957073 129.696124,6.88435122 130.835505,7.4539122 C131.971505,7.73869268 132.539505,9.45076585 131.971505,11.1594488 M134.243505,2.32447317 C131.971505,0.900570732 129.412124,0.327619512 126.284743,0.615790244 C120.885362,1.47013171 116.337981,3.46359512 112.0746,6.59957073 C108.379219,9.45076585 104.115838,12.8681317 99.2844571,16.8584488 C97.0124571,18.8553024 94.7370762,20.8487659 92.4616952,22.8456195 C91.0450762,24.269522 89.6216952,25.4086439 88.2016952,26.8359366 C86.7783143,27.9750585 85.6423143,28.5446195 83.9349333,28.259839 C83.0863143,27.9750585 81.9469333,27.690278 80.8109333,27.4054976 L27.658981,7.4539122 C25.954981,6.88435122 24.250981,6.31479024 22.2596,5.74522927 C18.280219,4.60271707 15.440219,5.74522927 13.7328381,7.16913171 C10.6088381,9.45076585 8.04945714,12.2985707 6.34207619,15.4345463 C4.35407619,18.570522 4.92207619,21.9878878 7.76545714,24.5543024 C8.90145714,25.6934244 10.0408381,26.5511561 10.8894571,27.1207171 C20.5556,33.958839 30.5023619,40.5155707 40.1651238,47.3536927 C43.8605048,49.9201073 47.2718857,52.1983512 49.8312667,55.3343268 C50.3992667,56.1886683 50.9672667,56.7616195 51.5352667,57.615961 L33.0617429,75.2859122 C31.0703619,77.2793756 29.0823619,78.9914488 27.090981,80.9849122 C26.8103619,80.9849122 26.522981,80.7001317 26.238981,80.7001317 L23.1116,79.2762293 C20.5556,78.1337171 18.280219,76.7098146 15.724219,75.5706927 C12.5968381,74.1467902 9.18545714,74.4315707 6.62945714,76.7098146 C5.20607619,77.8489366 3.78607619,79.2762293 2.36607619,80.7001317 C-0.193304762,83.2665463 -0.477304762,86.3991317 1.79807619,89.2503268 C2.36607619,90.1046683 2.93069524,90.6776195 3.50207619,91.2471805 L8.90145714,98.0853024 C15.156219,106.350717 21.6916,114.616132 28.226981,122.596766 C29.0823619,123.735888 29.9343619,124.590229 31.0703619,125.15979 C32.2097429,125.729351 34.4817429,127.156644 37.3251238,126.302302 C40.7365048,125.15979 43.2925048,122.881546 44.4285048,119.46079 C45.5678857,116.609595 45.8518857,113.47701 44.7125048,110.056254 L44.1445048,107.493229 C43.5765048,105.211595 43.0085048,102.929961 42.4405048,100.651717 C50.1152667,94.6645463 57.7900286,88.9655463 65.1774095,82.9817659 L68.8727905,80.1305707 L69.7247905,81.5544732 C71.7161714,84.6904488 73.4201714,87.8264244 74.5595524,91.2471805 L87.6336952,124.87501 C88.4856952,126.871863 89.0536952,128.865327 89.9056952,130.5774 C91.3290762,133.709985 93.6010762,135.422059 96.4444571,135.422059 C97.5804571,135.422059 98.7164571,135.137278 99.8524571,134.567717 C100.704457,134.279546 101.559838,133.994766 102.127838,133.425205 C106.675219,131.146961 109.515219,128.010985 110.6546,123.735888 C111.5066,120.315132 111.2226,117.179156 110.9386,114.900912 L104.115838,65.0270341 C103.547838,61.0333268 102.979838,56.7616195 102.411838,52.7679122 C102.127838,50.7744488 102.695838,49.6353268 104.115838,48.4962049 L110.0866,43.3667659 C114.917981,39.3730585 119.465362,35.3861317 124.296743,31.3958146 C128.276124,27.9750585 130.835505,24.8390829 133.107505,21.4183268 C134.811505,18.8553024 136.518886,15.7193268 137.370886,12.2985707 C138.794267,8.59303415 137.370886,4.60271707 134.243505,2.32447317" id="Fill-1" fill="#6D6D6D" mask="url(#mask-2)"></path>
                </g>
                <g id="Group-6" transform="translate(0.000000, 108.000000)">
                    <mask id="mask-4" fill="white">
                        <use xlink:href="#path-3"></use>
                    </mask>
                    <g id="Clip-5"></g>
                    <path d="M75.7627565,1.56708333 C74.9081478,0.428416667 72.9106696,0.14375 71.7711913,0.99775 L1.06927826,54.8438056 C-0.0735913043,55.6978056 -0.35846087,57.6904722 0.496147826,58.8291389 C1.06927826,59.6831389 1.92388696,59.9711944 2.77849565,59.9711944 C3.34823478,59.9711944 3.91797391,59.6831389 4.48771304,59.3984722 L75.1930174,5.55580556 C76.6173652,4.70180556 76.6173652,2.99041667 75.7627565,1.56708333" id="Fill-4" fill="#C83549" mask="url(#mask-4)"></path>
                </g>
                <path d="M85.5019665,123.074917 C84.3599059,121.926604 82.646815,121.639525 81.2158403,122.50076 L38.0690638,155.825757 C36.9270032,156.690409 36.6414881,158.699957 37.4980335,159.851687 C38.0690638,160.712922 38.9256092,161 39.7821547,161 C40.356584,161 40.9276142,160.712922 41.4986445,160.425844 L84.9309362,127.097429 C86.0729968,126.236195 86.3585119,124.223229 85.5019665,123.074917" id="Fill-7" fill="#C83549"></path>
                <path d="M34.4906902,161.06241 C33.6147513,159.927458 31.5708937,159.643719 30.3994991,160.494934 L23.0965319,165.889336 C21.9251374,166.74055 21.6331577,168.730095 22.5090967,169.865048 C23.0965319,170.716262 23.9724709,171 24.8484098,171 C25.4323691,171 26.0163284,170.716262 26.6002877,170.432524 L33.9067309,165.038122 C35.0746495,164.186907 35.3666292,162.197363 34.4906902,161.06241" id="Fill-9" fill="#C83549"></path>
                <path d="M25.4906986,130.06241 C24.614774,128.927458 22.567474,128.643719 21.3995746,129.494934 L14.0932512,134.889336 C12.9253517,135.74055 12.6333768,137.730095 13.5093014,138.865048 C14.0932512,139.716262 14.9726517,140 15.8485762,140 C16.432526,140 17.0164757,139.716262 17.6004254,139.432524 L24.9067488,134.038122 C26.0746483,133.186907 26.3666232,131.197363 25.4906986,130.06241" id="Fill-11" fill="#C83549"></path>
                <path d="M66.5091555,99.0568769 C65.6649741,97.9278354 63.6918677,97.645575 62.5662925,98.4923562 L29.0536321,123.912592 C27.9280569,124.762734 27.6466631,126.738557 28.4908445,127.870958 C29.0536321,128.435479 29.8978135,129 30.7453448,129 C31.3081323,129 31.8709199,128.71774 32.4337075,128.435479 L65.9463679,103.011883 C67.0719431,102.161741 67.3533369,100.185919 66.5091555,99.0568769" id="Fill-13" fill="#C83549"></path>
            </g>
        </g>
    </g>
</svg>