<?xml version="1.0" encoding="UTF-8"?>
<svg width="200px" height="171px" viewBox="0 0 200 171" version="1.1" xmlns="http://www.w3.org/2000/svg" xmlns:xlink="http://www.w3.org/1999/xlink">
    <title>movies</title>
    <defs>
        <polygon id="path-1" points="0 0.0624657534 200 0.0624657534 200 170.60955 0 170.60955"></polygon>
    </defs>
    <g id="Page-1" stroke="none" stroke-width="1" fill="none" fill-rule="evenodd">
        <g id="Library" transform="translate(-50.000000, -658.000000)">
            <g id="movies" transform="translate(50.000000, 658.000000)">
                <g id="Group-3">
                    <mask id="mask-2" fill="white">
                        <use xlink:href="#path-1"></use>
                    </mask>
                    <g id="Clip-2"></g>
                    <path d="M194.128125,146.439988 L159.058984,127.142365 L159.058984,95.7716733 L194.128125,76.47405 L194.128125,146.439988 Z M77.2832031,68.5760363 C81.2351562,65.429324 84.2839844,61.2003925 85.978125,56.3389952 C88.9433594,61.2741801 93.0167969,65.4710979 97.8582031,68.5760363 L77.2832031,68.5760363 Z M39.4308594,47.5004815 C39.4308594,35.8795089 48.8902344,26.4249267 60.5175781,26.4249267 C72.1449219,26.4249267 81.6046875,35.8795089 81.6046875,47.5004815 C81.6046875,59.1214541 72.1453125,68.5760363 60.5175781,68.5760363 C48.890625,68.5760363 39.4308594,59.1214541 39.4308594,47.5004815 L39.4308594,47.5004815 Z M20.6023437,104.991618 L30.2792969,104.991618 L30.2792969,88.400324 L20.6023437,88.400324 L20.6023437,104.991618 Z M5.871875,83.1282144 L14.73125,87.3231801 L14.73125,106.068762 L5.871875,110.263728 L5.871875,83.1282144 Z M198.557031,68.9840158 C197.662891,68.4565705 196.556641,68.4393925 195.648047,68.9395089 L159.058594,89.0733925 L159.058594,82.0573171 C159.058594,74.6235021 153.007031,68.5756459 145.569141,68.5756459 L137.940234,68.5756459 C148.258203,61.9577897 155.108594,50.389913 155.108594,37.2529747 C155.108594,30.6499541 153.354297,24.1636664 150.035156,18.4948993 C149.216016,17.0960568 147.417969,16.6252212 146.019141,17.4446938 C144.619922,18.2629952 144.15,20.0600568 144.968359,21.4585089 C147.761719,26.2289404 149.237891,31.6907897 149.237891,37.2533651 C149.237891,54.5247555 135.178906,68.5760363 117.898437,68.5760363 C100.617187,68.5760363 86.5582031,54.5247555 86.5582031,37.2533651 C86.5582031,19.9819747 100.617187,5.93030342 117.898437,5.93030342 C125.257812,5.93030342 132.409766,8.53044041 138.035937,13.2520705 C139.278125,14.2940774 141.128906,14.1332281 142.171484,12.8913308 C143.214062,11.6506048 143.052734,9.80005685 141.810937,8.75805 C135.128516,3.1505774 126.636719,0.0624267123 117.898437,0.0624267123 C99.7253906,0.0624267123 84.5582031,13.1513445 81.3269531,30.3911116 C76.3785156,24.3901048 68.8878906,20.5574404 60.5175781,20.5574404 C45.653125,20.5574404 33.5601562,32.6441733 33.5601562,47.5004815 C33.5601562,56.0270568 37.5480469,63.635776 43.7527344,68.5764267 C36.321875,68.5846253 30.2789062,74.6289678 30.2789062,82.0577075 L30.2789062,82.5328377 L18.3273437,82.5328377 L4.19335937,75.8408034 C2.33203125,74.8917144 -0.060546875,76.4049473 -4.04417294e-05,78.4920842 L-4.04417294e-05,114.899077 C-0.06171875,116.987386 2.33515625,118.500228 4.19335937,117.550749 L18.3273437,110.858714 L30.2792969,110.858714 L30.2792969,157.126708 C30.2792969,164.560913 36.3304687,170.60955 43.7683594,170.60955 L120.204297,170.60955 C121.825391,170.60955 123.140234,169.295427 123.140234,167.674831 C123.140234,166.054235 121.825781,164.740892 120.204297,164.740892 L43.7683594,164.740892 C39.5675781,164.740892 36.15,161.325187 36.15,157.126317 L36.15,82.0577075 C36.15,77.8592281 39.5675781,74.4435226 43.7683594,74.4435226 L145.569141,74.4435226 C149.769922,74.4435226 153.1875,77.8588377 153.1875,82.0577075 L153.1875,157.127098 C153.1875,161.325577 149.769922,164.741673 145.569141,164.741673 L131.945703,164.741673 C130.324609,164.741673 129.010156,166.055016 129.010156,167.676002 C129.010156,169.296208 130.324219,170.60955 131.945703,170.60955 L145.569141,170.60955 C153.007031,170.60955 159.058203,164.561694 159.058203,157.127488 L159.058203,133.841036 L195.648047,153.974139 C197.510937,155.075488 200.065625,153.56694 200.000112,151.404064 L200.000112,71.5099747 C200.000112,70.4722623 199.450391,69.5118514 198.557031,68.9840158 L198.557031,68.9840158 Z" id="Fill-1" fill="#666666" mask="url(#mask-2)"></path>
                </g>
                <path d="M127.115267,38 C127.115267,43.0261022 123.026494,47.1152672 118.000392,47.1152672 C112.973898,47.1152672 108.884341,43.0261022 108.884341,38 C108.884341,32.9738978 112.973898,28.8843413 118.000392,28.8843413 C123.026494,28.8847328 127.115267,32.9738978 127.115267,38 M103,38 C103,46.2711232 109.729268,53 118.000392,53 C126.271123,53 133,46.2711232 133,38 C133,29.7288768 126.271515,23 118.000392,23 C109.729268,23 103,29.7288768 103,38" id="Fill-4" fill="#666666"></path>
                <path d="M60.5,43.828744 C63.07594,43.828744 65.1713637,45.9242063 65.1713637,48.4998061 C65.1713637,51.0757937 63.07594,53.171256 60.5,53.171256 C57.9244478,53.171256 55.8290242,51.0757937 55.8290242,48.4998061 C55.8290242,45.9242063 57.9244478,43.828744 60.5,43.828744 M60.5,59 C66.2898537,59 71,54.2893789 71,48.4998061 C71,42.7102333 66.2898537,38 60.5,38 C54.7105341,38 50,42.7102333 50,48.4998061 C50.0003878,54.2897667 54.7105341,59 60.5,59" id="Fill-6" fill="#666666"></path>
                <path d="M129,128.109059 L129,95.8909412 C129,92.0917666 125.913581,89 122.119621,89 L90.2229654,89 C88.5940113,89 87.2735028,90.3220672 87.2735028,91.953429 C87.2735028,93.5847907 88.5936188,94.9068579 90.2229654,94.9068579 L122.119621,94.9068579 C122.661559,94.9068579 123.102645,95.348202 123.102645,95.8913343 L123.102645,128.109452 C123.102645,128.652584 122.661559,129.093928 122.119621,129.093928 L66.8811636,129.093928 C66.338833,129.093928 65.8977478,128.652584 65.8977478,128.109452 L65.8977478,95.8913343 C65.8977478,95.348202 66.338833,94.9068579 66.8811636,94.9068579 L78.4270773,94.9068579 C80.055639,94.9068579 81.3765398,93.5847907 81.3765398,91.953429 C81.3765398,90.3220672 80.0560314,89 78.4270773,89 L66.8811636,89 C63.0872035,89 60,92.0917666 60,95.8909412 L60,128.109059 C60,131.908626 63.0872035,135 66.8811636,135 L122.119621,135 C125.913581,135 129,131.908626 129,128.109059" id="Fill-8" fill="#C71F3C"></path>
                <path d="M109.892524,145 C108.295189,145 107,146.119095 107,147.5 C107,148.880905 108.295189,150 109.892524,150 L117.107476,150 C118.704811,150 120,148.880905 120,147.5 C120,146.119095 118.705196,145 117.107476,145 L109.892524,145 Z" id="Fill-10" fill="#C71F3C"></path>
                <path d="M90.8924384,145 C89.2951504,145 88,146.119095 88,147.5 C88,148.880905 89.2947655,150 90.8924384,150 L98.1075616,150 C99.7048496,150 101,148.880905 101,147.5 C101,146.119095 99.7052345,145 98.1075616,145 L90.8924384,145 Z" id="Fill-12" fill="#C71F3C"></path>
                <path d="M71.8924384,145 C70.2951504,145 69,146.119095 69,147.5 C69,148.880905 70.2951504,150 71.8924384,150 L79.1075616,150 C80.7048496,150 82,148.880905 82,147.5 C82,146.119095 80.7052345,145 79.1075616,145 L71.8924384,145 Z" id="Fill-14" fill="#C71F3C"></path>
            </g>
        </g>
    </g>
</svg>