<?xml version="1.0" encoding="UTF-8"?>
<svg width="159px" height="160px" viewBox="0 0 159 160" version="1.1" xmlns="http://www.w3.org/2000/svg" xmlns:xlink="http://www.w3.org/1999/xlink">
    <title>Recieved Money</title>
    <defs>
        <polygon id="path-1" points="0.0201679417 0.937295082 157.058667 0.937295082 157.058667 159.327869 0.0201679417 159.327869"></polygon>
        <polygon id="path-3" points="0 0.0263075487 4.54062532 0.0263075487 4.54062532 9.57457598 0 9.57457598"></polygon>
    </defs>
    <g id="Page-1" stroke="none" stroke-width="1" fill="none" fill-rule="evenodd">
        <g id="Library" transform="translate(-669.000000, -69.000000)">
            <g id="Recieved-Money" transform="translate(669.000000, 69.000000)">
                <g id="Group-3" transform="translate(1.000000, 0.000000)">
                    <mask id="mask-2" fill="white">
                        <use xlink:href="#path-1"></use>
                    </mask>
                    <g id="Clip-2"></g>
                    <path d="M122.88,5.59444956 C106.594667,5.55179836 93.2693333,18.8376344 93.2077888,35.1830607 C93.1466667,51.4803885 106.450667,64.8811262 122.733333,64.9186147 C139,64.9559459 152.36,51.6327 152.410811,35.3193393 C152.461333,19.0166672 139.168,5.63730656 122.88,5.59444956 L122.88,5.59444956 Z M71.1893333,136.93249 C74.6853333,136.854979 78.1546667,136.531651 81.5893333,135.818192 C110.696,129.795208 128.272,98.2694049 118.101333,70.3456344 C117.794667,69.5065852 117.341333,69.1485197 116.490667,68.9908639 C102.626667,66.4069131 91.72,55.4992738 89.1546667,41.6309131 C88.9813333,40.690323 88.5626667,40.2360607 87.688,39.9394541 C79.04,36.9787328 70.224,36.289323 61.2693333,38.1170607 C34.8266667,43.5120934 17.616,68.7824377 22.1093333,95.5384869 C26.104,119.331143 47,136.953848 71.1893333,136.93249 L71.1893333,136.93249 Z M157.058667,39.6000934 C156.4,40.671618 156.48,41.9301918 156.192,43.095241 C153.970667,52.1083393 148.992,59.1547492 141.224,64.1783557 C140.128,64.8864705 140.005333,65.4556344 140.346667,66.6287 C152.125333,106.929782 127.333333,148.770011 86.4293333,157.678897 C48.2506667,165.994569 10.1253333,142.057618 0.970666667,104.014487 C0.632,102.61429 0.376,101.198061 0.0933333333,99.7871754 C-0.216,98.2319951 0.472,97.0188475 1.84533333,96.6687984 C3.15466667,96.3374541 4.376,97.1604705 4.688,98.7851262 C5.52533333,103.132684 6.57866667,107.424126 8.28,111.512487 C17.808,134.388602 34.6,148.807421 58.9333333,153.368749 C94.2506667,159.987618 127.504,138.394126 136.536,103.530831 C139.568,91.8188803 139.242667,80.096241 136.042667,68.4323885 C135.730667,67.2994049 135.386667,67.1951918 134.317333,67.5933393 C130.682667,68.9427656 126.904,69.6348475 122.872,69.6054541 C127.624,85.1171754 126.416,100.019651 118.410667,114.13652 C112.546667,124.477667 104.074667,132.090569 93.2426667,136.945831 C71.824,146.546798 46.3253333,141.098323 30.8053333,123.708093 C14.728,105.695257 12.1173333,80.1764049 24.0586667,59.496782 C34.44,41.5186836 58.8213333,25.9481754 88.5066667,35.1590115 C88.5306667,30.9958311 89.2773333,26.979618 90.744,23.1130443 C90.9813333,22.4877656 90.8293333,22.3407984 90.232,22.2098639 C89.0346667,21.9479951 87.8506667,21.6032902 86.6666667,21.2692738 C85.1413333,20.8390607 84.2773333,19.5671262 84.6293333,18.3085525 C85.0026667,16.975159 86.2373333,16.3151426 87.7946667,16.6838967 C89.24,17.0286016 90.6773333,17.4053721 92.0986667,17.8409295 C92.7893333,18.0547 93.1786667,17.9798803 93.6026667,17.3091754 C99.352,8.22660164 107.541333,2.85027377 118.162667,1.21492951 C118.277333,1.19622459 118.370667,1.03322459 118.474667,0.937027869 L126.501333,0.937027869 C126.576,1.17484754 126.765333,1.19355246 126.976,1.21760164 C140.592,2.74606066 152.144,12.6757 155.837333,25.9695525 C156.296,27.6155852 156.373333,29.3524705 157.058667,30.9397164 L157.058667,39.6000934 Z" id="Fill-1" fill="#6C6D6D" mask="url(#mask-2)"></path>
                </g>
                <path d="M3.96704409,75.9986045 C1.94152326,76.0486863 0.73465043,74.7439237 1.04973145,73.1940238 C1.34230668,71.7601029 1.70239927,70.3340897 2.11875633,68.9265276 C2.55480596,67.4636119 3.77293168,66.7598309 5.13171857,67.0735011 C6.59740795,67.416166 7.27258156,68.5706832 6.89842285,70.1232189 C6.56646249,71.4991504 6.24012858,72.8750819 5.87159632,74.2431057 C5.57620787,75.350177 4.77162598,75.9247997 3.96704409,75.9986045" id="Fill-4" fill="#6C6D6D"></path>
                <path d="M58.5348287,20 C57.0542207,19.9531572 56.2392312,19.3491314 56.0374492,18.1558724 C55.8330467,16.9453555 56.4777008,16.0504112 57.6700488,15.7668889 C59.2738224,15.3847502 60.9326274,15.138209 62.5835709,15.0100077 C63.8204681,14.9113912 64.7297973,15.5450019 64.9525436,16.7604496 C65.1726694,17.9512433 64.6223549,18.8930304 63.3985604,19.1864143 C61.747617,19.5808801 60.036401,19.7583897 58.5348287,20" id="Fill-6" fill="#6C6D6D"></path>
                <path d="M33.9205921,31 C32.4509755,30.9895791 31.7189297,30.5102172 31.2631275,29.616624 C30.8183751,28.7464779 30.931635,27.8841474 31.6471063,27.2693137 C33.1774965,25.9536736 34.9647934,24.9532661 36.8404882,24.1560663 C37.7659047,23.7600717 38.721708,24.1534611 39.3819305,24.9324242 C39.9924291,25.6540724 40.2686728,26.5476655 39.6554118,27.2875503 C38.0863474,29.1815509 35.7382758,30.0100134 33.9205921,31" id="Fill-8" fill="#6C6D6D"></path>
                <path d="M19,44.2090415 C18.954518,44.6935678 18.818072,45.1478112 18.5274926,45.5541066 C17.7138702,46.6922386 16.9280424,47.8556064 16.0840988,48.9735498 C15.2275212,50.1015875 13.9312843,50.3085206 12.8978323,49.5514483 C11.9351301,48.8398004 11.6950862,47.5527775 12.4303785,46.4524991 C13.2616883,45.208377 14.1308997,43.9844434 15.0733878,42.8235992 C15.694975,42.0564326 16.5515526,41.7763159 17.5471029,42.1927056 C18.4542161,42.5737654 18.8483933,43.2904605 19,44.2090415" id="Fill-10" fill="#6C6D6D"></path>
                <path d="M22.409209,39.9979137 C21.3079812,39.9842695 20.6335451,39.4739766 20.2436367,38.600748 C19.8510938,37.7220618 19.9116877,36.8133583 20.5808548,36.1120466 C21.755849,34.8813401 22.9545538,33.6642778 24.2322941,32.5509114 C25.2228722,31.6885982 26.5638409,31.8741593 27.3620993,32.8592702 C28.1972409,33.8880426 28.2341241,35.0123244 27.3436577,35.9837912 C26.2266228,37.2008535 25.0015728,38.3087622 23.8160406,39.4548747 C23.3866144,39.8723871 22.8544422,40.0197444 22.409209,39.9979137" id="Fill-12" fill="#6C6D6D"></path>
                <path d="M11.9977922,56.8303279 C11.2391148,58.4727835 10.59978,60.568793 9.1960848,62.2729749 C8.45729787,63.1693477 7.28092175,63.1961852 6.22672963,62.5762387 C5.175379,61.9562922 4.7434728,60.9606206 5.1526471,59.9085903 C5.78629896,58.2795534 6.57339119,56.6880891 7.44004509,55.1529836 C8.00834273,54.1438932 9.10231569,53.7815869 10.2559599,54.1277907 C11.3840307,54.4659434 12.043256,55.2657011 11.9977922,56.8303279" id="Fill-14" fill="#6C6D6D"></path>
                <path d="M74.571404,18.9100203 C73.823839,18.9100203 73.0736873,18.9516516 72.328709,18.9016941 C70.9836094,18.8128808 70.029106,17.7915277 70.0006519,16.4815313 C69.9721979,15.1410054 70.8775534,14.0474915 72.2459337,14.0141865 C73.8367727,13.9753306 75.4379586,14.011411 77.0210375,14.1834868 C78.2781883,14.3222576 78.932631,15.3019795 78.9972993,16.6092004 C79.0593808,17.8442606 78.0427959,18.9016941 76.8115123,18.9766303 C76.0665341,19.0238124 75.318969,18.9849566 74.571404,18.9849566 L74.571404,18.9100203 Z" id="Fill-16" fill="#6C6D6D"></path>
                <path d="M51.999623,20.1991656 C52.0183955,21.3484551 51.3345408,22.0242065 50.2966907,22.4183949 C49.0040712,22.9047312 47.7034064,23.3705901 46.3920144,23.8108524 C44.9304426,24.2997484 43.7370491,23.8236508 43.1926471,22.5822134 C42.6696994,21.3919694 43.2275103,20.196606 44.6703096,19.6130024 C45.9951105,19.0754729 47.3413656,18.5712189 48.7090751,18.1488743 C50.4683248,17.608785 51.9862141,18.5942559 51.999623,20.1991656" id="Fill-18" fill="#6C6D6D"></path>
                <g id="Group-22" transform="translate(0.000000, 80.000000)">
                    <mask id="mask-4" fill="white">
                        <use xlink:href="#path-3"></use>
                    </mask>
                    <g id="Clip-21"></g>
                    <path d="M4.3625,5.34205 C4.3625,5.7243 4.415,6.5768 4.35,7.4183 C4.25,8.73005 3.275,9.6568 2.1025,9.5688 C0.885,9.47805 0.1,8.7273 0.04,7.3853 C-0.0325,5.74905 -0.005,4.09905 0.0975,2.46555 C0.19,0.9778 1.305,-0.0782 2.48,0.03455 C3.685,0.15005 4.5675,1.31605 4.54,2.8203 C4.5275,3.50505 4.4475,4.19255 4.3625,5.34205" id="Fill-20" fill="#6C6D6D" mask="url(#mask-4)"></path>
                </g>
                <path d="M121.557659,44.5672985 L121.557659,31.3169049 C121.557659,27.805643 121.538643,24.291741 121.565809,20.7804791 C121.579391,18.9060461 122.687736,17.8315471 124.306788,18.0216305 C125.670487,18.1800333 126.431115,19.1911711 126.433832,20.9256817 C126.444698,28.3072518 126.439265,35.688822 126.439265,43.0730322 L126.439265,44.5646585 C126.542493,44.6385798 126.648438,44.7151411 126.754382,44.7890624 C127.699735,43.8228054 128.620639,42.8301479 129.601307,41.8955714 C130.815596,40.736591 132.184727,40.6494695 133.208859,41.5998862 C134.32807,42.6400646 134.268306,43.9231272 132.975238,45.1982697 C130.617289,47.5188706 128.251191,49.8262713 125.860644,52.1099115 C124.632772,53.2847322 123.366869,53.3005725 122.14443,52.1336719 C119.715851,49.8157111 117.309005,47.4739898 114.929324,45.1085081 C113.728618,43.915207 113.706885,42.611024 114.774482,41.6078064 C115.782315,40.6600296 117.186761,40.7445111 118.384751,41.8902913 C119.346403,42.8116676 120.248291,43.7937649 121.174628,44.7494617 C121.302305,44.6887407 121.429982,44.6280196 121.557659,44.5672985" id="Fill-23" fill="#C83548"></path>
                <path d="M80.544891,112 C79.2736501,111.925603 78.0051083,111.816665 76.795945,111.388882 C74.9147244,110.721967 73.5004351,109.443935 72.2777767,107.937397 C70.3506727,105.554039 68.9039951,102.881064 67.5220942,100.173547 C66.3183289,97.8220735 65.144253,95.4546573 63.9917692,93.076613 C63.7920413,92.670087 63.5761193,92.4920658 63.1361782,92.5717768 C62.7907029,92.6302315 62.6665478,92.5159791 62.6746449,92.1413375 C62.7070332,90.8420485 62.7016351,89.5427595 62.690839,88.2434705 C62.68814,87.9379118 62.7610137,87.8449156 63.0902947,87.8289734 C64.6800206,87.7492625 66.215766,87.4118193 67.6543464,86.7289619 C69.3115479,85.9424802 70.283197,84.6086498 70.704245,82.8682934 C71.3250208,80.2909716 71.4491759,77.6923937 70.8931767,75.0991297 C70.2643039,72.1524805 68.3938794,70.568889 65.2495149,70.1942473 C64.5774577,70.1118793 63.9054004,70.0667098 63.2306441,70.0720238 C61.3143361,70.082652 59.3953292,70.0799949 57.4790213,70.1039082 C57.1497402,70.1092223 57.0687694,69.8780605 56.9284201,69.7000393 C55.5762085,67.9809391 54.0161719,66.4797156 52.1214561,65.3371916 C52.0836698,65.3132783 52.0404854,65.294679 52,65.2760798 L52,65.0927445 C52.1214561,65.0874305 52.2456113,65.0741453 52.3670674,65.0714883 C56.9554104,64.9864632 61.5437533,64.9625499 66.1293972,65.0821164 C68.6988692,65.1485422 71.2197588,65.5524112 73.6191922,66.5248852 C76.4477707,67.6727233 78.6582724,69.4901337 79.6542127,72.4102126 C81.0873951,76.6003532 80.8741721,80.7479813 79.0280388,84.7972991 C78.9659613,84.9328078 78.8229129,85.0603454 78.9011847,85.2622798 C80.2857846,85.1799118 81.6622875,85.2543087 83.0118001,85.5837808 C86.415271,86.4180891 89.1142962,88.2222143 90.7526045,91.3309426 C92.4583885,94.5645514 92.2505635,97.9044415 91.1142739,101.260274 C91.017109,101.54989 90.8605655,101.443609 90.695925,101.374526 C89.948295,101.06631 89.2087621,100.734181 88.455734,100.447222 C88.1858315,100.343598 88.0967637,100.226688 88.1021617,99.9370715 C88.126453,98.350823 87.7836768,96.8389714 86.9388818,95.4812276 C85.1224379,92.5584917 82.3748302,91.1582354 78.9713593,90.9430158 C77.017265,90.8181352 75.2035201,91.285773 73.6326874,92.5000369 C73.4140663,92.66743 73.3573868,92.7949676 73.5058332,93.0553568 C74.9471127,95.6247074 76.2939263,98.2445417 77.9025453,100.720896 C79.1413979,102.636617 80.4828135,104.469969 82.1912964,106.013705 C83.5192169,107.217341 85.0117778,108.035707 86.8741052,108.001166 C87.1170175,107.998509 87.1898912,108.070249 87.1871922,108.309382 C87.173697,109.154318 87.168299,110.001911 87.1898912,110.846848 C87.1952892,111.128493 87.0981243,111.234775 86.8309208,111.311829 C85.5030004,111.694441 84.1507888,111.941545 82.7661888,112 L80.544891,112 Z" id="Fill-25" fill="#C83548"></path>
                <path d="M80.544891,112 C79.2736501,111.925603 78.0051083,111.816665 76.795945,111.388882 C74.9147244,110.721967 73.5004351,109.443935 72.2777767,107.937397 C70.3506727,105.554039 68.9039951,102.881064 67.5220942,100.173547 C66.3183289,97.8220735 65.144253,95.4546573 63.9917692,93.076613 C63.7920413,92.670087 63.5761193,92.4920658 63.1361782,92.5717768 C62.7907029,92.6302315 62.6665478,92.5159791 62.6746449,92.1413375 C62.7070332,90.8420485 62.7016351,89.5427595 62.690839,88.2434705 C62.68814,87.9379118 62.7610137,87.8449156 63.0902947,87.8289734 C64.6800206,87.7492625 66.215766,87.4118193 67.6543464,86.7289619 C69.3115479,85.9424802 70.283197,84.6086498 70.704245,82.8682934 C71.3250208,80.2909716 71.4491759,77.6923937 70.8931767,75.0991297 C70.2643039,72.1524805 68.3938794,70.568889 65.2495149,70.1942473 C64.5774577,70.1118793 63.9054004,70.0667098 63.2306441,70.0720238 C61.3143361,70.082652 59.3953292,70.0799949 57.4790213,70.1039082 C57.1497402,70.1092223 57.0687694,69.8780605 56.9284201,69.7000393 C55.5762085,67.9809391 54.0161719,66.4797156 52.1214561,65.3371916 C52.0836698,65.3132783 52.0404854,65.294679 52,65.2760798 L52,65.0927445 C52.1214561,65.0874305 52.2456113,65.0741453 52.3670674,65.0714883 C56.9554104,64.9864632 61.5437533,64.9625499 66.1293972,65.0821164 C68.6988692,65.1485422 71.2197588,65.5524112 73.6191922,66.5248852 C76.4477707,67.6727233 78.6582724,69.4901337 79.6542127,72.4102126 C81.0873951,76.6003532 80.8741721,80.7479813 79.0280388,84.7972991 C78.9659613,84.9328078 78.8229129,85.0603454 78.9011847,85.2622798 C80.2857846,85.1799118 81.6622875,85.2543087 83.0118001,85.5837808 C86.415271,86.4180891 89.1142962,88.2222143 90.7526045,91.3309426 C92.4583885,94.5645514 92.2505635,97.9044415 91.1142739,101.260274 C91.017109,101.54989 90.8605655,101.443609 90.695925,101.374526 C89.948295,101.06631 89.2087621,100.734181 88.455734,100.447222 C88.1858315,100.343598 88.0967637,100.226688 88.1021617,99.9370715 C88.126453,98.350823 87.7836768,96.8389714 86.9388818,95.4812276 C85.1224379,92.5584917 82.3748302,91.1582354 78.9713593,90.9430158 C77.017265,90.8181352 75.2035201,91.285773 73.6326874,92.5000369 C73.4140663,92.66743 73.3573868,92.7949676 73.5058332,93.0553568 C74.9471127,95.6247074 76.2939263,98.2445417 77.9025453,100.720896 C79.1413979,102.636617 80.4828135,104.469969 82.1912964,106.013705 C83.5192169,107.217341 85.0117778,108.035707 86.8741052,108.001166 C87.1170175,107.998509 87.1898912,108.070249 87.1871922,108.309382 C87.173697,109.154318 87.168299,110.001911 87.1898912,110.846848 C87.1952892,111.128493 87.0981243,111.234775 86.8309208,111.311829 C85.5030004,111.694441 84.1507888,111.941545 82.7661888,112 L80.544891,112 Z" id="Stroke-27" stroke="#FEFEFE" stroke-width="0.25"></path>
                <path d="M52.4624968,120 C52.4085064,119.794001 52.2131127,119.844865 52.0768513,119.80163 C50.6113987,119.318422 49.7681207,117.906946 50.0560693,116.409 C50.338876,114.93903 51.683493,113.896318 53.1463746,114.008218 C54.7429467,114.130292 55.8895991,115.236585 55.9924379,116.752332 C56.0978476,118.318944 55.0925986,119.588001 53.5191652,119.877926 C53.4266103,119.893186 53.3186296,119.870297 53.2903489,120 L52.4624968,120 Z" id="Fill-29" fill="#C83548"></path>
                <path d="M52.4624968,120 C52.4085064,119.794001 52.2131127,119.844865 52.0768513,119.80163 C50.6113987,119.318422 49.7681207,117.906946 50.0560693,116.409 C50.338876,114.93903 51.683493,113.896318 53.1463746,114.008218 C54.7429467,114.130292 55.8895991,115.236585 55.9924379,116.752332 C56.0978476,118.318944 55.0925986,119.588001 53.5191652,119.877926 C53.4266103,119.893186 53.3186296,119.870297 53.2903489,120 L52.4624968,120 Z" id="Stroke-31" stroke="#FEFEFE" stroke-width="0.25"></path>
                <path d="M86,120.44 C85.9918919,120.479 85.9891892,120.521 85.9918919,120.56 L83.0081081,120.56 C83.0108108,120.521 83.0081081,120.479 83,120.44 L86,120.44 Z" id="Fill-33" fill="#C83548"></path>
                <path d="M86,120.44 C85.9918919,120.479 85.9891892,120.521 85.9918919,120.56 L83.0081081,120.56 C83.0108108,120.521 83.0081081,120.479 83,120.44 L86,120.44 Z" id="Stroke-35" stroke="#FEFEFE" stroke-width="0.25"></path>
            </g>
        </g>
    </g>
</svg>