<?xml version="1.0" encoding="UTF-8"?>
<svg width="165px" height="168px" viewBox="0 0 165 168" version="1.1" xmlns="http://www.w3.org/2000/svg" xmlns:xlink="http://www.w3.org/1999/xlink">
    <title>refer and earn</title>
    <g id="Page-1" stroke="none" stroke-width="1" fill="none" fill-rule="evenodd">
        <g id="Library" transform="translate(-1862.000000, -666.000000)">
            <g id="refer-and-earn" transform="translate(1863.000000, 667.000000)">
                <path d="M139.033301,123.136231 C139.033301,110.499933 139.087356,97.8636355 138.987175,85.2280609 C138.967715,82.7073094 139.201951,81.4657344 142.322689,81.5083977 C145.498922,81.551061 146.055321,82.6942934 146.027934,85.5209193 C145.901807,98.3972886 146.046673,111.27655 145.903969,124.152196 C145.871537,127.086565 146.721271,127.469812 149.044166,126.168942 C153.805273,123.503569 156.648532,119.543834 156.664388,113.990371 C156.706911,98.6033741 156.739343,83.2149306 156.531775,67.8301026 C156.42727,60.0783938 150.600211,54.5480702 142.481969,54.4338193 C130.848752,54.2703971 119.208329,54.2993214 107.575833,54.5119149 C99.0662373,54.6666598 93.8467495,59.9395572 93.5858472,68.5973193 C93.4885494,71.8491322 91.4597095,70.6957763 89.9368184,70.849075 C88.3706838,71.0059893 87.0625685,71.1824274 87.0049106,68.6486599 C86.773558,58.4123549 94.7447724,48.7762289 105.039603,48.3900896 C118.214449,47.8947612 131.43326,47.8708987 144.609548,48.3199483 C155.016091,48.6742708 162.817214,57.407236 162.896494,67.8387799 C163.01181,83.0023371 163.016855,98.1673405 162.978657,113.330898 C162.953431,123.223727 157.862953,130.172787 148.352992,133.144034 C146.298206,133.786153 145.895321,134.747163 145.917663,136.668458 C146.007754,144.731103 145.893879,152.79664 145.988294,160.858562 C146.017844,163.353282 146.13316,165.045353 142.60233,165 C139.365555,164.955687 139.015283,163.80667 139.045554,161.04657 C139.181771,148.410995 139.105374,135.773252 139.105374,123.136231 L139.033301,123.136231 Z" id="Fill-1" fill="#6D6E6D"></path>
                <path d="M139.033301,123.136231 C139.033301,110.499933 139.087356,97.8636355 138.987175,85.2280609 C138.967715,82.7073094 139.201951,81.4657344 142.322689,81.5083977 C145.498922,81.551061 146.055321,82.6942934 146.027934,85.5209193 C145.901807,98.3972886 146.046673,111.27655 145.903969,124.152196 C145.871537,127.086565 146.721271,127.469812 149.044166,126.168942 C153.805273,123.503569 156.648532,119.543834 156.664388,113.990371 C156.706911,98.6033741 156.739343,83.2149306 156.531775,67.8301026 C156.42727,60.0783938 150.600211,54.5480702 142.481969,54.4338193 C130.848752,54.2703971 119.208329,54.2993214 107.575833,54.5119149 C99.0662373,54.6666598 93.8467495,59.9395572 93.5858472,68.5973193 C93.4885494,71.8491322 91.4597095,70.6957763 89.9368184,70.849075 C88.3706838,71.0059893 87.0625685,71.1824274 87.0049106,68.6486599 C86.773558,58.4123549 94.7447724,48.7762289 105.039603,48.3900896 C118.214449,47.8947612 131.43326,47.8708987 144.609548,48.3199483 C155.016091,48.6742708 162.817214,57.407236 162.896494,67.8387799 C163.01181,83.0023371 163.016855,98.1673405 162.978657,113.330898 C162.953431,123.223727 157.862953,130.172787 148.352992,133.144034 C146.298206,133.786153 145.895321,134.747163 145.917663,136.668458 C146.007754,144.731103 145.893879,152.79664 145.988294,160.858562 C146.017844,163.353282 146.13316,165.045353 142.60233,165 C139.365555,164.955687 139.015283,163.80667 139.045554,161.04657 C139.181771,148.410995 139.105374,135.773252 139.105374,123.136231 L139.033301,123.136231 Z" id="Stroke-3" stroke="#6C6D6D" stroke-width="2"></path>
                <path d="M14.8523266,125.916044 C14.8523266,119.972271 14.8717965,114.507847 14.848,109.042705 C14.8112236,100.804807 14.8234824,92.5647561 14.6554644,84.3297285 C14.5747005,80.3987873 17.4209097,82.5386315 18.9568675,82.1274542 C20.5296018,81.7069483 21.8744663,81.7148417 21.8650919,84.2228081 C21.7670213,110.025799 21.7381771,135.829507 21.8326421,161.632498 C21.8441798,164.850158 19.8121004,163.828314 18.2653259,163.902226 C16.5563024,163.98403 14.7282963,164.509304 14.8018492,161.447361 C15.0044802,152.969789 14.7910326,144.484323 14.9273218,136.004598 C14.9640982,133.70258 14.4102881,132.530043 12.1214946,131.520398 C4.42728324,128.126212 0.171309924,122.138666 0.112179153,113.625215 C0.006897536,98.4568624 -0.0406955238,83.2877923 0.0422317773,68.1194398 C0.104246976,56.8418436 8.41139923,48.3793409 19.7255675,48.1870276 C31.8473756,47.9810802 43.9785581,47.9215205 56.0996451,48.1296207 C67.5140473,48.3262395 76.201944,57.5163753 75.9964285,68.3992987 C75.9502777,70.8433998 74.7287225,70.8455525 73.100463,70.6417578 C71.610656,70.4551852 69.5360312,71.7095272 69.4285863,68.4480946 C69.1387013,59.6217754 63.6179063,54.381238 54.7583862,54.3216783 C43.5942081,54.2463317 32.4249823,54.5520237 21.2665731,54.3109145 C12.9889862,54.1322354 5.26665175,61.034704 6.02525628,70.7350441 C6.76799645,80.227284 6.14568114,89.8228565 6.19904305,99.3732209 C6.22788733,104.621652 6.20120638,109.884434 6.58988303,115.112773 C6.96485865,120.145927 10.0129778,123.461179 14.8523266,125.916044" id="Fill-5" fill="#6D6E6D"></path>
                <path d="M14.8523266,125.916044 C14.8523266,119.972271 14.8717965,114.507847 14.848,109.042705 C14.8112236,100.804807 14.8234824,92.5647561 14.6554644,84.3297285 C14.5747005,80.3987873 17.4209097,82.5386315 18.9568675,82.1274542 C20.5296018,81.7069483 21.8744663,81.7148417 21.8650919,84.2228081 C21.7670213,110.025799 21.7381771,135.829507 21.8326421,161.632498 C21.8441798,164.850158 19.8121004,163.828314 18.2653259,163.902226 C16.5563024,163.98403 14.7282963,164.509304 14.8018492,161.447361 C15.0044802,152.969789 14.7910326,144.484323 14.9273218,136.004598 C14.9640982,133.70258 14.4102881,132.530043 12.1214946,131.520398 C4.42728324,128.126212 0.171309924,122.138666 0.112179153,113.625215 C0.006897536,98.4568624 -0.0406955238,83.2877923 0.0422317773,68.1194398 C0.104246976,56.8418436 8.41139923,48.3793409 19.7255675,48.1870276 C31.8473756,47.9810802 43.9785581,47.9215205 56.0996451,48.1296207 C67.5140473,48.3262395 76.201944,57.5163753 75.9964285,68.3992987 C75.9502777,70.8433998 74.7287225,70.8455525 73.100463,70.6417578 C71.610656,70.4551852 69.5360312,71.7095272 69.4285863,68.4480946 C69.1387013,59.6217754 63.6179063,54.381238 54.7583862,54.3216783 C43.5942081,54.2463317 32.4249823,54.5520237 21.2665731,54.3109145 C12.9889862,54.1322354 5.26665175,61.034704 6.02525628,70.7350441 C6.76799645,80.227284 6.14568114,89.8228565 6.19904305,99.3732209 C6.22788733,104.621652 6.20120638,109.884434 6.58988303,115.112773 C6.96485865,120.145927 10.0129778,123.461179 14.8523266,125.916044 Z" id="Stroke-7" stroke="#6C6D6D" stroke-width="2"></path>
                <path d="M140.64121,21.8038232 C140.585862,13.1154282 133.463176,6.11784119 124.805112,6.24508311 C116.070136,6.37448168 109.138653,13.4561778 109.255819,22.1309141 C109.373704,30.873944 116.356941,37.6954053 125.132171,37.6393325 C133.868585,37.5832598 140.697278,30.6101147 140.64121,21.8038232 M103,21.9281896 C103.015113,9.56990745 112.713294,-0.0458439709 125.116357,5.3290651e-14 C137.267117,0.0440161463 146.948766,9.70649483 147,21.8390484 C147.050837,34.0995628 137.239803,43.9892079 125.013567,44 C112.72192,44.0107743 102.984923,34.2483712 103,21.9281896" id="Fill-9" fill="#6D6E6D"></path>
                <path d="M140.64121,21.8038232 C140.585862,13.1154282 133.463176,6.11784119 124.805112,6.24508311 C116.070136,6.37448168 109.138653,13.4561778 109.255819,22.1309141 C109.373704,30.873944 116.356941,37.6954053 125.132171,37.6393325 C133.868585,37.5832598 140.697278,30.6101147 140.64121,21.8038232 Z M103,21.9281896 C103.015113,9.56990745 112.713294,-0.0458439709 125.116357,5.3290651e-14 C137.267117,0.0440161463 146.948766,9.70649483 147,21.8390484 C147.050837,34.0995628 137.239803,43.9892079 125.013567,44 C112.72192,44.0107743 102.984923,34.2483712 103,21.9281896 Z" id="Stroke-11" stroke="#6C6D6D" stroke-width="2"></path>
                <path d="M53.6197767,22.0919814 C53.6589704,13.3196049 46.791359,6.29422685 38.1159542,6.23096106 C29.4985189,6.16913313 22.3761274,13.195949 22.2931092,21.8417939 C22.210091,30.4732602 29.2272783,37.5964127 37.8711935,37.6560838 C46.6153031,37.7164739 53.5802462,30.8334439 53.6197767,22.0919814 M37.9849857,0 C50.2194393,0.00287571758 60.0449329,9.83926769 60,22.0387806 C59.954758,34.2037849 50.0383737,44.0329875 37.8461449,44 C25.9072649,43.967565 16.1089669,34.1362055 16.0009,22.0804785 C15.8914019,9.93704209 25.7870316,-0.00143785879 37.9849857,0" id="Fill-13" fill="#6D6E6D"></path>
                <path d="M53.6197767,22.0919814 C53.6589704,13.3196049 46.791359,6.29422685 38.1159542,6.23096106 C29.4985189,6.16913313 22.3761274,13.195949 22.2931092,21.8417939 C22.210091,30.4732602 29.2272783,37.5964127 37.8711935,37.6560838 C46.6153031,37.7164739 53.5802462,30.8334439 53.6197767,22.0919814 Z M37.9849857,0 C50.2194393,0.00287571758 60.0449329,9.83926769 60,22.0387806 C59.954758,34.2037849 50.0383737,44.0329875 37.8461449,44 C25.9072649,43.967565 16.1089669,34.1362055 16.0009,22.0804785 C15.8914019,9.93704209 25.7870316,-0.00143785879 37.9849857,0 Z" id="Stroke-15" stroke="#6C6D6D" stroke-width="2"></path>
                <path d="M40.9062641,145.450302 C40.9062641,150.820954 40.7452365,156.198079 40.9626238,161.560101 C41.1060848,165.085872 38.6430942,163.683332 37.0467249,163.90558 C35.2154018,164.161634 33.9740252,164.045834 34.016478,161.454371 C34.1921445,150.83462 34.2280097,140.207676 34.0018391,129.590083 C33.93816,126.592962 35.537457,127.002935 37.3519455,127.037459 C39.2052269,127.073422 41.1756194,126.451269 40.9875099,129.700129 C40.6852171,134.934842 40.9062641,140.198326 40.9062641,145.450302" id="Fill-17" fill="#6D6E6D"></path>
                <path d="M40.9062641,145.450302 C40.9062641,150.820954 40.7452365,156.198079 40.9626238,161.560101 C41.1060848,165.085872 38.6430942,163.683332 37.0467249,163.90558 C35.2154018,164.161634 33.9740252,164.045834 34.016478,161.454371 C34.1921445,150.83462 34.2280097,140.207676 34.0018391,129.590083 C33.93816,126.592962 35.537457,127.002935 37.3519455,127.037459 C39.2052269,127.073422 41.1756194,126.451269 40.9875099,129.700129 C40.6852171,134.934842 40.9062641,140.198326 40.9062641,145.450302 Z" id="Stroke-19" stroke="#6C6D6D" stroke-width="2"></path>
                <path d="M127.906136,145.713533 C127.907595,150.968469 127.706226,156.233481 127.984933,161.474024 C128.149093,164.557036 126.270374,163.962599 124.566029,163.930214 C122.925889,163.899269 120.970563,164.698808 121.020905,161.573337 C121.191631,150.94616 121.232489,140.312506 121.001935,129.688207 C120.931164,126.424562 122.813531,127.083768 124.643367,127.042748 C126.447667,127.002447 128.156389,126.57641 127.988581,129.595372 C127.689445,134.953219 127.904677,140.339133 127.906136,145.713533" id="Fill-21" fill="#6D6E6D"></path>
                <path d="M127.906136,145.713533 C127.907595,150.968469 127.706226,156.233481 127.984933,161.474024 C128.149093,164.557036 126.270374,163.962599 124.566029,163.930214 C122.925889,163.899269 120.970563,164.698808 121.020905,161.573337 C121.191631,150.94616 121.232489,140.312506 121.001935,129.688207 C120.931164,126.424562 122.813531,127.083768 124.643367,127.042748 C126.447667,127.002447 128.156389,126.57641 127.988581,129.595372 C127.689445,134.953219 127.904677,140.339133 127.906136,145.713533 Z" id="Stroke-23" stroke="#6C6D6D" stroke-width="2"></path>
                <path d="M102.027961,146.326356 C102.027961,141.069368 101.99904,135.81238 102.052846,130.556109 C102.063607,129.518631 101.588098,127.267173 103.298453,128.237209 C104.819815,129.100339 107.759636,126.828792 107.839672,130.550369 C108.07171,141.340576 108.015214,152.144415 107.899531,162.939644 C107.863885,166.313243 105.572425,164.445638 104.299243,164.783572 C103.01799,165.123659 101.962049,164.953615 102.02258,162.521353 C102.15575,157.128043 102.06428,151.724688 102.06428,146.326356 L102.027961,146.326356 Z" id="Fill-25" fill="#6D6E6D"></path>
                <path d="M102.027961,146.326356 C102.027961,141.069368 101.99904,135.81238 102.052846,130.556109 C102.063607,129.518631 101.588098,127.267173 103.298453,128.237209 C104.819815,129.100339 107.759636,126.828792 107.839672,130.550369 C108.07171,141.340576 108.015214,152.144415 107.899531,162.939644 C107.863885,166.313243 105.572425,164.445638 104.299243,164.783572 C103.01799,165.123659 101.962049,164.953615 102.02258,162.521353 C102.15575,157.128043 102.06428,151.724688 102.06428,146.326356 L102.027961,146.326356 Z" id="Stroke-27" stroke="#6C6D6D" stroke-width="2"></path>
                <path d="M57.9393152,146.032983 C57.9393152,151.113477 57.8001072,156.201805 57.9930097,161.270192 C58.1043761,164.185031 56.8700651,164.10527 55.3619784,163.927944 C53.9036087,163.756316 51.9971219,164.932079 52.0461762,161.179037 C52.1807439,151.021609 52.1515765,140.85706 52.0010993,130.700345 C51.9507193,127.278454 53.6417651,128.107399 55.0650013,128.06467 C56.5412691,128.019804 58.1262517,127.444385 57.9744486,130.796486 C57.744424,135.8606 57.9141252,140.953201 57.9141252,146.032983 L57.9393152,146.032983 Z" id="Fill-29" fill="#6D6E6D"></path>
                <path d="M57.9393152,146.032983 C57.9393152,151.113477 57.8001072,156.201805 57.9930097,161.270192 C58.1043761,164.185031 56.8700651,164.10527 55.3619784,163.927944 C53.9036087,163.756316 51.9971219,164.932079 52.0461762,161.179037 C52.1807439,151.021609 52.1515765,140.85706 52.0010993,130.700345 C51.9507193,127.278454 53.6417651,128.107399 55.0650013,128.06467 C56.5412691,128.019804 58.1262517,127.444385 57.9744486,130.796486 C57.744424,135.8606 57.9141252,140.953201 57.9141252,146.032983 L57.9393152,146.032983 Z" id="Stroke-31" stroke="#6C6D6D" stroke-width="2"></path>
                <path d="M88.1175946,124 C86.9093884,123.928004 85.7047675,123.820374 84.5567925,123.402217 C82.767787,122.749166 81.424778,121.498331 80.2653304,120.022783 C78.4333027,117.692013 77.0594613,115.075442 75.7458508,112.426145 C74.603612,110.12301 73.4864695,107.80533 72.3908381,105.478196 C72.2036917,105.079675 71.9964682,104.907321 71.5791531,104.98368 C71.2514675,105.043313 71.1331565,104.928411 71.1410439,104.562615 C71.1697254,103.291418 71.1668572,102.019494 71.1561017,100.747569 C71.1532335,100.450133 71.222069,100.358502 71.5361309,100.342503 C73.0454922,100.264689 74.5060951,99.9337998 75.8720492,99.2654761 C77.4452268,98.4960675 78.3702036,97.1914181 78.7695928,95.4867925 C79.3604306,92.9662157 79.4773075,90.4216402 78.9495689,87.8836099 C78.3508436,84.9986911 76.5718766,83.4504199 73.5861376,83.0817146 C72.9494094,83.0039011 72.3112471,82.9588129 71.6694996,82.962449 C69.8475105,82.9726302 68.0255213,82.9697213 66.2042492,82.9944471 C65.8923384,82.9988105 65.8148985,82.7733694 65.6829639,82.5995616 C64.3958838,80.9167529 62.9166379,79.4462952 61.1154428,78.3285437 C61.078874,78.3059996 61.0380029,78.2885461 61,78.2674565 L61,78.0900125 C61.1161599,78.0834675 61.2323198,78.0732862 61.3484796,78.0711046 C65.7066261,77.986746 70.0662066,77.9634746 74.4236359,78.0791041 C76.8651444,78.1438275 79.2593285,78.538713 81.5366357,79.4906562 C84.2255217,80.6149527 86.3242869,82.3930285 87.2729258,85.2524942 C88.6324266,89.3518859 88.4302224,93.4127345 86.6770687,97.3768615 C86.6175547,97.5099445 86.4813178,97.6335735 86.5558896,97.8299254 C87.8730852,97.7499302 89.1795253,97.8211987 90.4608691,98.1448157 C93.6954197,98.9622215 96.2588243,100.72648 97.8155101,103.771389 C99.4345779,106.935564 99.238827,110.20446 98.1582534,113.490082 C98.0657557,113.772247 97.9166122,113.66898 97.7602983,113.602075 C97.0511494,113.298093 96.3498879,112.975203 95.6328517,112.693038 C95.3768697,112.591954 95.2936935,112.476324 95.2972787,112.194886 C95.3187898,110.641524 94.9932553,109.160886 94.1923258,107.832238 C92.4671365,104.971317 89.8564075,103.60049 86.624008,103.389594 C84.766167,103.268874 83.044563,103.724846 81.5502594,104.914594 C81.34447,105.078947 81.2906923,105.203304 81.4290803,105.458561 C82.7986195,107.972593 84.0799633,110.537531 85.6065336,112.962113 C86.7846241,114.834002 88.0573635,116.628804 89.6814507,118.141441 C90.9434345,119.318098 92.3602981,120.119504 94.1306607,120.086779 C94.3608293,120.082416 94.4310989,120.153684 94.4275137,120.387125 C94.4153241,121.215439 94.4095878,122.04448 94.4296648,122.87134 C94.4361181,123.147687 94.3436205,123.252408 94.0905067,123.326586 C92.8270888,123.701836 91.5443109,123.943276 90.2285493,124 L88.1175946,124 Z" id="Fill-33" fill="#C83548"></path>
                <path d="M88.1175946,124 C86.9093884,123.928004 85.7047675,123.820374 84.5567925,123.402217 C82.767787,122.749166 81.424778,121.498331 80.2653304,120.022783 C78.4333027,117.692013 77.0594613,115.075442 75.7458508,112.426145 C74.603612,110.12301 73.4864695,107.80533 72.3908381,105.478196 C72.2036917,105.079675 71.9964682,104.907321 71.5791531,104.98368 C71.2514675,105.043313 71.1331565,104.928411 71.1410439,104.562615 C71.1697254,103.291418 71.1668572,102.019494 71.1561017,100.747569 C71.1532335,100.450133 71.222069,100.358502 71.5361309,100.342503 C73.0454922,100.264689 74.5060951,99.9337998 75.8720492,99.2654761 C77.4452268,98.4960675 78.3702036,97.1914181 78.7695928,95.4867925 C79.3604306,92.9662157 79.4773075,90.4216402 78.9495689,87.8836099 C78.3508436,84.9986911 76.5718766,83.4504199 73.5861376,83.0817146 C72.9494094,83.0039011 72.3112471,82.9588129 71.6694996,82.962449 C69.8475105,82.9726302 68.0255213,82.9697213 66.2042492,82.9944471 C65.8923384,82.9988105 65.8148985,82.7733694 65.6829639,82.5995616 C64.3958838,80.9167529 62.9166379,79.4462952 61.1154428,78.3285437 C61.078874,78.3059996 61.0380029,78.2885461 61,78.2674565 L61,78.0900125 C61.1161599,78.0834675 61.2323198,78.0732862 61.3484796,78.0711046 C65.7066261,77.986746 70.0662066,77.9634746 74.4236359,78.0791041 C76.8651444,78.1438275 79.2593285,78.538713 81.5366357,79.4906562 C84.2255217,80.6149527 86.3242869,82.3930285 87.2729258,85.2524942 C88.6324266,89.3518859 88.4302224,93.4127345 86.6770687,97.3768615 C86.6175547,97.5099445 86.4813178,97.6335735 86.5558896,97.8299254 C87.8730852,97.7499302 89.1795253,97.8211987 90.4608691,98.1448157 C93.6954197,98.9622215 96.2588243,100.72648 97.8155101,103.771389 C99.4345779,106.935564 99.238827,110.20446 98.1582534,113.490082 C98.0657557,113.772247 97.9166122,113.66898 97.7602983,113.602075 C97.0511494,113.298093 96.3498879,112.975203 95.6328517,112.693038 C95.3768697,112.591954 95.2936935,112.476324 95.2972787,112.194886 C95.3187898,110.641524 94.9932553,109.160886 94.1923258,107.832238 C92.4671365,104.971317 89.8564075,103.60049 86.624008,103.389594 C84.766167,103.268874 83.044563,103.724846 81.5502594,104.914594 C81.34447,105.078947 81.2906923,105.203304 81.4290803,105.458561 C82.7986195,107.972593 84.0799633,110.537531 85.6065336,112.962113 C86.7846241,114.834002 88.0573635,116.628804 89.6814507,118.141441 C90.9434345,119.318098 92.3602981,120.119504 94.1306607,120.086779 C94.3608293,120.082416 94.4310989,120.153684 94.4275137,120.387125 C94.4153241,121.215439 94.4095878,122.04448 94.4296648,122.87134 C94.4361181,123.147687 94.3436205,123.252408 94.0905067,123.326586 C92.8270888,123.701836 91.5443109,123.943276 90.2285493,124 L88.1175946,124 Z" id="Stroke-35" stroke="#C83549" stroke-width="2"></path>
                <path d="M64.4623136,126 C64.4076619,125.795887 64.2127854,125.845671 64.0768752,125.801576 C62.6113463,125.318674 61.7678402,123.906951 62.0561999,122.408461 C62.3388068,120.940553 63.6828076,119.896518 65.1461791,120.008175 C66.7418654,120.130501 67.8909897,121.238544 67.992383,122.751969 C68.0980909,124.320867 67.0949443,125.58964 65.5193928,125.877674 C65.4280669,125.894743 65.3180444,125.869851 65.2907186,126 L64.4623136,126 Z" id="Fill-37" fill="#C83548"></path>
                <path d="M64.4623136,126 C64.4076619,125.795887 64.2127854,125.845671 64.0768752,125.801576 C62.6113463,125.318674 61.7678402,123.906951 62.0561999,122.408461 C62.3388068,120.940553 63.6828076,119.896518 65.1461791,120.008175 C66.7418654,120.130501 67.8909897,121.238544 67.992383,122.751969 C68.0980909,124.320867 67.0949443,125.58964 65.5193928,125.877674 C65.4280669,125.894743 65.3180444,125.869851 65.2907186,126 L64.4623136,126 Z" id="Stroke-39" stroke="#C83549" stroke-width="2"></path>
            </g>
        </g>
    </g>
</svg>