<?xml version="1.0" encoding="UTF-8"?>
<svg width="92px" height="159px" viewBox="0 0 92 159" version="1.1" xmlns="http://www.w3.org/2000/svg" xmlns:xlink="http://www.w3.org/1999/xlink">
    <title>topup</title>
    <g id="Page-1" stroke="none" stroke-width="1" fill="none" fill-rule="evenodd">
        <g id="Library" transform="translate(-100.000000, -361.000000)">
            <g id="topup" transform="translate(101.000000, 362.000000)">
                <path d="M53.6671677,9 L44.3328323,9 C43.0431608,9 42,10.1179124 42,11.5 C42,12.8820876 43.0431608,14 44.3328323,14 L53.6671677,14 C54.9568392,14 56,12.8820876 56,11.5 C56,10.1179124 54.9568392,9 53.6671677,9" id="Fill-1" fill="#C83548"></path>
                <path d="M45,143.332331 C43.713611,143.332331 42.6676685,142.286389 42.6676685,141 C42.6676685,139.710605 43.713611,138.664663 45,138.664663 C46.286389,138.664663 47.3323315,139.710605 47.3323315,141 C47.3323315,142.286389 46.286389,143.332331 45,143.332331 M45,134 C41.140833,134 38,137.137827 38,141 C38,144.859167 41.140833,148 45,148 C48.859167,148 52,144.859167 52,141 C52,137.137827 48.859167,134 45,134" id="Fill-3" fill="#C83548"></path>
                <path d="M35.5,9 C36.8820876,9 38,10.1179124 38,11.5 C38,12.8820876 36.8820876,14 35.5,14 C34.1179124,14 33,12.8820876 33,11.5 C33,10.1179124 34.1179124,9 35.5,9" id="Fill-5" fill="#C83548"></path>
                <path d="M85.4224799,18.3977431 L4.57752014,18.3977431 L4.57752014,11.4978488 C4.57752014,7.693871 7.65474553,4.59795449 11.4393791,4.59795449 L78.5576734,4.59795449 C82.3452545,4.59795449 85.4224799,7.693871 85.4224799,11.4978488 L85.4224799,18.3977431 Z M85.4224799,124.802468 L20.5914718,124.802468 C19.3299273,124.802468 18.3041855,125.83049 18.3041855,127.101445 C18.3041855,128.372401 19.3299273,129.400423 20.5914718,129.400423 L85.4224799,129.400423 L85.4224799,145.499189 C85.4224799,149.306129 82.3452545,152.399083 78.5576734,152.399083 L11.4393791,152.399083 C7.65474553,152.399083 4.57752014,149.306129 4.57752014,145.499189 L4.57752014,129.400423 L11.4393791,129.400423 C12.7038711,129.400423 13.7296129,128.372401 13.7296129,127.101445 C13.7296129,125.83049 12.7038711,124.802468 11.4393791,124.802468 L4.57752014,124.802468 L4.57752014,22.9956976 L85.4224799,22.9956976 L85.4224799,124.802468 Z M78.5576734,0 L11.4393791,0 C5.13165651,0 0,5.1578858 0,11.4978488 L0,145.499189 C0,151.839152 5.13165651,157 11.4393791,157 L78.5576734,157 C84.8683435,157 90,151.839152 90,145.499189 L90,11.4978488 C90,5.1578858 84.8683435,0 78.5576734,0 L78.5576734,0 Z" id="Fill-7" fill="#6D6D6D"></path>
                <path d="M85.4224799,18.3977431 L4.57752014,18.3977431 L4.57752014,11.4978488 C4.57752014,7.693871 7.65474553,4.59795449 11.4393791,4.59795449 L78.5576734,4.59795449 C82.3452545,4.59795449 85.4224799,7.693871 85.4224799,11.4978488 L85.4224799,18.3977431 Z M85.4224799,124.802468 L20.5914718,124.802468 C19.3299273,124.802468 18.3041855,125.83049 18.3041855,127.101445 C18.3041855,128.372401 19.3299273,129.400423 20.5914718,129.400423 L85.4224799,129.400423 L85.4224799,145.499189 C85.4224799,149.306129 82.3452545,152.399083 78.5576734,152.399083 L11.4393791,152.399083 C7.65474553,152.399083 4.57752014,149.306129 4.57752014,145.499189 L4.57752014,129.400423 L11.4393791,129.400423 C12.7038711,129.400423 13.7296129,128.372401 13.7296129,127.101445 C13.7296129,125.83049 12.7038711,124.802468 11.4393791,124.802468 L4.57752014,124.802468 L4.57752014,22.9956976 L85.4224799,22.9956976 L85.4224799,124.802468 Z M78.5576734,0 L11.4393791,0 C5.13165651,0 0,5.1578858 0,11.4978488 L0,145.499189 C0,151.839152 5.13165651,157 11.4393791,157 L78.5576734,157 C84.8683435,157 90,151.839152 90,145.499189 L90,11.4978488 C90,5.1578858 84.8683435,0 78.5576734,0 Z" id="Stroke-9" stroke="#6C6D6D" stroke-width="0.5"></path>
                <path d="M46.7975649,61.8047311 L46.7975649,80.3531552 C46.7975649,85.2720415 46.8241227,90.1909277 46.7857615,95.109814 C46.7651054,97.7328234 45.2719681,99.2346599 43.0853776,98.9699798 C41.2469891,98.7469348 40.2171374,97.3343163 40.2141865,94.9046125 C40.2023831,84.5701931 40.2082848,74.2357737 40.2082848,63.8983803 L40.2082848,61.8106789 C40.0666433,61.7036173 39.922051,61.5995296 39.7804095,61.492468 C38.5026852,62.8485818 37.2603713,64.2374088 35.9383841,65.5429656 C34.2977035,67.1667334 32.4504624,67.2886647 31.0694579,65.9593164 C29.5556644,64.5050628 29.6382886,62.7058329 31.3852003,60.9214728 C34.5632813,57.6739372 37.7590674,54.4412713 40.9843621,51.2442927 C42.6427479,49.5997074 44.3542492,49.5818638 46.0037824,51.2115794 C49.2821927,54.4591149 52.5310944,57.7363898 55.7475366,61.0493519 C57.3675611,62.7177287 57.3941189,64.5437239 55.9540971,65.9503946 C54.5937486,67.273795 52.6992937,67.1578116 51.08222,65.5518874 C49.7808888,64.2641742 48.5680836,62.8872429 47.3139662,61.5519467 C47.1428161,61.6352168 46.9716659,61.7214609 46.7975649,61.8047311" id="Fill-11" fill="#C83548"></path>
            </g>
        </g>
    </g>
</svg>